{
.appVersion = "1230";
date = "2019-06-12 03:54:42 +0000";
designer = "Chris Simpson";
familyName = Neukolln;
fontMaster = (
{
ascender = 784;
capHeight = 708;
customParameters = (
{
name = paramArea;
value = "380";
},
{
name = paramDepth;
value = "10";
},
{
name = paramOver;
value = "1";
}
);
descender = -216;
id = "598F5332-0C7A-49A1-B747-7EF928CD593D";
userData = {
GSOffsetHorizontal = 63;
GSOffsetProportional = 1;
GSOffsetVertical = 54;
};
visible = 1;
weight = Light;
weightValue = 300;
xHeight = 502;
},
{
ascender = 784;
capHeight = 708;
custom = Extra;
customParameters = (
{
name = paramArea;
value = "320";
},
{
name = paramDepth;
value = "18";
},
{
name = paramOver;
value = "14";
}
);
descender = -216;
id = "F0C8AC16-97C4-4682-80FB-F8C7118623A9";
name = ExtraBold;
userData = {
GSCornerRadius = 15;
GSOffsetHorizontal = 55;
GSOffsetVertical = 0;
};
visible = 1;
weight = Bold;
weightValue = 800;
xHeight = 514;
}
);
glyphs = (
{
color = 1;
glyphname = A;
lastChange = "2019-08-05 01:51:30 +0000";
layers = (
{
layerId = "598F5332-0C7A-49A1-B747-7EF928CD593D";
paths = (
{
closed = 1;
nodes = (
"123 0 LINE",
"379 635 LINE",
"634 0 LINE",
"707 0 LINE",
"415 708 LINE",
"342 708 LINE",
"50 0 LINE"
);
},
{
closed = 1;
nodes = (
"572 184 LINE",
"572 242 LINE",
"188 242 LINE",
"188 184 LINE"
);
}
);
width = 757;
},
{
layerId = "F0C8AC16-97C4-4682-80FB-F8C7118623A9";
paths = (
{
closed = 1;
nodes = (
"189 0 LINE",
"355 476 LINE",
"521 0 LINE",
"704 0 LINE",
"447 708 LINE",
"263 708 LINE",
"6 0 LINE"
);
},
{
closed = 1;
nodes = (
"559 119 LINE",
"559 279 LINE",
"145 279 LINE",
"145 119 LINE"
);
}
);
width = 710;
},
{
associatedMasterId = "F0C8AC16-97C4-4682-80FB-F8C7118623A9";
layerId = "E3A786D2-94CB-446D-8447-40B9584668B0";
name = bubble;
paths = (
{
closed = 1;
nodes = (
"710 0 LINE",
"630 708 LINE",
"80 708 LINE",
"0 0 LINE"
);
}
);
width = 710;
},
{
associatedMasterId = "598F5332-0C7A-49A1-B747-7EF928CD593D";
layerId = "F914F56B-8814-4A73-A6DA-B534E1E28D68";
name = bubble;
paths = (
{
closed = 1;
nodes = (
"757 0 LINE",
"636 708 LINE",
"121 708 LINE",
"0 0 LINE"
);
}
);
width = 757;
}
);
leftKerningGroup = A;
rightKerningGroup = A;
unicode = 0041;
},
{
color = 1;
glyphname = B;
lastChange = "2019-08-05 01:52:23 +0000";
layers = (
{
associatedMasterId = "598F5332-0C7A-49A1-B747-7EF928CD593D";
layerId = "17BC2752-F521-4033-AE33-E19B84943661";
name = bubble;
paths = (
{
closed = 1;
nodes = (
"336 -63 LINE SMOOTH",
"485 -63 OFFCURVE",
"592 43 OFFCURVE",
"592 189 CURVE SMOOTH",
"592 258 OFFCURVE",
"562 323 OFFCURVE",
"512 370 CURVE",
"550 414 OFFCURVE",
"571 468 OFFCURVE",
"571 524 CURVE SMOOTH",
"571 667 OFFCURVE",
"465 771 OFFCURVE",
"322 771 CURVE SMOOTH",
"0 771 LINE",
"0 -63 LINE"
);
}
);
width = 592;
},
{
layerId = "F0C8AC16-97C4-4682-80FB-F8C7118623A9";
paths = (
{
closed = 1;
nodes = (
"381 0 LINE SMOOTH",
"510 0 OFFCURVE",
"600 85 OFFCURVE",
"600 207 CURVE SMOOTH",
"600 267 OFFCURVE",
"554 330 OFFCURVE",
"489 361 CURVE",
"540 385 OFFCURVE",
"575 445 OFFCURVE",
"575 507 CURVE SMOOTH",
"575 625 OFFCURVE",
"488 708 OFFCURVE",
"364 708 CURVE SMOOTH",
"74 708 LINE",
"74 0 LINE"
);
},
{
closed = 1;
nodes = (
"248 281 LINE",
"360 281 LINE SMOOTH",
"399 281 OFFCURVE",
"426 255 OFFCURVE",
"426 219 CURVE SMOOTH",
"426 182 OFFCURVE",
"398 156 OFFCURVE",
"359 156 CURVE SMOOTH",
"248 156 LINE"
);
},
{
closed = 1;
nodes = (
"248 552 LINE",
"342 552 LINE SMOOTH",
"378 552 OFFCURVE",
"403 529 OFFCURVE",
"403 495 CURVE SMOOTH",
"403 461 OFFCURVE",
"377 437 OFFCURVE",
"341 437 CURVE SMOOTH",
"248 437 LINE"
);
}
);
width = 628;
},
{
layerId = "598F5332-0C7A-49A1-B747-7EF928CD593D";
paths = (
{
closed = 1;
nodes = (
"336 0 LINE SMOOTH",
"450 0 OFFCURVE",
"529 78 OFFCURVE",
"529 189 CURVE SMOOTH",
"529 266 OFFCURVE",
"480 333 OFFCURVE",
"406 364 CURVE",
"469 400 OFFCURVE",
"508 459 OFFCURVE",
"508 524 CURVE SMOOTH",
"508 632 OFFCURVE",
"431 708 OFFCURVE",
"322 708 CURVE SMOOTH",
"95 708 LINE",
"95 0 LINE"
);
},
{
closed = 1;
nodes = (
"159 331 LINE",
"318 331 LINE SMOOTH",
"405 331 OFFCURVE",
"465 275 OFFCURVE",
"465 194 CURVE SMOOTH",
"465 113 OFFCURVE",
"408 56 OFFCURVE",
"327 56 CURVE SMOOTH",
"159 56 LINE"
);
},
{
closed = 1;
nodes = (
"159 652 LINE",
"311 652 LINE SMOOTH",
"389 652 OFFCURVE",
"444 598 OFFCURVE",
"444 520 CURVE SMOOTH",
"444 442 OFFCURVE",
"389 387 OFFCURVE",
"311 387 CURVE SMOOTH",
"159 387 LINE"
);
}
);
width = 592;
},
{
associatedMasterId = "F0C8AC16-97C4-4682-80FB-F8C7118623A9";
layerId = "E27880DF-8208-4A87-A714-7A03FAFFD030";
name = bubble;
paths = (
{
closed = 1;
nodes = (
"385 -35 LINE SMOOTH",
"533 -35 OFFCURVE",
"639 66 OFFCURVE",
"639 207 CURVE SMOOTH",
"639 264 OFFCURVE",
"606 323 OFFCURVE",
"555 363 CURVE",
"591 400 OFFCURVE",
"614 453 OFFCURVE",
"614 507 CURVE SMOOTH",
"614 644 OFFCURVE",
"511 743 OFFCURVE",
"368 743 CURVE SMOOTH",
"0 743 LINE",
"0 -35 LINE"
);
}
);
width = 639;
}
);
leftKerningGroup = B;
rightKerningGroup = B;
unicode = 0042;
},
{
color = 1;
glyphname = C;
lastChange = "2019-08-05 01:54:41 +0000";
layers = (
{
layerId = "598F5332-0C7A-49A1-B747-7EF928CD593D";
paths = (
{
closed = 1;
nodes = (
"557 -12 OFFCURVE",
"664 54 OFFCURVE",
"725 180 CURVE",
"666 202 LINE",
"614 98 OFFCURVE",
"528 44 OFFCURVE",
"414 44 CURVE SMOOTH",
"246 44 OFFCURVE",
"128 172 OFFCURVE",
"128 354 CURVE SMOOTH",
"128 536 OFFCURVE",
"246 664 OFFCURVE",
"414 664 CURVE SMOOTH",
"528 664 OFFCURVE",
"614 610 OFFCURVE",
"666 506 CURVE",
"725 528 LINE",
"664 654 OFFCURVE",
"557 720 OFFCURVE",
"414 720 CURVE SMOOTH",
"208 720 OFFCURVE",
"64 569 OFFCURVE",
"64 354 CURVE SMOOTH",
"64 139 OFFCURVE",
"208 -12 OFFCURVE",
"414 -12 CURVE SMOOTH"
);
}
);
width = 779;
},
{
layerId = "F0C8AC16-97C4-4682-80FB-F8C7118623A9";
paths = (
{
closed = 1;
nodes = (
"544 -12 OFFCURVE",
"665 63 OFFCURVE",
"721 184 CURVE",
"566 252 LINE",
"533 188 OFFCURVE",
"467 150 OFFCURVE",
"391 150 CURVE SMOOTH",
"280 150 OFFCURVE",
"204 233 OFFCURVE",
"204 354 CURVE SMOOTH",
"204 475 OFFCURVE",
"280 558 OFFCURVE",
"391 558 CURVE SMOOTH",
"467 558 OFFCURVE",
"533 520 OFFCURVE",
"566 456 CURVE",
"721 524 LINE",
"665 645 OFFCURVE",
"544 720 OFFCURVE",
"391 720 CURVE SMOOTH",
"175 720 OFFCURVE",
"26 571 OFFCURVE",
"26 354 CURVE SMOOTH",
"26 137 OFFCURVE",
"175 -12 OFFCURVE",
"391 -12 CURVE SMOOTH"
);
}
);
width = 733;
},
{
associatedMasterId = "F0C8AC16-97C4-4682-80FB-F8C7118623A9";
layerId = "EC625F60-55D8-4855-811D-23DB659CE36E";
name = bubble;
paths = (
{
closed = 1;
nodes = (
"543 -38 OFFCURVE",
"668 32 OFFCURVE",
"733 150 CURVE",
"733 558 LINE",
"668 676 OFFCURVE",
"543 746 OFFCURVE",
"391 746 CURVE SMOOTH",
"160 746 OFFCURVE",
"0 585 OFFCURVE",
"0 354 CURVE SMOOTH",
"0 123 OFFCURVE",
"160 -38 OFFCURVE",
"391 -38 CURVE SMOOTH"
);
}
);
width = 733;
},
{
associatedMasterId = "598F5332-0C7A-49A1-B747-7EF928CD593D";
layerId = "D5107685-3D6D-4051-B7A3-F2A59B56DF64";
name = bubble;
paths = (
{
closed = 1;
nodes = (
"578 -76 OFFCURVE",
"707 1 OFFCURVE",
"779 145 CURVE",
"779 563 LINE",
"707 706 OFFCURVE",
"578 784 OFFCURVE",
"414 784 CURVE SMOOTH",
"173 784 OFFCURVE",
"0 604 OFFCURVE",
"0 354 CURVE SMOOTH",
"0 104 OFFCURVE",
"173 -76 OFFCURVE",
"414 -76 CURVE SMOOTH"
);
}
);
width = 779;
}
);
leftKerningGroup = C;
rightKerningGroup = C;
unicode = 0043;
},
{
color = 1;
glyphname = D;
lastChange = "2019-08-05 01:55:33 +0000";
layers = (
{
layerId = "598F5332-0C7A-49A1-B747-7EF928CD593D";
paths = (
{
closed = 1;
nodes = (
"313 0 LINE",
"521 0 OFFCURVE",
"667 146 OFFCURVE",
"667 354 CURVE SMOOTH",
"667 562 OFFCURVE",
"521 708 OFFCURVE",
"313 708 CURVE",
"95 708 LINE",
"95 0 LINE"
);
},
{
closed = 1;
nodes = (
"159 652 LINE",
"305 652 LINE",
"480 652 OFFCURVE",
"603 529 OFFCURVE",
"603 354 CURVE SMOOTH",
"603 179 OFFCURVE",
"480 56 OFFCURVE",
"305 56 CURVE",
"159 56 LINE"
);
}
);
width = 730;
},
{
layerId = "F0C8AC16-97C4-4682-80FB-F8C7118623A9";
paths = (
{
closed = 1;
nodes = (
"374 0 LINE",
"582 0 OFFCURVE",
"728 146 OFFCURVE",
"728 354 CURVE",
"728 562 OFFCURVE",
"583 708 OFFCURVE",
"375 708 CURVE",
"74 708 LINE",
"74 0 LINE"
);
},
{
closed = 1;
nodes = (
"248 552 LINE",
"353 552 LINE",
"470 552 OFFCURVE",
"551 471 OFFCURVE",
"551 354 CURVE SMOOTH",
"551 237 OFFCURVE",
"470 156 OFFCURVE",
"353 156 CURVE",
"248 156 LINE"
);
}
);
width = 753;
},
{
associatedMasterId = "F0C8AC16-97C4-4682-80FB-F8C7118623A9";
layerId = "1437FFAE-165C-4522-BB6B-2B2E2AB2E23C";
name = bubble;
paths = (
{
closed = 1;
nodes = (
"368 -31 LINE SMOOTH",
"593 -31 OFFCURVE",
"753 129 OFFCURVE",
"753 354 CURVE SMOOTH",
"753 579 OFFCURVE",
"594 739 OFFCURVE",
"369 739 CURVE SMOOTH",
"0 739 LINE",
"0 -31 LINE"
);
}
);
width = 753;
},
{
associatedMasterId = "598F5332-0C7A-49A1-B747-7EF928CD593D";
layerId = "6EE30239-F9D6-485C-905E-7B3EDE666119";
name = bubble;
paths = (
{
closed = 1;
nodes = (
"313 -64 LINE SMOOTH",
"556 -64 OFFCURVE",
"730 111 OFFCURVE",
"730 354 CURVE SMOOTH",
"730 597 OFFCURVE",
"556 772 OFFCURVE",
"313 772 CURVE SMOOTH",
"0 772 LINE",
"0 -64 LINE"
);
}
);
width = 730;
}
);
leftKerningGroup = B;
rightKerningGroup = D;
unicode = 0044;
},
{
color = 1;
glyphname = E;
lastChange = "2019-08-05 01:56:16 +0000";
layers = (
{
layerId = "598F5332-0C7A-49A1-B747-7EF928CD593D";
paths = (
{
closed = 1;
nodes = (
"520 0 LINE",
"520 58 LINE",
"159 58 LINE",
"159 330 LINE",
"504 330 LINE",
"504 388 LINE",
"159 388 LINE",
"159 650 LINE",
"520 650 LINE",
"520 708 LINE",
"95 708 LINE",
"95 0 LINE"
);
}
);
width = 581;
},
{
layerId = "F0C8AC16-97C4-4682-80FB-F8C7118623A9";
paths = (
{
closed = 1;
nodes = (
"564 0 LINE",
"564 160 LINE",
"248 160 LINE",
"248 279 LINE",
"538 279 LINE",
"538 439 LINE",
"248 439 LINE",
"248 548 LINE",
"564 548 LINE",
"564 708 LINE",
"74 708 LINE",
"74 0 LINE"
);
}
);
width = 622;
},
{
associatedMasterId = "F0C8AC16-97C4-4682-80FB-F8C7118623A9";
layerId = "66A38492-8B9D-47E0-8652-A0D07F6171A2";
name = bubble;
paths = (
{
closed = 1;
nodes = (
"622 0 LINE",
"622 708 LINE",
"0 708 LINE",
"0 0 LINE"
);
}
);
width = 622;
},
{
associatedMasterId = "598F5332-0C7A-49A1-B747-7EF928CD593D";
layerId = "0C479442-E5AD-4FBB-AB22-29FD7A84D849";
name = bubble;
paths = (
{
closed = 1;
nodes = (
"581 0 LINE",
"581 708 LINE",
"0 708 LINE",
"0 0 LINE"
);
}
);
width = 581;
}
);
leftKerningGroup = B;
rightKerningGroup = E;
unicode = 0045;
},
{
color = 1;
glyphname = F;
lastChange = "2019-08-05 01:56:43 +0000";
layers = (
{
layerId = "598F5332-0C7A-49A1-B747-7EF928CD593D";
paths = (
{
closed = 1;
nodes = (
"159 0 LINE",
"159 330 LINE",
"504 330 LINE",
"504 388 LINE",
"159 388 LINE",
"159 650 LINE",
"520 650 LINE",
"520 708 LINE",
"95 708 LINE",
"95 0 LINE"
);
}
);
width = 575;
},
{
layerId = "F0C8AC16-97C4-4682-80FB-F8C7118623A9";
paths = (
{
closed = 1;
nodes = (
"248 0 LINE",
"248 279 LINE",
"538 279 LINE",
"538 439 LINE",
"248 439 LINE",
"248 548 LINE",
"564 548 LINE",
"564 708 LINE",
"74 708 LINE",
"74 0 LINE"
);
}
);
width = 595;
},
{
associatedMasterId = "F0C8AC16-97C4-4682-80FB-F8C7118623A9";
layerId = "8C9CF211-36AB-4542-AF29-D27D89D43E8C";
name = bubble;
paths = (
{
closed = 1;
nodes = (
"306 0 LINE",
"306 225 LINE",
"595 225 LINE",
"595 708 LINE",
"0 708 LINE",
"0 0 LINE"
);
}
);
width = 595;
},
{
associatedMasterId = "598F5332-0C7A-49A1-B747-7EF928CD593D";
layerId = "FF6FBA45-E15B-4DBE-931C-9FB29F63AB78";
name = bubble;
paths = (
{
closed = 1;
nodes = (
"227 0 LINE",
"227 262 LINE",
"575 262 LINE",
"575 708 LINE",
"0 708 LINE",
"0 0 LINE"
);
}
);
width = 575;
}
);
leftKerningGroup = B;
rightKerningGroup = F;
unicode = 0046;
},
{
color = 1;
glyphname = G;
lastChange = "2019-08-05 01:59:57 +0000";
layers = (
{
layerId = "598F5332-0C7A-49A1-B747-7EF928CD593D";
paths = (
{
closed = 1;
nodes = (
"602 -12 OFFCURVE",
"737 139 OFFCURVE",
"737 355 CURVE",
"414 355 LINE",
"414 297 LINE",
"714 297 LINE",
"673 355 LINE",
"673 172 OFFCURVE",
"564 44 OFFCURVE",
"407 44 CURVE SMOOTH",
"243 44 OFFCURVE",
"128 169 OFFCURVE",
"128 347 CURVE SMOOTH",
"128 534 OFFCURVE",
"246 664 OFFCURVE",
"414 664 CURVE SMOOTH",
"528 664 OFFCURVE",
"615 610 OFFCURVE",
"666 506 CURVE",
"725 528 LINE",
"664 654 OFFCURVE",
"557 720 OFFCURVE",
"414 720 CURVE SMOOTH",
"208 720 OFFCURVE",
"64 566 OFFCURVE",
"64 346 CURVE SMOOTH",
"64 135 OFFCURVE",
"206 -12 OFFCURVE",
"409 -12 CURVE SMOOTH"
);
}
);
width = 796;
},
{
layerId = "F0C8AC16-97C4-4682-80FB-F8C7118623A9";
paths = (
{
closed = 1;
nodes = (
"605 -12 OFFCURVE",
"721 124 OFFCURVE",
"721 386 CURVE",
"390 386 LINE",
"390 253 LINE",
"572 253 LINE",
"549 386 LINE",
"549 231 OFFCURVE",
"492 150 OFFCURVE",
"383 150 CURVE SMOOTH",
"278 150 OFFCURVE",
"204 234 OFFCURVE",
"204 353 CURVE SMOOTH",
"204 474 OFFCURVE",
"281 558 OFFCURVE",
"391 558 CURVE SMOOTH",
"463 558 OFFCURVE",
"535 516 OFFCURVE",
"566 456 CURVE",
"721 524 LINE",
"668 639 OFFCURVE",
"532 720 OFFCURVE",
"391 720 CURVE SMOOTH",
"176 720 OFFCURVE",
"26 568 OFFCURVE",
"26 351 CURVE SMOOTH",
"26 137 OFFCURVE",
"172 -12 OFFCURVE",
"382 -12 CURVE SMOOTH"
);
}
);
width = 748;
},
{
associatedMasterId = "F0C8AC16-97C4-4682-80FB-F8C7118623A9";
layerId = "D07C2F8E-6627-4819-9ECE-94A529AA0132";
name = bubble;
paths = (
{
closed = 1;
nodes = (
"600 -45 OFFCURVE",
"712 64 OFFCURVE",
"748 277 CURVE",
"748 531 LINE",
"701 663 OFFCURVE",
"561 753 OFFCURVE",
"398 753 CURVE SMOOTH",
"165 753 OFFCURVE",
"0 587 OFFCURVE",
"0 351 CURVE SMOOTH",
"0 119 OFFCURVE",
"161 -45 OFFCURVE",
"389 -45 CURVE SMOOTH"
);
}
);
width = 748;
},
{
associatedMasterId = "598F5332-0C7A-49A1-B747-7EF928CD593D";
layerId = "F5F26C14-777C-44A3-8FAF-39DE7DFD2023";
name = bubble;
paths = (
{
closed = 1;
nodes = (
"638 -77 OFFCURVE",
"775 92 OFFCURVE",
"796 348 CURVE",
"796 532 LINE",
"727 696 OFFCURVE",
"592 785 OFFCURVE",
"415 785 CURVE SMOOTH",
"173 785 OFFCURVE",
"0 602 OFFCURVE",
"0 346 CURVE SMOOTH",
"0 99 OFFCURVE",
"171 -77 OFFCURVE",
"410 -77 CURVE SMOOTH"
);
}
);
width = 796;
}
);
leftKerningGroup = C;
rightKerningGroup = G;
unicode = 0047;
},
{
color = 1;
glyphname = H;
lastChange = "2019-08-11 23:54:56 +0000";
layers = (
{
layerId = "598F5332-0C7A-49A1-B747-7EF928CD593D";
paths = (
{
closed = 1;
nodes = (
"639 0 LINE",
"639 708 LINE",
"575 708 LINE",
"575 0 LINE"
);
},
{
closed = 1;
nodes = (
"159 0 LINE",
"159 708 LINE",
"95 708 LINE",
"95 0 LINE"
);
},
{
closed = 1;
nodes = (
"614 330 LINE",
"614 388 LINE",
"120 388 LINE",
"120 330 LINE"
);
}
);
width = 734;
},
{
layerId = "F0C8AC16-97C4-4682-80FB-F8C7118623A9";
paths = (
{
closed = 1;
nodes = (
"688 0 LINE",
"688 708 LINE",
"514 708 LINE",
"514 0 LINE"
);
},
{
closed = 1;
nodes = (
"248 0 LINE",
"248 708 LINE",
"74 708 LINE",
"74 0 LINE"
);
},
{
closed = 1;
nodes = (
"638 279 LINE",
"638 439 LINE",
"124 439 LINE",
"124 279 LINE"
);
}
);
width = 762;
},
{
associatedMasterId = "F0C8AC16-97C4-4682-80FB-F8C7118623A9";
layerId = "DECBE05A-46A6-4631-A47F-B13C0F5D2698";
name = bubble;
paths = (
{
closed = 1;
nodes = (
"762 0 LINE",
"762 708 LINE",
"0 708 LINE",
"0 0 LINE"
);
}
);
width = 762;
},
{
associatedMasterId = "598F5332-0C7A-49A1-B747-7EF928CD593D";
layerId = "6F3C35AF-3E31-490A-B721-8607452BC0ED";
name = bubble;
paths = (
{
closed = 1;
nodes = (
"734 0 LINE",
"734 708 LINE",
"0 708 LINE",
"0 0 LINE"
);
}
);
width = 734;
}
);
leftKerningGroup = B;
rightKerningGroup = H;
unicode = 0048;
},
{
color = 1;
glyphname = I;
lastChange = "2019-08-05 02:00:59 +0000";
layers = (
{
layerId = "598F5332-0C7A-49A1-B747-7EF928CD593D";
paths = (
{
closed = 1;
nodes = (
"159 0 LINE",
"159 708 LINE",
"95 708 LINE",
"95 0 LINE"
);
}
);
width = 254;
},
{
layerId = "F0C8AC16-97C4-4682-80FB-F8C7118623A9";
paths = (
{
closed = 1;
nodes = (
"248 0 LINE",
"248 708 LINE",
"74 708 LINE",
"74 0 LINE"
);
}
);
width = 322;
},
{
associatedMasterId = "F0C8AC16-97C4-4682-80FB-F8C7118623A9";
layerId = "01D8F952-ACE3-4975-A801-676526A7D721";
name = bubble;
paths = (
{
closed = 1;
nodes = (
"322 0 LINE",
"322 708 LINE",
"0 708 LINE",
"0 0 LINE"
);
}
);
width = 322;
},
{
associatedMasterId = "598F5332-0C7A-49A1-B747-7EF928CD593D";
layerId = "6DA5C21F-5BE5-4E7C-8848-9F6D94BEFE52";
name = bubble;
paths = (
{
closed = 1;
nodes = (
"254 0 LINE",
"254 708 LINE",
"0 708 LINE",
"0 0 LINE"
);
}
);
width = 254;
}
);
leftKerningGroup = B;
rightKerningGroup = H;
unicode = 0049;
},
{
color = 1;
glyphname = J;
lastChange = "2019-08-05 02:02:14 +0000";
layers = (
{
layerId = "598F5332-0C7A-49A1-B747-7EF928CD593D";
paths = (
{
closed = 1;
nodes = (
"358 -12 OFFCURVE",
"441 71 OFFCURVE",
"441 190 CURVE SMOOTH",
"441 708 LINE",
"377 708 LINE",
"377 183 LINE SMOOTH",
"377 102 OFFCURVE",
"320 45 OFFCURVE",
"239 45 CURVE SMOOTH",
"179 45 OFFCURVE",
"124 66 OFFCURVE",
"89 105 CURVE",
"49 64 LINE",
"94 14 OFFCURVE",
"163 -12 OFFCURVE",
"239 -12 CURVE SMOOTH"
);
}
);
width = 529;
},
{
layerId = "F0C8AC16-97C4-4682-80FB-F8C7118623A9";
paths = (
{
closed = 1;
nodes = (
"381 -12 OFFCURVE",
"491 97 OFFCURVE",
"491 255 CURVE SMOOTH",
"491 708 LINE",
"317 708 LINE",
"317 243 LINE SMOOTH",
"317 188 OFFCURVE",
"279 150 OFFCURVE",
"224 150 CURVE SMOOTH",
"192 150 OFFCURVE",
"147 167 OFFCURVE",
"104 200 CURVE",
"-3 93 LINE",
"67 25 OFFCURVE",
"149 -11 OFFCURVE",
"224 -11 CURVE SMOOTH"
);
}
);
width = 548;
},
{
associatedMasterId = "F0C8AC16-97C4-4682-80FB-F8C7118623A9";
layerId = "A255CD1F-47B8-4466-8C83-BF4E79F9D2E1";
name = bubble;
paths = (
{
closed = 1;
nodes = (
"399 -42 OFFCURVE",
"548 80 OFFCURVE",
"548 255 CURVE SMOOTH",
"548 708 LINE",
"287 708 LINE",
"287 243 LINE SMOOTH",
"287 205 OFFCURVE",
"263 181 OFFCURVE",
"225 181 CURVE SMOOTH",
"198 181 OFFCURVE",
"162 196 OFFCURVE",
"127 222 CURVE",
"-17 77 LINE",
"40 3 OFFCURVE",
"133 -42 OFFCURVE",
"275 -42 CURVE SMOOTH"
);
}
);
width = 548;
},
{
associatedMasterId = "598F5332-0C7A-49A1-B747-7EF928CD593D";
layerId = "E4AE8DE5-D533-47FB-AD19-2BAAB9FF4B3B";
name = bubble;
paths = (
{
closed = 1;
nodes = (
"393 -76 OFFCURVE",
"529 36 OFFCURVE",
"529 190 CURVE SMOOTH",
"529 708 LINE",
"313 708 LINE",
"313 183 LINE SMOOTH",
"313 137 OFFCURVE",
"285 109 OFFCURVE",
"239 109 CURVE SMOOTH",
"193 109 OFFCURVE",
"155 124 OFFCURVE",
"134 152 CURVE",
"0 12 LINE",
"60 -45 OFFCURVE",
"148 -76 OFFCURVE",
"239 -76 CURVE SMOOTH"
);
}
);
width = 529;
}
);
leftKerningGroup = J;
rightKerningGroup = J;
unicode = 004A;
},
{
color = 1;
glyphname = K;
lastChange = "2019-08-05 02:02:59 +0000";
layers = (
{
layerId = "598F5332-0C7A-49A1-B747-7EF928CD593D";
paths = (
{
closed = 1;
nodes = (
"159 0 LINE",
"159 216 LINE",
"274 344 LINE",
"533 0 LINE",
"613 0 LINE",
"317 392 LINE",
"602 708 LINE",
"516 708 LINE",
"159 312 LINE",
"159 708 LINE",
"95 708 LINE",
"95 0 LINE"
);
}
);
width = 662;
},
{
layerId = "F0C8AC16-97C4-4682-80FB-F8C7118623A9";
paths = (
{
closed = 1;
nodes = (
"248 0 LINE",
"248 198 LINE",
"303 260 LINE",
"499 0 LINE",
"717 0 LINE",
"422 391 LINE",
"707 708 LINE",
"472 708 LINE",
"248 459 LINE",
"248 708 LINE",
"74 708 LINE",
"74 0 LINE"
);
}
);
width = 724;
},
{
associatedMasterId = "F0C8AC16-97C4-4682-80FB-F8C7118623A9";
layerId = "394DA3DC-BF34-48B9-9232-02B7484C948B";
name = bubble;
paths = (
{
closed = 1;
nodes = (
"724 0 LINE",
"649 389 LINE",
"723 708 LINE",
"0 708 LINE",
"0 0 LINE"
);
}
);
width = 724;
},
{
associatedMasterId = "598F5332-0C7A-49A1-B747-7EF928CD593D";
layerId = "97165F69-4C48-4643-9B62-D767AA34A319";
name = bubble;
paths = (
{
closed = 1;
nodes = (
"662 0 LINE",
"546 392 LINE",
"651 708 LINE",
"0 708 LINE",
"0 0 LINE"
);
}
);
width = 662;
}
);
leftKerningGroup = B;
rightKerningGroup = K;
unicode = 004B;
},
{
color = 1;
glyphname = L;
lastChange = "2019-08-05 02:03:25 +0000";
layers = (
{
layerId = "598F5332-0C7A-49A1-B747-7EF928CD593D";
paths = (
{
closed = 1;
nodes = (
"520 0 LINE",
"520 58 LINE",
"159 58 LINE",
"159 708 LINE",
"95 708 LINE",
"95 0 LINE"
);
}
);
width = 571;
},
{
layerId = "F0C8AC16-97C4-4682-80FB-F8C7118623A9";
paths = (
{
closed = 1;
nodes = (
"564 0 LINE",
"564 160 LINE",
"248 160 LINE",
"248 708 LINE",
"74 708 LINE",
"74 0 LINE"
);
}
);
width = 579;
},
{
associatedMasterId = "598F5332-0C7A-49A1-B747-7EF928CD593D";
layerId = "F17D8DC4-FA3E-40D8-BD09-0630DF24F88B";
name = bubble;
paths = (
{
closed = 1;
nodes = (
"571 0 LINE",
"571 114 LINE",
"215 114 LINE",
"215 708 LINE",
"0 708 LINE",
"0 0 LINE"
);
}
);
width = 571;
},
{
associatedMasterId = "F0C8AC16-97C4-4682-80FB-F8C7118623A9";
layerId = "A536EACF-95B1-4375-BF2A-B1FD6BC8AFE1";
name = bubble;
paths = (
{
closed = 1;
nodes = (
"579 0 LINE",
"579 223 LINE",
"315 223 LINE",
"315 708 LINE",
"0 708 LINE",
"0 0 LINE"
);
}
);
width = 579;
}
);
leftKerningGroup = B;
rightKerningGroup = L;
unicode = 004C;
},
{
color = 1;
glyphname = M;
lastChange = "2019-08-05 02:04:47 +0000";
layers = (
{
layerId = "598F5332-0C7A-49A1-B747-7EF928CD593D";
paths = (
{
closed = 1;
nodes = (
"159 0 LINE",
"159 593 LINE",
"467 12 LINE",
"775 593 LINE",
"775 0 LINE",
"839 0 LINE",
"839 708 LINE",
"766 708 LINE",
"467 140 LINE",
"168 708 LINE",
"95 708 LINE",
"95 0 LINE"
);
}
);
width = 934;
},
{
layerId = "F0C8AC16-97C4-4682-80FB-F8C7118623A9";
paths = (
{
closed = 1;
nodes = (
"248 0 LINE",
"249 404 LINE",
"482 12 LINE",
"716 404 LINE",
"716 0 LINE",
"890 0 LINE",
"890 708 LINE",
"698 708 LINE",
"482 321 LINE",
"266 708 LINE",
"74 708 LINE",
"74 0 LINE"
);
}
);
width = 964;
},
{
associatedMasterId = "F0C8AC16-97C4-4682-80FB-F8C7118623A9";
layerId = "26E38019-4C78-4A6B-BB7A-95674D49DD36";
name = bubble;
paths = (
{
closed = 1;
nodes = (
"964 0 LINE",
"964 708 LINE",
"0 708 LINE",
"0 0 LINE"
);
}
);
width = 964;
},
{
associatedMasterId = "598F5332-0C7A-49A1-B747-7EF928CD593D";
layerId = "273C67BC-9A77-42B1-ADDE-7A7F28A2E3D9";
name = bubble;
paths = (
{
closed = 1;
nodes = (
"934 0 LINE",
"934 708 LINE",
"0 708 LINE",
"0 0 LINE"
);
}
);
width = 934;
}
);
leftKerningGroup = B;
rightKerningGroup = H;
unicode = 004D;
},
{
color = 1;
glyphname = N;
lastChange = "2019-08-05 02:45:19 +0000";
layers = (
{
layerId = "598F5332-0C7A-49A1-B747-7EF928CD593D";
paths = (
{
closed = 1;
nodes = (
"159 0 LINE",
"159 613 LINE",
"557 0 LINE",
"630 0 LINE",
"630 708 LINE",
"566 708 LINE",
"567 95 LINE",
"168 708 LINE",
"95 708 LINE",
"95 0 LINE"
);
}
);
width = 725;
},
{
layerId = "F0C8AC16-97C4-4682-80FB-F8C7118623A9";
paths = (
{
closed = 1;
nodes = (
"248 0 LINE",
"248 428 LINE",
"506 0 LINE",
"689 0 LINE",
"689 708 LINE",
"515 708 LINE",
"516 280 LINE",
"257 708 LINE",
"74 708 LINE",
"74 0 LINE"
);
}
);
width = 763;
},
{
associatedMasterId = "F0C8AC16-97C4-4682-80FB-F8C7118623A9";
layerId = "E03D9B42-AAF1-451D-BC02-1E35357BE188";
name = bubble;
paths = (
{
closed = 1;
nodes = (
"763 0 LINE",
"763 708 LINE",
"0 708 LINE",
"0 0 LINE"
);
}
);
width = 763;
},
{
associatedMasterId = "598F5332-0C7A-49A1-B747-7EF928CD593D";
layerId = "BE2960EA-8EAF-436E-9334-A12A596364BA";
name = bubble;
paths = (
{
closed = 1;
nodes = (
"725 0 LINE",
"725 708 LINE",
"0 708 LINE",
"0 0 LINE"
);
}
);
width = 725;
}
);
leftKerningGroup = B;
rightKerningGroup = H;
unicode = 004E;
},
{
color = 1;
glyphname = O;
lastChange = "2019-08-05 02:46:09 +0000";
layers = (
{
layerId = "598F5332-0C7A-49A1-B747-7EF928CD593D";
paths = (
{
closed = 1;
nodes = (
"620 -12 OFFCURVE",
"764 139 OFFCURVE",
"764 354 CURVE SMOOTH",
"764 569 OFFCURVE",
"620 720 OFFCURVE",
"414 720 CURVE SMOOTH",
"208 720 OFFCURVE",
"64 569 OFFCURVE",
"64 354 CURVE SMOOTH",
"64 139 OFFCURVE",
"208 -12 OFFCURVE",
"414 -12 CURVE SMOOTH"
);
},
{
closed = 1;
nodes = (
"246 44 OFFCURVE",
"128 172 OFFCURVE",
"128 354 CURVE SMOOTH",
"128 536 OFFCURVE",
"246 664 OFFCURVE",
"414 664 CURVE SMOOTH",
"582 664 OFFCURVE",
"700 536 OFFCURVE",
"700 354 CURVE SMOOTH",
"700 172 OFFCURVE",
"582 44 OFFCURVE",
"414 44 CURVE SMOOTH"
);
}
);
width = 828;
},
{
layerId = "F0C8AC16-97C4-4682-80FB-F8C7118623A9";
paths = (
{
closed = 1;
nodes = (
"607 -12 OFFCURVE",
"756 137 OFFCURVE",
"756 354 CURVE SMOOTH",
"756 571 OFFCURVE",
"607 720 OFFCURVE",
"391 720 CURVE SMOOTH",
"175 720 OFFCURVE",
"26 571 OFFCURVE",
"26 354 CURVE SMOOTH",
"26 137 OFFCURVE",
"175 -12 OFFCURVE",
"391 -12 CURVE SMOOTH"
);
},
{
closed = 1;
nodes = (
"280 150 OFFCURVE",
"204 233 OFFCURVE",
"204 354 CURVE SMOOTH",
"204 475 OFFCURVE",
"280 558 OFFCURVE",
"391 558 CURVE SMOOTH",
"502 558 OFFCURVE",
"578 475 OFFCURVE",
"578 354 CURVE SMOOTH",
"578 233 OFFCURVE",
"502 150 OFFCURVE",
"391 150 CURVE SMOOTH"
);
}
);
width = 782;
},
{
associatedMasterId = "F0C8AC16-97C4-4682-80FB-F8C7118623A9";
layerId = "F0F6C542-779F-4087-923E-26C84AC2D6F5";
name = bubble;
paths = (
{
closed = 1;
nodes = (
"622 -38 OFFCURVE",
"782 123 OFFCURVE",
"782 354 CURVE SMOOTH",
"782 585 OFFCURVE",
"622 746 OFFCURVE",
"391 746 CURVE SMOOTH",
"160 746 OFFCURVE",
"0 585 OFFCURVE",
"0 354 CURVE SMOOTH",
"0 123 OFFCURVE",
"160 -38 OFFCURVE",
"391 -38 CURVE SMOOTH"
);
}
);
width = 782;
},
{
associatedMasterId = "598F5332-0C7A-49A1-B747-7EF928CD593D";
layerId = "A982E3B3-6103-4D53-8EEC-1B22680E1677";
name = bubble;
paths = (
{
closed = 1;
nodes = (
"655 -76 OFFCURVE",
"828 104 OFFCURVE",
"828 354 CURVE SMOOTH",
"828 604 OFFCURVE",
"655 784 OFFCURVE",
"414 784 CURVE SMOOTH",
"173 784 OFFCURVE",
"0 604 OFFCURVE",
"0 354 CURVE SMOOTH",
"0 104 OFFCURVE",
"173 -76 OFFCURVE",
"414 -76 CURVE SMOOTH"
);
}
);
width = 828;
}
);
leftKerningGroup = C;
rightKerningGroup = D;
unicode = 004F;
},
{
color = 1;
glyphname = P;
lastChange = "2019-08-05 02:46:43 +0000";
layers = (
{
layerId = "598F5332-0C7A-49A1-B747-7EF928CD593D";
paths = (
{
closed = 1;
nodes = (
"159 0 LINE",
"159 285 LINE",
"315 285 LINE",
"439 285 OFFCURVE",
"526 372 OFFCURVE",
"526 497 CURVE SMOOTH",
"526 621 OFFCURVE",
"439 708 OFFCURVE",
"315 708 CURVE",
"95 708 LINE",
"95 0 LINE"
);
},
{
closed = 1;
nodes = (
"159 652 LINE",
"305 652 LINE",
"397 652 OFFCURVE",
"462 588 OFFCURVE",
"462 497 CURVE SMOOTH",
"462 405 OFFCURVE",
"397 341 OFFCURVE",
"305 341 CURVE",
"159 341 LINE"
);
}
);
width = 585;
},
{
layerId = "F0C8AC16-97C4-4682-80FB-F8C7118623A9";
paths = (
{
closed = 1;
nodes = (
"248 0 LINE",
"248 249 LINE",
"375 249 LINE",
"515 249 OFFCURVE",
"603 338 OFFCURVE",
"603 479 CURVE",
"603 620 OFFCURVE",
"515 708 OFFCURVE",
"376 708 CURVE",
"74 708 LINE",
"74 0 LINE"
);
},
{
closed = 1;
nodes = (
"248 552 LINE",
"353 552 LINE",
"398 552 OFFCURVE",
"426 524 OFFCURVE",
"426 479 CURVE SMOOTH",
"426 434 OFFCURVE",
"398 405 OFFCURVE",
"353 405 CURVE",
"248 405 LINE"
);
}
);
width = 621;
},
{
associatedMasterId = "F0C8AC16-97C4-4682-80FB-F8C7118623A9";
layerId = "D02CEA46-6A79-421F-84CA-A7F50E9766D0";
name = bubble;
paths = (
{
closed = 1;
nodes = (
"266 0 LINE",
"266 226 LINE",
"370 226 LINE SMOOTH",
"523 226 OFFCURVE",
"621 325 OFFCURVE",
"621 479 CURVE SMOOTH",
"621 632 OFFCURVE",
"523 731 OFFCURVE",
"371 731 CURVE SMOOTH",
"0 731 LINE",
"0 0 LINE"
);
}
);
width = 621;
},
{
associatedMasterId = "598F5332-0C7A-49A1-B747-7EF928CD593D";
layerId = "DE0ED8CF-9FAE-4D0A-8FD4-34A8D9A2B90C";
name = bubble;
paths = (
{
closed = 1;
nodes = (
"218 0 LINE",
"218 226 LINE",
"315 226 LINE SMOOTH",
"472 226 OFFCURVE",
"585 340 OFFCURVE",
"585 497 CURVE SMOOTH",
"585 654 OFFCURVE",
"472 767 OFFCURVE",
"315 767 CURVE SMOOTH",
"0 767 LINE",
"0 0 LINE"
);
}
);
width = 585;
}
);
leftKerningGroup = B;
rightKerningGroup = P;
unicode = 0050;
},
{
color = 1;
glyphname = Q;
lastChange = "2019-08-05 02:48:22 +0000";
layers = (
{
layerId = "598F5332-0C7A-49A1-B747-7EF928CD593D";
paths = (
{
closed = 1;
nodes = (
"620 -12 OFFCURVE",
"764 139 OFFCURVE",
"764 354 CURVE SMOOTH",
"764 569 OFFCURVE",
"620 720 OFFCURVE",
"414 720 CURVE SMOOTH",
"208 720 OFFCURVE",
"64 569 OFFCURVE",
"64 354 CURVE SMOOTH",
"64 139 OFFCURVE",
"208 -12 OFFCURVE",
"414 -12 CURVE SMOOTH"
);
},
{
closed = 1;
nodes = (
"246 44 OFFCURVE",
"128 172 OFFCURVE",
"128 354 CURVE SMOOTH",
"128 536 OFFCURVE",
"246 664 OFFCURVE",
"414 664 CURVE SMOOTH",
"582 664 OFFCURVE",
"700 536 OFFCURVE",
"700 354 CURVE SMOOTH",
"700 172 OFFCURVE",
"582 44 OFFCURVE",
"414 44 CURVE SMOOTH"
);
},
{
closed = 1;
nodes = (
"785 30 LINE",
"490 324 LINE",
"448 282 LINE",
"743 -12 LINE"
);
}
);
width = 843;
},
{
layerId = "F0C8AC16-97C4-4682-80FB-F8C7118623A9";
paths = (
{
closed = 1;
nodes = (
"607 -12 OFFCURVE",
"756 137 OFFCURVE",
"756 354 CURVE SMOOTH",
"756 571 OFFCURVE",
"607 720 OFFCURVE",
"391 720 CURVE SMOOTH",
"175 720 OFFCURVE",
"26 571 OFFCURVE",
"26 354 CURVE SMOOTH",
"26 137 OFFCURVE",
"175 -12 OFFCURVE",
"391 -12 CURVE SMOOTH"
);
},
{
closed = 1;
nodes = (
"280 150 OFFCURVE",
"204 233 OFFCURVE",
"204 354 CURVE SMOOTH",
"204 475 OFFCURVE",
"280 558 OFFCURVE",
"391 558 CURVE SMOOTH",
"502 558 OFFCURVE",
"578 475 OFFCURVE",
"578 354 CURVE SMOOTH",
"578 233 OFFCURVE",
"502 150 OFFCURVE",
"391 150 CURVE SMOOTH"
);
},
{
closed = 1;
nodes = (
"768 106 LINE",
"504 370 LINE",
"385 252 LINE",
"649 -12 LINE"
);
}
);
width = 797;
},
{
associatedMasterId = "F0C8AC16-97C4-4682-80FB-F8C7118623A9";
layerId = "ECBCBF40-E1CA-4998-804A-2047AB2B6B21";
name = bubble;
paths = (
{
closed = 1;
nodes = (
"622 -38 OFFCURVE",
"782 123 OFFCURVE",
"782 354 CURVE SMOOTH",
"782 585 OFFCURVE",
"622 746 OFFCURVE",
"391 746 CURVE SMOOTH",
"160 746 OFFCURVE",
"0 585 OFFCURVE",
"0 354 CURVE SMOOTH",
"0 123 OFFCURVE",
"160 -38 OFFCURVE",
"391 -38 CURVE SMOOTH"
);
},
{
closed = 1;
nodes = (
"786 125 LINE",
"504 407 LINE",
"348 252 LINE",
"630 -30 LINE"
);
}
);
width = 797;
},
{
associatedMasterId = "598F5332-0C7A-49A1-B747-7EF928CD593D";
layerId = "80F20190-FACD-4BA7-9F05-950EBEDFFF3E";
name = bubble;
paths = (
{
closed = 1;
nodes = (
"831 75 LINE",
"490 414 LINE",
"357 282 LINE",
"698 -57 LINE"
);
},
{
closed = 1;
nodes = (
"655 -76 OFFCURVE",
"828 104 OFFCURVE",
"828 354 CURVE SMOOTH",
"828 604 OFFCURVE",
"655 784 OFFCURVE",
"414 784 CURVE SMOOTH",
"173 784 OFFCURVE",
"0 604 OFFCURVE",
"0 354 CURVE SMOOTH",
"0 104 OFFCURVE",
"173 -76 OFFCURVE",
"414 -76 CURVE SMOOTH"
);
}
);
width = 843;
}
);
leftKerningGroup = C;
rightKerningGroup = Q;
unicode = 0051;
},
{
color = 1;
glyphname = R;
lastChange = "2019-08-05 02:49:11 +0000";
layers = (
{
layerId = "598F5332-0C7A-49A1-B747-7EF928CD593D";
paths = (
{
closed = 1;
nodes = (
"159 0 LINE",
"159 285 LINE",
"315 285 LINE",
"441 283 OFFCURVE",
"526 372 OFFCURVE",
"526 497 CURVE SMOOTH",
"526 621 OFFCURVE",
"439 708 OFFCURVE",
"315 708 CURVE",
"95 708 LINE",
"95 0 LINE"
);
},
{
closed = 1;
nodes = (
"524 0 LINE",
"352 320 LINE",
"279 320 LINE",
"451 0 LINE"
);
},
{
closed = 1;
nodes = (
"159 652 LINE",
"305 652 LINE",
"397 652 OFFCURVE",
"462 588 OFFCURVE",
"462 497 CURVE SMOOTH",
"462 405 OFFCURVE",
"397 341 OFFCURVE",
"305 341 CURVE",
"159 341 LINE"
);
}
);
width = 588;
},
{
layerId = "F0C8AC16-97C4-4682-80FB-F8C7118623A9";
paths = (
{
closed = 1;
nodes = (
"248 0 LINE",
"248 249 LINE",
"375 249 LINE",
"515 249 OFFCURVE",
"603 338 OFFCURVE",
"603 479 CURVE",
"603 620 OFFCURVE",
"515 708 OFFCURVE",
"376 708 CURVE",
"74 708 LINE",
"74 0 LINE"
);
},
{
closed = 1;
nodes = (
"601 0 LINE",
"431 320 LINE",
"248 320 LINE",
"418 0 LINE"
);
},
{
closed = 1;
nodes = (
"248 552 LINE",
"353 552 LINE",
"398 552 OFFCURVE",
"426 524 OFFCURVE",
"426 479 CURVE SMOOTH",
"426 434 OFFCURVE",
"398 405 OFFCURVE",
"353 405 CURVE",
"248 405 LINE"
);
}
);
width = 635;
},
{
associatedMasterId = "F0C8AC16-97C4-4682-80FB-F8C7118623A9";
layerId = "EB3B199E-5F1C-4FE7-A411-AE5806AB493C";
name = bubble;
paths = (
{
closed = 1;
nodes = (
"635 0 LINE",
"503 248 LINE",
"587 286 OFFCURVE",
"635 368 OFFCURVE",
"635 479 CURVE SMOOTH",
"635 632 OFFCURVE",
"542 731 OFFCURVE",
"390 731 CURVE SMOOTH",
"0 731 LINE",
"0 0 LINE"
);
}
);
width = 635;
},
{
associatedMasterId = "598F5332-0C7A-49A1-B747-7EF928CD593D";
layerId = "44A127A8-7226-4ABB-9B40-21C80BCD2BB3";
name = bubble;
paths = (
{
closed = 1;
nodes = (
"587 0 LINE",
"449 258 LINE",
"534 302 OFFCURVE",
"588 389 OFFCURVE",
"588 497 CURVE SMOOTH",
"588 654 OFFCURVE",
"472 767 OFFCURVE",
"315 767 CURVE SMOOTH",
"0 767 LINE",
"0 0 LINE"
);
}
);
width = 588;
}
);
leftKerningGroup = B;
rightKerningGroup = R;
unicode = 0052;
},
{
color = 1;
glyphname = S;
lastChange = "2019-11-30 01:47:51 +0000";
layers = (
{
layerId = "598F5332-0C7A-49A1-B747-7EF928CD593D";
paths = (
{
closed = 1;
nodes = (
"442 -12 OFFCURVE",
"536 67 OFFCURVE",
"536 179 CURVE SMOOTH",
"536 285 OFFCURVE",
"471 348 OFFCURVE",
"341 389 CURVE SMOOTH",
"218 429 OFFCURVE",
"152 462 OFFCURVE",
"152 542 CURVE SMOOTH",
"152 614 OFFCURVE",
"212 664 OFFCURVE",
"297 664 CURVE SMOOTH",
"372 664 OFFCURVE",
"447 620 OFFCURVE",
"478 557 CURVE",
"524 603 LINE",
"481 672 OFFCURVE",
"388 720 OFFCURVE",
"298 720 CURVE SMOOTH",
"174 720 OFFCURVE",
"88 646 OFFCURVE",
"88 540 CURVE SMOOTH",
"88 428 OFFCURVE",
"154 385 OFFCURVE",
"309 332 CURVE SMOOTH",
"419 294 OFFCURVE",
"472 255 OFFCURVE",
"472 177 CURVE SMOOTH",
"472 99 OFFCURVE",
"405 44 OFFCURVE",
"310 44 CURVE SMOOTH",
"228 44 OFFCURVE",
"142 100 OFFCURVE",
"99 181 CURVE",
"54 137 LINE",
"101 49 OFFCURVE",
"206 -12 OFFCURVE",
"308 -12 CURVE SMOOTH"
);
}
);
width = 596;
},
{
layerId = "F0C8AC16-97C4-4682-80FB-F8C7118623A9";
paths = (
{
closed = 1;
nodes = (
"467 -12 OFFCURVE",
"574 81 OFFCURVE",
"574 214 CURVE SMOOTH",
"574 332 OFFCURVE",
"507 382 OFFCURVE",
"313 442 CURVE SMOOTH",
"269 454 OFFCURVE",
"222 472 OFFCURVE",
"222 508 CURVE SMOOTH",
"222 539 OFFCURVE",
"254 560 OFFCURVE",
"300 560 CURVE SMOOTH",
"346 560 OFFCURVE",
"404 532 OFFCURVE",
"440 493 CURVE",
"563 594 LINE",
"514 668 OFFCURVE",
"408 720 OFFCURVE",
"305 720 CURVE SMOOTH",
"156 720 OFFCURVE",
"52 629 OFFCURVE",
"52 500 CURVE SMOOTH",
"52 398 OFFCURVE",
"122 336 OFFCURVE",
"279 288 CURVE SMOOTH",
"339 270 OFFCURVE",
"400 253 OFFCURVE",
"400 211 CURVE SMOOTH",
"400 177 OFFCURVE",
"366 153 OFFCURVE",
"317 153 CURVE SMOOTH",
"252 153 OFFCURVE",
"182 194 OFFCURVE",
"146 252 CURVE",
"14 144 LINE",
"76 52 OFFCURVE",
"199 -12 OFFCURVE",
"313 -12 CURVE SMOOTH"
);
}
);
width = 597;
},
{
associatedMasterId = "F0C8AC16-97C4-4682-80FB-F8C7118623A9";
layerId = "A9E0EB98-FBFD-44A4-9FAC-0C4E715AC3EE";
name = bubble;
paths = (
{
closed = 1;
nodes = (
"487 -41 OFFCURVE",
"597 63 OFFCURVE",
"597 214 CURVE SMOOTH",
"597 341 OFFCURVE",
"553 390 OFFCURVE",
"384 450 CURVE",
"591 609 LINE",
"532 699 OFFCURVE",
"431 749 OFFCURVE",
"308 749 CURVE SMOOTH",
"141 749 OFFCURVE",
"26 647 OFFCURVE",
"26 500 CURVE SMOOTH",
"26 401 OFFCURVE",
"82 334 OFFCURVE",
"207 283 CURVE",
"0 142 LINE",
"68 25 OFFCURVE",
"175 -41 OFFCURVE",
"316 -41 CURVE SMOOTH"
);
}
);
width = 597;
},
{
associatedMasterId = "598F5332-0C7A-49A1-B747-7EF928CD593D";
layerId = "9755314A-B1D3-41F5-AAB9-8A40D2B23AE7";
name = bubble;
paths = (
{
closed = 1;
nodes = (
"475 -72 OFFCURVE",
"596 32 OFFCURVE",
"596 179 CURVE SMOOTH",
"596 309 OFFCURVE",
"518 396 OFFCURVE",
"359 446 CURVE",
"331 456 LINE",
"576 633 LINE",
"520 724 OFFCURVE",
"413 780 OFFCURVE",
"298 780 CURVE SMOOTH",
"146 780 OFFCURVE",
"28 676 OFFCURVE",
"28 540 CURVE SMOOTH",
"28 416 OFFCURVE",
"87 350 OFFCURVE",
"252 288 CURVE",
"0 103 LINE",
"63 -12 OFFCURVE",
"173 -72 OFFCURVE",
"308 -72 CURVE SMOOTH"
);
}
);
width = 596;
}
);
leftKerningGroup = S;
rightKerningGroup = S;
unicode = 0053;
},
{
color = 1;
glyphname = T;
lastChange = "2019-08-05 02:51:00 +0000";
layers = (
{
layerId = "598F5332-0C7A-49A1-B747-7EF928CD593D";
paths = (
{
closed = 1;
nodes = (
"365 0 LINE",
"365 708 LINE",
"301 708 LINE",
"301 0 LINE"
);
},
{
closed = 1;
nodes = (
"615 650 LINE",
"615 708 LINE",
"51 708 LINE",
"51 650 LINE"
);
}
);
width = 666;
},
{
layerId = "F0C8AC16-97C4-4682-80FB-F8C7118623A9";
paths = (
{
closed = 1;
nodes = (
"418 0 LINE",
"418 708 LINE",
"244 708 LINE",
"244 0 LINE"
);
},
{
closed = 1;
nodes = (
"648 548 LINE",
"648 708 LINE",
"14 708 LINE",
"14 548 LINE"
);
}
);
width = 662;
},
{
associatedMasterId = "F0C8AC16-97C4-4682-80FB-F8C7118623A9";
layerId = "A07E05A3-0963-46B6-9E76-2FE1B637653E";
name = bubble;
paths = (
{
closed = 1;
nodes = (
"75 494 LINE",
"75 0 LINE",
"587 0 LINE",
"587 494 LINE",
"662 494 LINE",
"662 708 LINE",
"0 708 LINE",
"0 494 LINE"
);
}
);
width = 662;
},
{
associatedMasterId = "598F5332-0C7A-49A1-B747-7EF928CD593D";
layerId = "EEDF5373-4F95-4399-A9A0-D5883B1D155F";
name = bubble;
paths = (
{
closed = 1;
nodes = (
"88 582 LINE",
"88 0 LINE",
"578 0 LINE",
"578 582 LINE",
"666 582 LINE",
"666 708 LINE",
"0 708 LINE",
"0 582 LINE"
);
}
);
width = 666;
}
);
leftKerningGroup = T;
rightKerningGroup = T;
unicode = 0054;
},
{
color = 1;
glyphname = U;
lastChange = "2019-08-05 02:51:49 +0000";
layers = (
{
layerId = "598F5332-0C7A-49A1-B747-7EF928CD593D";
paths = (
{
closed = 1;
nodes = (
"486 -12 OFFCURVE",
"590 92 OFFCURVE",
"590 240 CURVE",
"590 708 LINE",
"526 708 LINE",
"526 232 LINE",
"526 121 OFFCURVE",
"449 44 OFFCURVE",
"338 44 CURVE",
"227 44 OFFCURVE",
"150 121 OFFCURVE",
"150 232 CURVE",
"150 708 LINE",
"86 708 LINE",
"86 240 LINE",
"86 92 OFFCURVE",
"190 -12 OFFCURVE",
"338 -12 CURVE"
);
}
);
width = 676;
},
{
layerId = "F0C8AC16-97C4-4682-80FB-F8C7118623A9";
paths = (
{
closed = 1;
nodes = (
"527 -12 OFFCURVE",
"649 110 OFFCURVE",
"649 285 CURVE",
"649 708 LINE",
"475 708 LINE",
"475 277 LINE",
"475 202 OFFCURVE",
"424 150 OFFCURVE",
"352 150 CURVE",
"280 150 OFFCURVE",
"229 202 OFFCURVE",
"229 277 CURVE",
"229 708 LINE",
"55 708 LINE",
"55 285 LINE",
"55 110 OFFCURVE",
"177 -12 OFFCURVE",
"352 -12 CURVE"
);
}
);
width = 704;
},
{
associatedMasterId = "F0C8AC16-97C4-4682-80FB-F8C7118623A9";
layerId = "ED303BC3-0D45-4480-9BC1-0C5C9D4F6B36";
name = bubble;
paths = (
{
closed = 1;
nodes = (
"557 -67 OFFCURVE",
"704 79 OFFCURVE",
"704 285 CURVE SMOOTH",
"704 708 LINE",
"0 708 LINE",
"0 285 LINE SMOOTH",
"0 80 OFFCURVE",
"146 -67 OFFCURVE",
"352 -67 CURVE SMOOTH"
);
}
);
width = 704;
},
{
associatedMasterId = "598F5332-0C7A-49A1-B747-7EF928CD593D";
layerId = "756E769E-822F-41DB-958A-E4BEEAAC640E";
name = bubble;
paths = (
{
closed = 1;
nodes = (
"517 -68 OFFCURVE",
"676 61 OFFCURVE",
"676 240 CURVE SMOOTH",
"676 708 LINE",
"0 708 LINE",
"0 240 LINE SMOOTH",
"0 61 OFFCURVE",
"159 -68 OFFCURVE",
"338 -68 CURVE SMOOTH"
);
}
);
width = 676;
}
);
leftKerningGroup = U;
rightKerningGroup = J;
unicode = 0055;
},
{
color = 1;
glyphname = V;
lastChange = "2019-08-05 02:52:35 +0000";
layers = (
{
layerId = "598F5332-0C7A-49A1-B747-7EF928CD593D";
paths = (
{
closed = 1;
nodes = (
"415 0 LINE",
"707 708 LINE",
"634 708 LINE",
"379 73 LINE",
"123 708 LINE",
"50 708 LINE",
"342 0 LINE"
);
}
);
width = 757;
},
{
layerId = "F0C8AC16-97C4-4682-80FB-F8C7118623A9";
paths = (
{
closed = 1;
nodes = (
"447 0 LINE",
"704 708 LINE",
"521 708 LINE",
"355 232 LINE",
"189 708 LINE",
"6 708 LINE",
"263 0 LINE"
);
}
);
width = 710;
},
{
associatedMasterId = "F0C8AC16-97C4-4682-80FB-F8C7118623A9";
layerId = "926B6097-8D44-4996-BB8C-763CDAF850CF";
name = bubble;
paths = (
{
closed = 1;
nodes = (
"630 0 LINE",
"710 708 LINE",
"0 708 LINE",
"80 0 LINE"
);
}
);
width = 710;
},
{
associatedMasterId = "598F5332-0C7A-49A1-B747-7EF928CD593D";
layerId = "C3C73ACC-5524-4EEB-9356-AFBD62A3EFEB";
name = bubble;
paths = (
{
closed = 1;
nodes = (
"636 0 LINE",
"757 708 LINE",
"0 708 LINE",
"121 0 LINE"
);
}
);
width = 757;
}
);
leftKerningGroup = V;
rightKerningGroup = V;
unicode = 0056;
},
{
color = 1;
glyphname = W;
lastChange = "2019-08-05 02:52:58 +0000";
layers = (
{
layerId = "598F5332-0C7A-49A1-B747-7EF928CD593D";
paths = (
{
closed = 1;
nodes = (
"347 0 LINE",
"537 598 LINE",
"726 0 LINE",
"797 0 LINE",
"1022 708 LINE",
"951 708 LINE",
"762 110 LINE",
"572 708 LINE",
"501 708 LINE",
"312 110 LINE",
"122 708 LINE",
"51 708 LINE",
"276 0 LINE"
);
}
);
width = 1073;
},
{
layerId = "F0C8AC16-97C4-4682-80FB-F8C7118623A9";
paths = (
{
closed = 1;
nodes = (
"400 0 LINE",
"526 429 LINE",
"651 0 LINE",
"825 0 LINE",
"1042 708 LINE",
"864 708 LINE",
"738 279 LINE",
"612 708 LINE",
"439 708 LINE",
"313 279 LINE",
"187 708 LINE",
"9 708 LINE",
"226 0 LINE"
);
}
);
width = 1051;
},
{
associatedMasterId = "F0C8AC16-97C4-4682-80FB-F8C7118623A9";
layerId = "91BD260A-2E1E-48AD-AE2C-7693A44B0AF4";
name = bubble;
paths = (
{
closed = 1;
nodes = (
"971 0 LINE",
"1051 708 LINE",
"0 708 LINE",
"80 0 LINE"
);
}
);
width = 1051;
},
{
associatedMasterId = "598F5332-0C7A-49A1-B747-7EF928CD593D";
layerId = "35AB73FC-EB23-4DA7-B4F1-B99503FAF4C4";
name = bubble;
paths = (
{
closed = 1;
nodes = (
"952 0 LINE",
"1073 708 LINE",
"0 708 LINE",
"121 0 LINE"
);
}
);
width = 1073;
}
);
leftKerningGroup = W;
rightKerningGroup = W;
unicode = 0057;
},
{
color = 1;
glyphname = X;
lastChange = "2019-08-05 02:53:47 +0000";
layers = (
{
layerId = "598F5332-0C7A-49A1-B747-7EF928CD593D";
paths = (
{
closed = 1;
nodes = (
"133 0 LINE",
"350 302 LINE",
"567 0 LINE",
"650 0 LINE",
"386 354 LINE",
"650 708 LINE",
"567 708 LINE",
"350 406 LINE",
"133 708 LINE",
"50 708 LINE",
"314 354 LINE",
"50 0 LINE"
);
}
);
width = 700;
},
{
layerId = "F0C8AC16-97C4-4682-80FB-F8C7118623A9";
paths = (
{
closed = 1;
nodes = (
"205 0 LINE",
"337 209 LINE",
"469 0 LINE",
"662 0 LINE",
"429 354 LINE",
"662 708 LINE",
"469 708 LINE",
"337 499 LINE",
"205 708 LINE",
"12 708 LINE",
"246 354 LINE",
"12 0 LINE"
);
}
);
width = 674;
},
{
associatedMasterId = "F0C8AC16-97C4-4682-80FB-F8C7118623A9";
layerId = "5DF56AFD-3517-4C91-814C-4E86C6AA8B49";
name = bubble;
paths = (
{
closed = 1;
nodes = (
"674 0 LINE",
"634 354 LINE",
"674 708 LINE",
"0 708 LINE",
"40 354 LINE",
"0 0 LINE"
);
}
);
width = 674;
},
{
associatedMasterId = "598F5332-0C7A-49A1-B747-7EF928CD593D";
layerId = "869B862D-3DEE-47E0-A65B-C672DB42CF61";
name = bubble;
paths = (
{
closed = 1;
nodes = (
"700 0 LINE",
"645 354 LINE",
"700 708 LINE",
"0 708 LINE",
"56 354 LINE",
"0 0 LINE"
);
}
);
width = 700;
}
);
leftKerningGroup = X;
rightKerningGroup = X;
unicode = 0058;
},
{
color = 1;
glyphname = Y;
lastChange = "2019-08-05 02:54:16 +0000";
layers = (
{
layerId = "598F5332-0C7A-49A1-B747-7EF928CD593D";
paths = (
{
closed = 1;
nodes = (
"380 0 LINE",
"380 349 LINE",
"648 708 LINE",
"565 708 LINE",
"348 406 LINE",
"131 708 LINE",
"48 708 LINE",
"316 349 LINE",
"316 0 LINE"
);
}
);
width = 696;
},
{
layerId = "F0C8AC16-97C4-4682-80FB-F8C7118623A9";
paths = (
{
closed = 1;
nodes = (
"412 0 LINE",
"412 345 LINE",
"650 708 LINE",
"457 708 LINE",
"325 498 LINE",
"193 708 LINE",
"0 708 LINE",
"239 345 LINE",
"238 0 LINE"
);
}
);
width = 650;
},
{
associatedMasterId = "F0C8AC16-97C4-4682-80FB-F8C7118623A9";
layerId = "0AC27AED-A761-4B9C-85FD-4286C8042FD4";
name = bubble;
paths = (
{
closed = 1;
nodes = (
"561 0 LINE",
"561 345 LINE",
"650 708 LINE",
"0 707 LINE",
"91 345 LINE",
"89 0 LINE"
);
}
);
width = 650;
},
{
associatedMasterId = "598F5332-0C7A-49A1-B747-7EF928CD593D";
layerId = "AEE81C91-2680-4D5E-8E31-5172185D8EC4";
name = bubble;
paths = (
{
closed = 1;
nodes = (
"590 0 LINE",
"590 349 LINE",
"696 708 LINE",
"0 708 LINE",
"106 349 LINE",
"106 0 LINE"
);
}
);
width = 696;
}
);
leftKerningGroup = Y;
rightKerningGroup = Y;
unicode = 0059;
},
{
color = 1;
glyphname = Z;
lastChange = "2019-08-05 02:54:50 +0000";
layers = (
{
layerId = "598F5332-0C7A-49A1-B747-7EF928CD593D";
paths = (
{
closed = 1;
nodes = (
"602 0 LINE",
"602 58 LINE",
"136 58 LINE",
"606 654 LINE",
"606 708 LINE",
"62 708 LINE",
"62 650 LINE",
"528 650 LINE",
"56 51 LINE",
"56 0 LINE"
);
}
);
width = 663;
},
{
layerId = "F0C8AC16-97C4-4682-80FB-F8C7118623A9";
paths = (
{
closed = 1;
nodes = (
"597 0 LINE",
"597 160 LINE",
"273 160 LINE",
"587 570 LINE",
"587 708 LINE",
"42 708 LINE",
"42 548 LINE",
"365 548 LINE",
"37 121 LINE",
"37 0 LINE"
);
}
);
width = 634;
},
{
associatedMasterId = "F0C8AC16-97C4-4682-80FB-F8C7118623A9";
layerId = "CD12A48D-9E9D-4958-A88D-3EC1BB7FAE15";
name = bubble;
paths = (
{
closed = 1;
nodes = (
"634 0 LINE",
"634 708 LINE",
"0 708 LINE",
"0 0 LINE"
);
}
);
width = 634;
},
{
associatedMasterId = "598F5332-0C7A-49A1-B747-7EF928CD593D";
layerId = "DB6681B6-567C-40E0-9100-04101E32FF1F";
name = bubble;
paths = (
{
closed = 1;
nodes = (
"663 0 LINE",
"663 708 LINE",
"0 708 LINE",
"0 0 LINE"
);
}
);
width = 663;
}
);
leftKerningGroup = Z;
rightKerningGroup = Z;
unicode = 005A;
},
{
color = 1;
export = 0;
glyphname = H.001;
lastChange = "2019-08-12 00:01:11 +0000";
layers = (
{
layerId = "598F5332-0C7A-49A1-B747-7EF928CD593D";
paths = (
{
closed = 1;
nodes = (
"639 0 LINE",
"639 708 LINE",
"575 708 LINE",
"575 0 LINE"
);
},
{
closed = 1;
nodes = (
"159 0 LINE",
"159 708 LINE",
"95 708 LINE",
"95 0 LINE"
);
},
{
closed = 1;
nodes = (
"614 330 LINE",
"614 388 LINE",
"120 388 LINE",
"120 330 LINE"
);
},
{
closed = 1;
nodes = (
"788 -352 OFFCURVE",
"1083 -57 OFFCURVE",
"1083 364 CURVE SMOOTH",
"1083 785 OFFCURVE",
"788 1079 OFFCURVE",
"367 1079 CURVE SMOOTH",
"-54 1079 OFFCURVE",
"-349 787 OFFCURVE",
"-349 364 CURVE SMOOTH",
"-349 -57 OFFCURVE",
"-54 -352 OFFCURVE",
"367 -352 CURVE SMOOTH"
);
},
{
closed = 1;
nodes = (
"-18 -290 OFFCURVE",
"-287 -21 OFFCURVE",
"-287 365 CURVE SMOOTH",
"-287 749 OFFCURVE",
"-18 1017 OFFCURVE",
"367 1017 CURVE SMOOTH",
"752 1017 OFFCURVE",
"1021 749 OFFCURVE",
"1021 365 CURVE SMOOTH",
"1021 -21 OFFCURVE",
"752 -290 OFFCURVE",
"367 -290 CURVE SMOOTH"
);
},
{
closed = 1;
nodes = (
"-393 1123 LINE",
"1127 1123 LINE",
"367 364 LINE"
);
},
{
closed = 1;
nodes = (
"1127 -395 LINE",
"-393 -395 LINE",
"367 364 LINE"
);
}
);
width = 734;
},
{
layerId = "F0C8AC16-97C4-4682-80FB-F8C7118623A9";
paths = (
{
closed = 1;
nodes = (
"688 0 LINE",
"688 708 LINE",
"514 708 LINE",
"514 0 LINE"
);
},
{
closed = 1;
nodes = (
"248 0 LINE",
"248 708 LINE",
"74 708 LINE",
"74 0 LINE"
);
},
{
closed = 1;
nodes = (
"638 279 LINE",
"638 439 LINE",
"124 439 LINE",
"124 279 LINE"
);
},
{
closed = 1;
nodes = (
"810 -396 OFFCURVE",
"1123 -82 OFFCURVE",
"1123 364 CURVE SMOOTH",
"1123 811 OFFCURVE",
"810 1123 OFFCURVE",
"363 1123 CURVE SMOOTH",
"-84 1123 OFFCURVE",
"-397 811 OFFCURVE",
"-397 364 CURVE SMOOTH",
"-397 -82 OFFCURVE",
"-84 -396 OFFCURVE",
"363 -396 CURVE SMOOTH"
);
},
{
closed = 1;
nodes = (
"7 -240 OFFCURVE",
"-242 9 OFFCURVE",
"-242 365 CURVE SMOOTH",
"-242 720 OFFCURVE",
"4 967 OFFCURVE",
"363 967 CURVE SMOOTH",
"719 967 OFFCURVE",
"968 720 OFFCURVE",
"968 365 CURVE SMOOTH",
"968 9 OFFCURVE",
"719 -240 OFFCURVE",
"363 -240 CURVE SMOOTH"
);
},
{
closed = 1;
nodes = (
"-397 1123 LINE",
"1123 1123 LINE",
"363 364 LINE"
);
},
{
closed = 1;
nodes = (
"1123 -395 LINE",
"-397 -395 LINE",
"363 364 LINE"
);
}
);
width = 762;
},
{
associatedMasterId = "F0C8AC16-97C4-4682-80FB-F8C7118623A9";
layerId = "DECBE05A-46A6-4631-A47F-B13C0F5D2698";
name = bubble;
paths = (
{
closed = 1;
nodes = (
"762 0 LINE",
"762 708 LINE",
"0 708 LINE",
"0 0 LINE"
);
}
);
width = 762;
},
{
associatedMasterId = "598F5332-0C7A-49A1-B747-7EF928CD593D";
layerId = "6F3C35AF-3E31-490A-B721-8607452BC0ED";
name = bubble;
paths = (
{
closed = 1;
nodes = (
"734 0 LINE",
"734 708 LINE",
"0 708 LINE",
"0 0 LINE"
);
}
);
width = 734;
}
);
leftKerningGroup = B;
rightKerningGroup = H;
},
{
color = 1;
export = 0;
glyphname = J.001;
lastChange = "2019-02-10 10:19:43 +0000";
layers = (
{
layerId = "598F5332-0C7A-49A1-B747-7EF928CD593D";
paths = (
{
closed = 1;
nodes = (
"349 -11 OFFCURVE",
"428 68 OFFCURVE",
"428 181 CURVE SMOOTH",
"428 708 LINE",
"364 708 LINE",
"364 174 LINE SMOOTH",
"364 99 OFFCURVE",
"311 46 OFFCURVE",
"236 46 CURVE SMOOTH",
"161 46 OFFCURVE",
"108 99 OFFCURVE",
"108 174 CURVE SMOOTH",
"108 241 LINE",
"44 233 LINE",
"44 181 LINE SMOOTH",
"44 68 OFFCURVE",
"123 -11 OFFCURVE",
"236 -11 CURVE SMOOTH"
);
}
);
width = 533;
},
{
layerId = "F0C8AC16-97C4-4682-80FB-F8C7118623A9";
paths = (
{
closed = 1;
nodes = (
"443 -11 OFFCURVE",
"549 95 OFFCURVE",
"549 246 CURVE SMOOTH",
"549 708 LINE",
"375 708 LINE",
"375 244 LINE SMOOTH",
"375 195 OFFCURVE",
"341 161 OFFCURVE",
"292 161 CURVE SMOOTH",
"243 161 OFFCURVE",
"209 198 OFFCURVE",
"209 250 CURVE SMOOTH",
"209 300 LINE",
"35 287 LINE",
"35 246 LINE SMOOTH",
"35 95 OFFCURVE",
"141 -11 OFFCURVE",
"292 -11 CURVE SMOOTH"
);
}
);
width = 613;
}
);
},
{
export = 0;
glyphname = K.001;
lastChange = "2019-02-13 11:06:30 +0000";
layers = (
{
layerId = "598F5332-0C7A-49A1-B747-7EF928CD593D";
paths = (
{
closed = 1;
nodes = (
"177 0 LINE",
"177 708 LINE",
"113 708 LINE",
"113 0 LINE"
);
},
{
closed = 0;
nodes = (
"713 851 LINE",
"-30 42 LINE",
"219 493 LINE",
"753 -218 LINE"
);
},
{
closed = 1;
nodes = (
"803 -229 LINE",
"-104 975 LINE",
"-155 937 LINE",
"752 -267 LINE"
);
},
{
closed = 1;
nodes = (
"-223 -228 LINE",
"786 893 LINE",
"739 936 LINE",
"-270 -185 LINE"
);
}
);
width = 600;
},
{
layerId = "F0C8AC16-97C4-4682-80FB-F8C7118623A9";
paths = (
{
closed = 1;
nodes = (
"247 0 LINE",
"247 708 LINE",
"73 708 LINE",
"73 0 LINE"
);
}
);
width = 600;
}
);
},
{
color = 1;
export = 0;
glyphname = S.001;
lastChange = "2019-02-11 10:15:58 +0000";
layers = (
{
layerId = "598F5332-0C7A-49A1-B747-7EF928CD593D";
paths = (
{
closed = 1;
nodes = (
"449 -12 OFFCURVE",
"542 64 OFFCURVE",
"542 173 CURVE SMOOTH",
"542 282 OFFCURVE",
"482 341 OFFCURVE",
"325 387 CURVE SMOOTH",
"199 424 OFFCURVE",
"151 467 OFFCURVE",
"151 544 CURVE SMOOTH",
"151 615 OFFCURVE",
"211 664 OFFCURVE",
"296 664 CURVE SMOOTH",
"377 664 OFFCURVE",
"448 630 OFFCURVE",
"503 566 CURVE",
"544 616 LINE",
"480 684 OFFCURVE",
"396 720 OFFCURVE",
"299 720 CURVE SMOOTH",
"174 720 OFFCURVE",
"87 646 OFFCURVE",
"87 539 CURVE SMOOTH",
"87 436 OFFCURVE",
"146 379 OFFCURVE",
"303 330 CURVE SMOOTH",
"430 290 OFFCURVE",
"478 246 OFFCURVE",
"478 168 CURVE SMOOTH",
"478 95 OFFCURVE",
"413 44 OFFCURVE",
"319 44 CURVE SMOOTH",
"230 44 OFFCURVE",
"148 82 OFFCURVE",
"81 155 CURVE",
"42 106 LINE",
"115 28 OFFCURVE",
"209 -12 OFFCURVE",
"317 -12 CURVE SMOOTH"
);
}
);
width = 606;
},
{
layerId = "F0C8AC16-97C4-4682-80FB-F8C7118623A9";
paths = (
{
closed = 1;
nodes = (
"530 -12 OFFCURVE",
"632 89 OFFCURVE",
"632 220 CURVE SMOOTH",
"632 335 OFFCURVE",
"553 384 OFFCURVE",
"377 428 CURVE SMOOTH",
"317 443 OFFCURVE",
"258 455 OFFCURVE",
"258 504 CURVE SMOOTH",
"258 532 OFFCURVE",
"278 558 OFFCURVE",
"339 558 CURVE SMOOTH",
"392 558 OFFCURVE",
"471 539 OFFCURVE",
"541 490 CURVE",
"635 624 LINE",
"559 687 OFFCURVE",
"452 720 OFFCURVE",
"352 720 CURVE SMOOTH",
"160 720 OFFCURVE",
"84 599 OFFCURVE",
"84 486 CURVE SMOOTH",
"84 376 OFFCURVE",
"157 324 OFFCURVE",
"342 274 CURVE SMOOTH",
"409 256 OFFCURVE",
"458 245 OFFCURVE",
"458 205 CURVE SMOOTH",
"458 176 OFFCURVE",
"433 150 OFFCURVE",
"363 150 CURVE SMOOTH",
"295 150 OFFCURVE",
"206 174 OFFCURVE",
"132 234 CURVE",
"26 107 LINE",
"117 26 OFFCURVE",
"247 -12 OFFCURVE",
"355 -12 CURVE SMOOTH"
);
}
);
width = 674;
}
);
},
{
color = 1;
export = 0;
glyphname = H.002;
lastChange = "2019-08-12 00:01:11 +0000";
layers = (
{
layerId = "598F5332-0C7A-49A1-B747-7EF928CD593D";
paths = (
{
closed = 1;
nodes = (
"639 0 LINE",
"639 708 LINE",
"575 708 LINE",
"575 0 LINE"
);
},
{
closed = 1;
nodes = (
"159 0 LINE",
"159 708 LINE",
"95 708 LINE",
"95 0 LINE"
);
},
{
closed = 1;
nodes = (
"614 330 LINE",
"614 388 LINE",
"120 388 LINE",
"120 330 LINE"
);
},
{
closed = 1;
nodes = (
"788 -332 OFFCURVE",
"1083 -57 OFFCURVE",
"1083 364 CURVE SMOOTH",
"1083 785 OFFCURVE",
"788 1059 OFFCURVE",
"367 1059 CURVE SMOOTH",
"-54 1059 OFFCURVE",
"-349 787 OFFCURVE",
"-349 364 CURVE SMOOTH",
"-349 -57 OFFCURVE",
"-54 -332 OFFCURVE",
"367 -332 CURVE SMOOTH"
);
},
{
closed = 1;
nodes = (
"-18 -290 OFFCURVE",
"-287 -21 OFFCURVE",
"-287 365 CURVE SMOOTH",
"-287 749 OFFCURVE",
"-18 1017 OFFCURVE",
"367 1017 CURVE SMOOTH",
"752 1017 OFFCURVE",
"1021 749 OFFCURVE",
"1021 365 CURVE SMOOTH",
"1021 -21 OFFCURVE",
"752 -290 OFFCURVE",
"367 -290 CURVE SMOOTH"
);
},
{
closed = 1;
nodes = (
"-393 1123 LINE",
"1127 1123 LINE",
"367 364 LINE"
);
},
{
closed = 1;
nodes = (
"1127 -395 LINE",
"-393 -395 LINE",
"367 364 LINE"
);
}
);
width = 734;
},
{
layerId = "F0C8AC16-97C4-4682-80FB-F8C7118623A9";
paths = (
{
closed = 1;
nodes = (
"688 0 LINE",
"688 708 LINE",
"514 708 LINE",
"514 0 LINE"
);
},
{
closed = 1;
nodes = (
"248 0 LINE",
"248 708 LINE",
"74 708 LINE",
"74 0 LINE"
);
},
{
closed = 1;
nodes = (
"638 279 LINE",
"638 439 LINE",
"124 439 LINE",
"124 279 LINE"
);
},
{
closed = 1;
nodes = (
"810 -346 OFFCURVE",
"1123 -82 OFFCURVE",
"1123 364 CURVE SMOOTH",
"1123 811 OFFCURVE",
"810 1073 OFFCURVE",
"363 1073 CURVE SMOOTH",
"-84 1073 OFFCURVE",
"-397 811 OFFCURVE",
"-397 364 CURVE SMOOTH",
"-397 -82 OFFCURVE",
"-84 -346 OFFCURVE",
"363 -346 CURVE SMOOTH"
);
},
{
closed = 1;
nodes = (
"7 -240 OFFCURVE",
"-242 9 OFFCURVE",
"-242 365 CURVE SMOOTH",
"-242 720 OFFCURVE",
"4 967 OFFCURVE",
"363 967 CURVE SMOOTH",
"719 967 OFFCURVE",
"968 720 OFFCURVE",
"968 365 CURVE SMOOTH",
"968 9 OFFCURVE",
"719 -240 OFFCURVE",
"363 -240 CURVE SMOOTH"
);
},
{
closed = 1;
nodes = (
"-397 1123 LINE",
"1123 1123 LINE",
"363 364 LINE"
);
},
{
closed = 1;
nodes = (
"1123 -395 LINE",
"-397 -395 LINE",
"363 364 LINE"
);
}
);
width = 762;
},
{
associatedMasterId = "F0C8AC16-97C4-4682-80FB-F8C7118623A9";
layerId = "DECBE05A-46A6-4631-A47F-B13C0F5D2698";
name = bubble;
paths = (
{
closed = 1;
nodes = (
"762 0 LINE",
"762 708 LINE",
"0 708 LINE",
"0 0 LINE"
);
}
);
width = 762;
},
{
associatedMasterId = "598F5332-0C7A-49A1-B747-7EF928CD593D";
layerId = "6F3C35AF-3E31-490A-B721-8607452BC0ED";
name = bubble;
paths = (
{
closed = 1;
nodes = (
"734 0 LINE",
"734 708 LINE",
"0 708 LINE",
"0 0 LINE"
);
}
);
width = 734;
}
);
leftKerningGroup = B;
rightKerningGroup = H;
},
{
color = 1;
export = 0;
glyphname = S.002;
lastChange = "2019-02-13 12:29:55 +0000";
layers = (
{
layerId = "598F5332-0C7A-49A1-B747-7EF928CD593D";
paths = (
{
closed = 1;
nodes = (
"449 -12 OFFCURVE",
"542 64 OFFCURVE",
"542 173 CURVE SMOOTH",
"542 282 OFFCURVE",
"482 341 OFFCURVE",
"325 387 CURVE SMOOTH",
"199 424 OFFCURVE",
"151 467 OFFCURVE",
"151 544 CURVE SMOOTH",
"151 615 OFFCURVE",
"211 664 OFFCURVE",
"296 664 CURVE SMOOTH",
"377 664 OFFCURVE",
"448 630 OFFCURVE",
"503 566 CURVE",
"544 616 LINE",
"480 684 OFFCURVE",
"396 720 OFFCURVE",
"299 720 CURVE SMOOTH",
"174 720 OFFCURVE",
"87 646 OFFCURVE",
"87 539 CURVE SMOOTH",
"87 436 OFFCURVE",
"146 379 OFFCURVE",
"303 330 CURVE SMOOTH",
"430 290 OFFCURVE",
"478 246 OFFCURVE",
"478 168 CURVE SMOOTH",
"478 95 OFFCURVE",
"413 44 OFFCURVE",
"319 44 CURVE SMOOTH",
"230 44 OFFCURVE",
"148 82 OFFCURVE",
"81 155 CURVE",
"42 106 LINE",
"115 28 OFFCURVE",
"209 -12 OFFCURVE",
"317 -12 CURVE SMOOTH"
);
}
);
width = 606;
},
{
layerId = "F0C8AC16-97C4-4682-80FB-F8C7118623A9";
paths = (
{
closed = 1;
nodes = (
"530 -12 OFFCURVE",
"632 89 OFFCURVE",
"632 220 CURVE SMOOTH",
"632 335 OFFCURVE",
"553 384 OFFCURVE",
"377 428 CURVE SMOOTH",
"317 443 OFFCURVE",
"258 455 OFFCURVE",
"258 504 CURVE SMOOTH",
"258 532 OFFCURVE",
"278 558 OFFCURVE",
"339 558 CURVE SMOOTH",
"392 558 OFFCURVE",
"471 539 OFFCURVE",
"541 490 CURVE",
"635 624 LINE",
"559 687 OFFCURVE",
"452 720 OFFCURVE",
"352 720 CURVE SMOOTH",
"160 720 OFFCURVE",
"84 599 OFFCURVE",
"84 486 CURVE SMOOTH",
"84 376 OFFCURVE",
"157 324 OFFCURVE",
"342 274 CURVE SMOOTH",
"409 256 OFFCURVE",
"458 245 OFFCURVE",
"458 205 CURVE SMOOTH",
"458 176 OFFCURVE",
"433 150 OFFCURVE",
"363 150 CURVE SMOOTH",
"295 150 OFFCURVE",
"206 174 OFFCURVE",
"132 234 CURVE",
"26 107 LINE",
"117 26 OFFCURVE",
"247 -12 OFFCURVE",
"355 -12 CURVE SMOOTH"
);
}
);
width = 674;
}
);
},
{
color = 1;
export = 0;
glyphname = S.003;
lastChange = "2019-02-16 04:09:53 +0000";
layers = (
{
layerId = "598F5332-0C7A-49A1-B747-7EF928CD593D";
paths = (
{
closed = 1;
nodes = (
"417 -12 OFFCURVE",
"521 59 OFFCURVE",
"521 185 CURVE SMOOTH",
"521 288 OFFCURVE",
"451 354 OFFCURVE",
"349 390 CURVE SMOOTH",
"228 433 OFFCURVE",
"145 456 OFFCURVE",
"145 539 CURVE SMOOTH",
"145 613 OFFCURVE",
"217 664 OFFCURVE",
"290 664 CURVE SMOOTH",
"370 664 OFFCURVE",
"441 612 OFFCURVE",
"445 527 CURVE",
"399 541 LINE",
"540 592 LINE",
"504 558 LINE",
"495 646 OFFCURVE",
"395 720 OFFCURVE",
"288 720 CURVE SMOOTH",
"180 720 OFFCURVE",
"81 643 OFFCURVE",
"81 541 CURVE SMOOTH",
"81 419 OFFCURVE",
"154 390 OFFCURVE",
"306 333 CURVE SMOOTH",
"400 298 OFFCURVE",
"457 263 OFFCURVE",
"457 186 CURVE SMOOTH",
"457 95 OFFCURVE",
"388 44 OFFCURVE",
"293 44 CURVE SMOOTH",
"194 44 OFFCURVE",
"129 109 OFFCURVE",
"104 233 CURVE",
"154 214 LINE",
"16 163 LINE",
"50 206 LINE",
"73 63 OFFCURVE",
"157 -12 OFFCURVE",
"290 -12 CURVE SMOOTH"
);
}
);
width = 583;
},
{
layerId = "F0C8AC16-97C4-4682-80FB-F8C7118623A9";
paths = (
{
closed = 1;
nodes = (
"455 -12 OFFCURVE",
"556 78 OFFCURVE",
"556 207 CURVE SMOOTH",
"556 328 OFFCURVE",
"501 379 OFFCURVE",
"288 455 CURVE SMOOTH",
"260 465 OFFCURVE",
"226 488 OFFCURVE",
"226 511 CURVE SMOOTH",
"226 540 OFFCURVE",
"256 561 OFFCURVE",
"300 561 CURVE SMOOTH",
"346 561 OFFCURVE",
"378 526 OFFCURVE",
"392 464 CURVE",
"338 484 LINE",
"573 571 LINE",
"539 532 LINE",
"514 656 OFFCURVE",
"431 720 OFFCURVE",
"298 720 CURVE SMOOTH",
"158 720 OFFCURVE",
"60 635 OFFCURVE",
"60 513 CURVE SMOOTH",
"60 419 OFFCURVE",
"127 347 OFFCURVE",
"256 302 CURVE SMOOTH",
"309 283 OFFCURVE",
"382 260 OFFCURVE",
"382 216 CURVE SMOOTH",
"382 180 OFFCURVE",
"353 155 OFFCURVE",
"311 155 CURVE SMOOTH",
"239 155 OFFCURVE",
"198 205 OFFCURVE",
"194 300 CURVE",
"240 266 LINE",
"-9 180 LINE",
"23 230 LINE",
"62 71 OFFCURVE",
"162 -12 OFFCURVE",
"311 -12 CURVE SMOOTH"
);
}
);
width = 597;
}
);
},
{
color = 1;
glyphname = a;
lastChange = "2019-08-05 02:56:23 +0000";
layers = (
{
anchors = (
{
name = top;
position = "{253, 502}";
}
);
layerId = "598F5332-0C7A-49A1-B747-7EF928CD593D";
paths = (
{
closed = 1;
nodes = (
"300 -12 OFFCURVE",
"362 23 OFFCURVE",
"397 81 CURVE",
"397 0 LINE",
"458 0 LINE",
"458 298 LINE SMOOTH",
"458 426 OFFCURVE",
"369 515 OFFCURVE",
"242 515 CURVE SMOOTH",
"173 515 OFFCURVE",
"98 494 OFFCURVE",
"59 464 CURVE",
"95 420 LINE",
"123 445 OFFCURVE",
"181 462 OFFCURVE",
"235 462 CURVE SMOOTH",
"325 462 OFFCURVE",
"392 393 OFFCURVE",
"397 295 CURVE",
"397 261 LINE",
"355 295 OFFCURVE",
"295 314 OFFCURVE",
"223 314 CURVE SMOOTH",
"118 314 OFFCURVE",
"45 246 OFFCURVE",
"45 148 CURVE SMOOTH",
"45 54 OFFCURVE",
"118 -12 OFFCURVE",
"223 -12 CURVE SMOOTH"
);
},
{
closed = 1;
nodes = (
"160 40 OFFCURVE",
"107 84 OFFCURVE",
"107 147 CURVE SMOOTH",
"107 215 OFFCURVE",
"160 262 OFFCURVE",
"237 262 CURVE SMOOTH",
"308 262 OFFCURVE",
"365 241 OFFCURVE",
"397 207 CURVE",
"397 107 OFFCURVE",
"332 40 OFFCURVE",
"237 40 CURVE SMOOTH"
);
}
);
width = 524;
},
{
anchors = (
{
name = top;
position = "{239, 514}";
}
);
layerId = "F0C8AC16-97C4-4682-80FB-F8C7118623A9";
paths = (
{
closed = 1;
nodes = (
"258 -12 OFFCURVE",
"290 6 OFFCURVE",
"325 40 CURVE",
"325 0 LINE",
"483 0 LINE",
"483 293 LINE SMOOTH",
"483 431 OFFCURVE",
"372 527 OFFCURVE",
"223 526 CURVE SMOOTH",
"149 525 OFFCURVE",
"85 507 OFFCURVE",
"37 475 CURVE",
"121 363 LINE",
"144 377 OFFCURVE",
"176 386 OFFCURVE",
"213 386 CURVE SMOOTH",
"279 386 OFFCURVE",
"325 344 OFFCURVE",
"325 283 CURVE SMOOTH",
"325 282 LINE",
"285 303 OFFCURVE",
"252 314 OFFCURVE",
"204 314 CURVE SMOOTH",
"88 314 OFFCURVE",
"7 247 OFFCURVE",
"7 151 CURVE SMOOTH",
"7 55 OFFCURVE",
"88 -12 OFFCURVE",
"204 -12 CURVE SMOOTH"
);
},
{
closed = 1;
nodes = (
"196 99 OFFCURVE",
"167 120 OFFCURVE",
"167 151 CURVE SMOOTH",
"167 182 OFFCURVE",
"196 204 OFFCURVE",
"237 204 CURVE SMOOTH",
"276 204 OFFCURVE",
"305 191 OFFCURVE",
"325 169 CURVE",
"325 128 OFFCURVE",
"292 99 OFFCURVE",
"237 99 CURVE SMOOTH"
);
}
);
width = 519;
},
{
associatedMasterId = "F0C8AC16-97C4-4682-80FB-F8C7118623A9";
layerId = "13CC7C08-4940-4F75-8151-E716E9B0FAEB";
name = bubble;
paths = (
{
closed = 1;
nodes = (
"241 -28 OFFCURVE",
"271 -19 OFFCURVE",
"301 0 CURVE",
"519 0 LINE",
"519 293 LINE SMOOTH",
"519 447 OFFCURVE",
"408 552 OFFCURVE",
"237 552 CURVE SMOOTH",
"156 552 OFFCURVE",
"71 528 OFFCURVE",
"22 493 CURVE",
"149 325 LINE",
"51 307 OFFCURVE",
"0 247 OFFCURVE",
"0 151 CURVE SMOOTH",
"0 46 OFFCURVE",
"84 -28 OFFCURVE",
"203 -28 CURVE SMOOTH"
);
}
);
width = 519;
},
{
associatedMasterId = "598F5332-0C7A-49A1-B747-7EF928CD593D";
layerId = "5F01D8CA-1B4D-4361-BC85-8DF1386BC43F";
name = bubble;
paths = (
{
closed = 1;
nodes = (
"288 -58 OFFCURVE",
"345 -37 OFFCURVE",
"387 0 CURVE",
"524 0 LINE",
"524 298 LINE SMOOTH",
"524 451 OFFCURVE",
"396 561 OFFCURVE",
"253 561 CURVE SMOOTH",
"167 561 OFFCURVE",
"78 536 OFFCURVE",
"31 499 CURVE",
"153 350 LINE",
"61 324 OFFCURVE",
"0 248 OFFCURVE",
"0 148 CURVE SMOOTH",
"0 28 OFFCURVE",
"94 -58 OFFCURVE",
"224 -58 CURVE SMOOTH"
);
}
);
width = 524;
}
);
leftKerningGroup = a;
rightKerningGroup = a;
unicode = 0061;
},
{
color = 1;
glyphname = b;
lastChange = "2019-08-05 03:01:04 +0000";
layers = (
{
layerId = "598F5332-0C7A-49A1-B747-7EF928CD593D";
paths = (
{
closed = 1;
nodes = (
"450 -12 OFFCURVE",
"540 95 OFFCURVE",
"540 251 CURVE SMOOTH",
"540 407 OFFCURVE",
"450 514 OFFCURVE",
"318 514 CURVE SMOOTH",
"186 514 OFFCURVE",
"96 407 OFFCURVE",
"96 251 CURVE SMOOTH",
"96 95 OFFCURVE",
"186 -12 OFFCURVE",
"318 -12 CURVE SMOOTH"
);
},
{
closed = 1;
nodes = (
"136 0 LINE",
"136 736 LINE",
"76 736 LINE",
"76 0 LINE"
);
},
{
closed = 1;
nodes = (
"207 40 OFFCURVE",
"136 126 OFFCURVE",
"136 251 CURVE SMOOTH",
"136 376 OFFCURVE",
"207 462 OFFCURVE",
"310 462 CURVE SMOOTH",
"410 462 OFFCURVE",
"478 376 OFFCURVE",
"478 251 CURVE SMOOTH",
"478 126 OFFCURVE",
"410 40 OFFCURVE",
"310 40 CURVE SMOOTH"
);
}
);
width = 590;
},
{
layerId = "F0C8AC16-97C4-4682-80FB-F8C7118623A9";
paths = (
{
closed = 1;
nodes = (
"519 -12 OFFCURVE",
"618 98 OFFCURVE",
"618 257 CURVE SMOOTH",
"618 416 OFFCURVE",
"519 526 OFFCURVE",
"375 526 CURVE SMOOTH",
"249 526 OFFCURVE",
"163 416 OFFCURVE",
"163 257 CURVE SMOOTH",
"163 98 OFFCURVE",
"249 -12 OFFCURVE",
"375 -12 CURVE SMOOTH"
);
},
{
closed = 1;
nodes = (
"227 0 LINE",
"227 740 LINE",
"59 740 LINE",
"59 0 LINE"
);
},
{
closed = 1;
nodes = (
"274 140 OFFCURVE",
"227 188 OFFCURVE",
"227 257 CURVE SMOOTH",
"227 326 OFFCURVE",
"274 374 OFFCURVE",
"343 374 CURVE SMOOTH",
"406 374 OFFCURVE",
"449 326 OFFCURVE",
"449 257 CURVE SMOOTH",
"449 188 OFFCURVE",
"406 140 OFFCURVE",
"343 140 CURVE SMOOTH"
);
}
);
width = 632;
},
{
associatedMasterId = "F0C8AC16-97C4-4682-80FB-F8C7118623A9";
layerId = "636BF6E0-F8E3-48AB-B225-83C595236885";
name = bubble;
paths = (
{
closed = 1;
nodes = (
"273 0 LINE",
"303 -17 OFFCURVE",
"337 -26 OFFCURVE",
"375 -26 CURVE SMOOTH",
"527 -26 OFFCURVE",
"632 90 OFFCURVE",
"632 257 CURVE SMOOTH",
"632 424 OFFCURVE",
"527 540 OFFCURVE",
"375 540 CURVE SMOOTH",
"338 540 OFFCURVE",
"304 531 OFFCURVE",
"273 515 CURVE",
"273 740 LINE",
"0 740 LINE",
"0 0 LINE"
);
}
);
width = 632;
},
{
associatedMasterId = "598F5332-0C7A-49A1-B747-7EF928CD593D";
layerId = "5208B78F-7C74-47A5-B0E0-76E415D6C6D1";
name = bubble;
paths = (
{
closed = 1;
nodes = (
"146 0 LINE",
"192 -40 OFFCURVE",
"250 -63 OFFCURVE",
"318 -63 CURVE SMOOTH",
"479 -63 OFFCURVE",
"590 67 OFFCURVE",
"590 251 CURVE SMOOTH",
"590 435 OFFCURVE",
"479 565 OFFCURVE",
"318 565 CURVE SMOOTH",
"269 565 OFFCURVE",
"225 553 OFFCURVE",
"187 531 CURVE",
"187 736 LINE",
"0 736 LINE",
"0 0 LINE"
);
}
);
width = 590;
}
);
leftKerningGroup = b;
rightKerningGroup = b;
unicode = 0062;
},
{
color = 1;
glyphname = c;
lastChange = "2019-08-05 03:00:26 +0000";
layers = (
{
layerId = "598F5332-0C7A-49A1-B747-7EF928CD593D";
paths = (
{
closed = 1;
nodes = (
"407 -12 OFFCURVE",
"483 29 OFFCURVE",
"529 107 CURVE",
"478 140 LINE",
"443 74 OFFCURVE",
"385 40 OFFCURVE",
"307 40 CURVE SMOOTH",
"192 40 OFFCURVE",
"111 127 OFFCURVE",
"111 251 CURVE SMOOTH",
"111 375 OFFCURVE",
"192 462 OFFCURVE",
"307 462 CURVE SMOOTH",
"385 462 OFFCURVE",
"443 428 OFFCURVE",
"478 362 CURVE",
"529 395 LINE",
"483 473 OFFCURVE",
"407 514 OFFCURVE",
"307 514 CURVE SMOOTH",
"155 514 OFFCURVE",
"49 406 OFFCURVE",
"49 251 CURVE SMOOTH",
"49 96 OFFCURVE",
"155 -12 OFFCURVE",
"307 -12 CURVE SMOOTH"
);
}
);
width = 567;
},
{
layerId = "F0C8AC16-97C4-4682-80FB-F8C7118623A9";
paths = (
{
closed = 1;
nodes = (
"383 -12 OFFCURVE",
"475 48 OFFCURVE",
"504 135 CURVE",
"363 186 LINE",
"348 156 OFFCURVE",
"320 140 OFFCURVE",
"282 140 CURVE SMOOTH",
"223 140 OFFCURVE",
"182 188 OFFCURVE",
"182 257 CURVE SMOOTH",
"182 326 OFFCURVE",
"223 374 OFFCURVE",
"282 374 CURVE SMOOTH",
"325 374 OFFCURVE",
"355 355 OFFCURVE",
"369 318 CURVE",
"509 369 LINE",
"481 461 OFFCURVE",
"388 526 OFFCURVE",
"282 526 CURVE SMOOTH",
"123 526 OFFCURVE",
"12 415 OFFCURVE",
"12 257 CURVE SMOOTH",
"12 99 OFFCURVE",
"123 -12 OFFCURVE",
"282 -12 CURVE SMOOTH"
);
}
);
width = 512;
},
{
associatedMasterId = "F0C8AC16-97C4-4682-80FB-F8C7118623A9";
layerId = "3D16A6CD-DDF5-4A3D-8905-9283B3308FD8";
name = bubble;
paths = (
{
closed = 1;
nodes = (
"385 -24 OFFCURVE",
"479 35 OFFCURVE",
"512 122 CURVE",
"512 396 LINE",
"475 481 OFFCURVE",
"384 538 OFFCURVE",
"282 538 CURVE SMOOTH",
"117 538 OFFCURVE",
"0 422 OFFCURVE",
"0 257 CURVE SMOOTH",
"0 92 OFFCURVE",
"117 -24 OFFCURVE",
"282 -24 CURVE SMOOTH"
);
}
);
width = 512;
},
{
associatedMasterId = "598F5332-0C7A-49A1-B747-7EF928CD593D";
layerId = "C9719439-CC26-44BB-9C74-0FC2EC3A61F3";
name = bubble;
paths = (
{
closed = 1;
nodes = (
"422.145 -61 OFFCURVE",
"515 -8 OFFCURVE",
"567 78 CURVE",
"567 424 LINE",
"515 510 OFFCURVE",
"422.145 563 OFFCURVE",
"307 563 CURVE SMOOTH",
"127 563 OFFCURVE",
"0 434 OFFCURVE",
"0 251 CURVE SMOOTH",
"0 68 OFFCURVE",
"127 -61 OFFCURVE",
"307 -61 CURVE SMOOTH"
);
}
);
width = 567;
}
);
leftKerningGroup = c;
rightKerningGroup = c;
unicode = 0063;
},
{
color = 1;
glyphname = d;
lastChange = "2019-08-05 03:02:25 +0000";
layers = (
{
layerId = "598F5332-0C7A-49A1-B747-7EF928CD593D";
paths = (
{
closed = 1;
nodes = (
"404 -12 OFFCURVE",
"494 95 OFFCURVE",
"494 251 CURVE SMOOTH",
"494 407 OFFCURVE",
"404 514 OFFCURVE",
"272 514 CURVE SMOOTH",
"140 514 OFFCURVE",
"50 407 OFFCURVE",
"50 251 CURVE SMOOTH",
"50 95 OFFCURVE",
"140 -12 OFFCURVE",
"272 -12 CURVE SMOOTH"
);
},
{
closed = 1;
nodes = (
"180 40 OFFCURVE",
"112 126 OFFCURVE",
"112 251 CURVE SMOOTH",
"112 376 OFFCURVE",
"180 462 OFFCURVE",
"280 462 CURVE SMOOTH",
"383 462 OFFCURVE",
"454 376 OFFCURVE",
"454 251 CURVE SMOOTH",
"454 126 OFFCURVE",
"383 40 OFFCURVE",
"280 40 CURVE SMOOTH"
);
},
{
closed = 1;
nodes = (
"514 0 LINE",
"514 736 LINE",
"454 736 LINE",
"454 0 LINE"
);
}
);
width = 590;
},
{
layerId = "F0C8AC16-97C4-4682-80FB-F8C7118623A9";
paths = (
{
closed = 1;
nodes = (
"383 -12 OFFCURVE",
"469 98 OFFCURVE",
"469 257 CURVE SMOOTH",
"469 416 OFFCURVE",
"383 526 OFFCURVE",
"257 526 CURVE SMOOTH",
"113 526 OFFCURVE",
"14 416 OFFCURVE",
"14 257 CURVE SMOOTH",
"14 98 OFFCURVE",
"113 -12 OFFCURVE",
"257 -12 CURVE SMOOTH"
);
},
{
closed = 1;
nodes = (
"226 140 OFFCURVE",
"183 188 OFFCURVE",
"183 257 CURVE SMOOTH",
"183 326 OFFCURVE",
"226 374 OFFCURVE",
"289 374 CURVE SMOOTH",
"358 374 OFFCURVE",
"405 326 OFFCURVE",
"405 257 CURVE SMOOTH",
"405 188 OFFCURVE",
"358 140 OFFCURVE",
"289 140 CURVE SMOOTH"
);
},
{
closed = 1;
nodes = (
"573 0 LINE",
"573 740 LINE",
"405 740 LINE",
"405 0 LINE"
);
}
);
width = 632;
},
{
associatedMasterId = "F0C8AC16-97C4-4682-80FB-F8C7118623A9";
layerId = "B010E532-BB9E-491E-9B57-30011C83BB07";
name = bubble;
paths = (
{
closed = 1;
nodes = (
"632 740 LINE",
"359 740 LINE",
"359 515 LINE",
"328 531 OFFCURVE",
"294 540 OFFCURVE",
"257 540 CURVE SMOOTH",
"105 540 OFFCURVE",
"0 424 OFFCURVE",
"0 257 CURVE SMOOTH",
"0 90 OFFCURVE",
"105 -26 OFFCURVE",
"257 -26 CURVE SMOOTH",
"295 -26 OFFCURVE",
"329 -17 OFFCURVE",
"359 0 CURVE",
"632 0 LINE"
);
}
);
width = 632;
},
{
associatedMasterId = "598F5332-0C7A-49A1-B747-7EF928CD593D";
layerId = "36855378-90EC-4F4F-ABA2-842B0E949F2C";
name = bubble;
paths = (
{
closed = 1;
nodes = (
"341 -63 OFFCURVE",
"399 -40 OFFCURVE",
"445 0 CURVE",
"590 0 LINE",
"590 736 LINE",
"404 736 LINE",
"404 531 LINE",
"366 553 OFFCURVE",
"322 565 OFFCURVE",
"273 565 CURVE SMOOTH",
"112 565 OFFCURVE",
"0 435 OFFCURVE",
"0 251 CURVE SMOOTH",
"0 67 OFFCURVE",
"112 -63 OFFCURVE",
"273 -63 CURVE SMOOTH"
);
}
);
width = 590;
}
);
leftKerningGroup = c;
rightKerningGroup = d;
unicode = 0064;
},
{
color = 1;
glyphname = e;
lastChange = "2019-08-05 03:04:11 +0000";
layers = (
{
layerId = "598F5332-0C7A-49A1-B747-7EF928CD593D";
paths = (
{
closed = 1;
nodes = (
"400 -12 OFFCURVE",
"484 33 OFFCURVE",
"527 107 CURVE",
"478 140 LINE",
"446 78 OFFCURVE",
"378 40 OFFCURVE",
"301 40 CURVE SMOOTH",
"210 40 OFFCURVE",
"98 134 OFFCURVE",
"110 260 CURVE",
"65 225 LINE",
"553 225 LINE",
"553 251 LINE SMOOTH",
"553 407 OFFCURVE",
"450 514 OFFCURVE",
"301 514 CURVE SMOOTH",
"152 514 OFFCURVE",
"49 407 OFFCURVE",
"49 251 CURVE SMOOTH",
"49 95 OFFCURVE",
"163 -12 OFFCURVE",
"301 -12 CURVE SMOOTH"
);
},
{
closed = 1;
nodes = (
"103 371 OFFCURVE",
"186 462 OFFCURVE",
"301 462 CURVE SMOOTH",
"416 462 OFFCURVE",
"499 371 OFFCURVE",
"493 242 CURVE",
"537 277 LINE",
"65 277 LINE",
"109 242 LINE"
);
}
);
width = 597;
},
{
layerId = "F0C8AC16-97C4-4682-80FB-F8C7118623A9";
paths = (
{
closed = 1;
nodes = (
"411 -12 OFFCURVE",
"493 38 OFFCURVE",
"522 135 CURVE",
"388 182 LINE",
"361 145 OFFCURVE",
"325 126 OFFCURVE",
"282 126 CURVE SMOOTH",
"226 126 OFFCURVE",
"185 176 OFFCURVE",
"183 248 CURVE",
"143 207 LINE",
"552 207 LINE",
"552 257 LINE SMOOTH",
"552 415 OFFCURVE",
"441 526 OFFCURVE",
"282 526 CURVE SMOOTH",
"123 526 OFFCURVE",
"12 415 OFFCURVE",
"12 257 CURVE SMOOTH",
"12 99 OFFCURVE",
"123 -12 OFFCURVE",
"282 -12 CURVE SMOOTH"
);
},
{
closed = 1;
nodes = (
"183 342 OFFCURVE",
"223 388 OFFCURVE",
"282 388 CURVE SMOOTH",
"342 388 OFFCURVE",
"382 342 OFFCURVE",
"380 276 CURVE",
"422 313 LINE",
"143 313 LINE",
"184 275 LINE"
);
}
);
width = 563;
},
{
associatedMasterId = "F0C8AC16-97C4-4682-80FB-F8C7118623A9";
layerId = "505CE652-81F6-424D-8EB5-85828758F4AF";
name = bubble;
paths = (
{
closed = 1;
nodes = (
"467 -24 OFFCURVE",
"563 72 OFFCURVE",
"563 257 CURVE SMOOTH",
"563 422 OFFCURVE",
"448 538 OFFCURVE",
"282 538 CURVE SMOOTH",
"116 538 OFFCURVE",
"0 422 OFFCURVE",
"0 257 CURVE SMOOTH",
"0 92 OFFCURVE",
"116 -24 OFFCURVE",
"282 -24 CURVE SMOOTH"
);
}
);
width = 563;
},
{
associatedMasterId = "598F5332-0C7A-49A1-B747-7EF928CD593D";
layerId = "EF21ABE0-978C-4C54-A2EA-7ACCD79DC760";
name = bubble;
paths = (
{
closed = 1;
nodes = (
"475 -61 OFFCURVE",
"597 67 OFFCURVE",
"597 251 CURVE",
"597 435 OFFCURVE",
"475 563 OFFCURVE",
"311 563 CURVE SMOOTH",
"125 563 OFFCURVE",
"0 434 OFFCURVE",
"0 251 CURVE SMOOTH",
"0 74 OFFCURVE",
"130 -61 OFFCURVE",
"311 -61 CURVE SMOOTH"
);
}
);
width = 597;
}
);
leftKerningGroup = c;
rightKerningGroup = e;
unicode = 0065;
},
{
color = 1;
glyphname = f;
lastChange = "2019-08-05 03:06:43 +0000";
layers = (
{
layerId = "598F5332-0C7A-49A1-B747-7EF928CD593D";
paths = (
{
closed = 1;
nodes = (
"175 0 LINE",
"175 446 LINE",
"315 446 LINE",
"315 502 LINE",
"175 502 LINE",
"175 579 LINE SMOOTH",
"175 650 OFFCURVE",
"220 695 OFFCURVE",
"291 695 CURVE SMOOTH",
"300 695 OFFCURVE",
"309 694 OFFCURVE",
"317 693 CURVE",
"322 743 LINE",
"308 746 OFFCURVE",
"293 748 OFFCURVE",
"277 748 CURVE SMOOTH",
"177 748 OFFCURVE",
"115 687 OFFCURVE",
"115 591 CURVE SMOOTH",
"115 502 LINE",
"34 502 LINE",
"34 446 LINE",
"115 446 LINE",
"115 0 LINE"
);
}
);
width = 349;
},
{
layerId = "F0C8AC16-97C4-4682-80FB-F8C7118623A9";
paths = (
{
closed = 1;
nodes = (
"254 0 LINE",
"254 369 LINE",
"381 369 LINE",
"381 514 LINE",
"254 514 LINE",
"254 533 LINE SMOOTH",
"254 580 OFFCURVE",
"284 610 OFFCURVE",
"331 610 CURVE SMOOTH",
"347 610 OFFCURVE",
"362 607 OFFCURVE",
"374 599 CURVE",
"383 739 LINE",
"358 747 OFFCURVE",
"329 752 OFFCURVE",
"298 752 CURVE SMOOTH",
"167 752 OFFCURVE",
"86 674 OFFCURVE",
"86 551 CURVE SMOOTH",
"86 514 LINE",
"11 514 LINE",
"11 369 LINE",
"86 369 LINE",
"86 0 LINE"
);
}
);
width = 384;
},
{
associatedMasterId = "F0C8AC16-97C4-4682-80FB-F8C7118623A9";
layerId = "F43BCF1A-4F87-43AE-A020-0D90F1E91D46";
name = bubble;
paths = (
{
closed = 1;
nodes = (
"280 0 LINE",
"280 345 LINE",
"384 345 LINE",
"384 538 LINE",
"280 538 LINE",
"282 569 OFFCURVE",
"301 586 OFFCURVE",
"333 586 CURVE SMOOTH",
"354 586 OFFCURVE",
"364 582 OFFCURVE",
"372 569 CURVE",
"384 758 LINE",
"361 770 OFFCURVE",
"329 776 OFFCURVE",
"300 776 CURVE SMOOTH",
"156 776 OFFCURVE",
"64 688 OFFCURVE",
"64 551 CURVE SMOOTH",
"64 538 LINE",
"0 538 LINE",
"0 345 LINE",
"64 345 LINE",
"64 0 LINE"
);
}
);
width = 384;
},
{
associatedMasterId = "598F5332-0C7A-49A1-B747-7EF928CD593D";
layerId = "C8CC3917-527C-47DF-B0E7-771E91D2A2D3";
name = bubble;
paths = (
{
closed = 1;
nodes = (
"229 0 LINE",
"229 392 LINE",
"349 392 LINE",
"349 556 LINE",
"229 556 LINE",
"229 579 LINE SMOOTH",
"229 620 OFFCURVE",
"250 641 OFFCURVE",
"291 641 CURVE SMOOTH",
"295 641 OFFCURVE",
"302 641 OFFCURVE",
"312 639 CURVE",
"327 797 LINE",
"310 800 OFFCURVE",
"293 802 OFFCURVE",
"277 802 CURVE SMOOTH",
"148 802 OFFCURVE",
"61 717 OFFCURVE",
"61 591 CURVE SMOOTH",
"61 556 LINE",
"0 556 LINE",
"0 392 LINE",
"61 392 LINE",
"61 0 LINE"
);
}
);
width = 349;
}
);
leftKerningGroup = f;
rightKerningGroup = f;
unicode = 0066;
},
{
color = 1;
glyphname = g;
lastChange = "2019-08-05 03:09:14 +0000";
layers = (
{
layerId = "598F5332-0C7A-49A1-B747-7EF928CD593D";
paths = (
{
closed = 1;
nodes = (
"400 -200 OFFCURVE",
"490 -110 OFFCURVE",
"490 18 CURVE SMOOTH",
"490 502 LINE",
"430 502 LINE",
"430 10 LINE SMOOTH",
"430 -83 OFFCURVE",
"365 -148 OFFCURVE",
"272 -148 CURVE SMOOTH",
"184 -148 OFFCURVE",
"119 -113 OFFCURVE",
"85 -47 CURVE",
"129 -38 LINE",
"62 -116 LINE",
"112 -171 OFFCURVE",
"184 -200 OFFCURVE",
"272 -200 CURVE SMOOTH"
);
},
{
closed = 1;
nodes = (
"388 24 OFFCURVE",
"470 125 OFFCURVE",
"470 269 CURVE SMOOTH",
"470 413 OFFCURVE",
"388 514 OFFCURVE",
"270 514 CURVE SMOOTH",
"139 514 OFFCURVE",
"48 413 OFFCURVE",
"48 269 CURVE SMOOTH",
"48 125 OFFCURVE",
"139 24 OFFCURVE",
"270 24 CURVE SMOOTH"
);
},
{
closed = 1;
nodes = (
"176 76 OFFCURVE",
"110 155 OFFCURVE",
"110 269 CURVE SMOOTH",
"110 383 OFFCURVE",
"176 462 OFFCURVE",
"270 462 CURVE SMOOTH",
"364 462 OFFCURVE",
"430 383 OFFCURVE",
"430 269 CURVE SMOOTH",
"430 155 OFFCURVE",
"364 76 OFFCURVE",
"270 76 CURVE SMOOTH"
);
}
);
width = 566;
},
{
layerId = "F0C8AC16-97C4-4682-80FB-F8C7118623A9";
paths = (
{
closed = 1;
nodes = (
"442 -200 OFFCURVE",
"559 -83 OFFCURVE",
"559 84 CURVE SMOOTH",
"559 514 LINE",
"391 514 LINE",
"391 52 LINE SMOOTH",
"391 -9 OFFCURVE",
"340 -51 OFFCURVE",
"267 -51 CURVE SMOOTH",
"209 -51 OFFCURVE",
"140 -15 OFFCURVE",
"99 37 CURVE",
"140 26 LINE",
"26 -97 LINE",
"102 -165 OFFCURVE",
"187 -200 OFFCURVE",
"275 -200 CURVE SMOOTH"
);
},
{
closed = 1;
nodes = (
"367 24 OFFCURVE",
"455 127 OFFCURVE",
"455 275 CURVE SMOOTH",
"455 423 OFFCURVE",
"367 526 OFFCURVE",
"242 526 CURVE SMOOTH",
"108 526 OFFCURVE",
"15 423 OFFCURVE",
"15 275 CURVE SMOOTH",
"15 126 OFFCURVE",
"108 23 OFFCURVE",
"242 24 CURVE SMOOTH"
);
},
{
closed = 1;
nodes = (
"226 176 OFFCURVE",
"183 217 OFFCURVE",
"183 275 CURVE SMOOTH",
"183 333 OFFCURVE",
"226 374 OFFCURVE",
"287 374 CURVE SMOOTH",
"348 374 OFFCURVE",
"391 333 OFFCURVE",
"391 275 CURVE SMOOTH",
"391 217 OFFCURVE",
"348 176 OFFCURVE",
"287 176 CURVE SMOOTH"
);
}
);
width = 614;
},
{
associatedMasterId = "F0C8AC16-97C4-4682-80FB-F8C7118623A9";
layerId = "08E14DBF-3119-4AB2-B92E-00488CE781CC";
name = bubble;
paths = (
{
closed = 1;
nodes = (
"466 -225 OFFCURVE",
"614 -97 OFFCURVE",
"614 84 CURVE",
"614 514 LINE",
"378 514 LINE",
"342 537 OFFCURVE",
"300 551 OFFCURVE",
"252 551 CURVE SMOOTH",
"104 551 OFFCURVE",
"0 437 OFFCURVE",
"0 275 CURVE SMOOTH",
"0 158 OFFCURVE",
"53 66 OFFCURVE",
"138 24 CURVE",
"14 -110 LINE",
"95 -185 OFFCURVE",
"190 -225 OFFCURVE",
"285 -225 CURVE SMOOTH"
);
}
);
width = 614;
},
{
associatedMasterId = "598F5332-0C7A-49A1-B747-7EF928CD593D";
layerId = "21DB2852-B95F-4A74-8504-BD6E5DDC3EF7";
name = bubble;
paths = (
{
closed = 1;
nodes = (
"31 -153 LINE",
"90 -216 OFFCURVE",
"175 -249 OFFCURVE",
"273 -249 CURVE SMOOTH",
"428 -249 OFFCURVE",
"566 -137 OFFCURVE",
"566 18 CURVE SMOOTH",
"566 502 LINE",
"429 502 LINE",
"387 541 OFFCURVE",
"333 563 OFFCURVE",
"271 563 CURVE SMOOTH",
"113 563 OFFCURVE",
"0 440 OFFCURVE",
"0 269 CURVE SMOOTH",
"0 141 OFFCURVE",
"63 40 OFFCURVE",
"161 -3 CURVE"
);
}
);
width = 566;
}
);
leftKerningGroup = c;
rightKerningGroup = g;
unicode = 0067;
},
{
color = 1;
glyphname = h;
lastChange = "2019-08-05 03:10:22 +0000";
layers = (
{
layerId = "598F5332-0C7A-49A1-B747-7EF928CD593D";
paths = (
{
closed = 1;
nodes = (
"488 0 LINE",
"488 329 LINE SMOOTH",
"488 439 OFFCURVE",
"413 514 OFFCURVE",
"303 514 CURVE SMOOTH",
"213 514 OFFCURVE",
"134 461 OFFCURVE",
"118 390 CURVE",
"136 315 LINE",
"136 398 OFFCURVE",
"199 461 OFFCURVE",
"282 461 CURVE SMOOTH",
"372 461 OFFCURVE",
"428 405 OFFCURVE",
"428 315 CURVE SMOOTH",
"428 0 LINE"
);
},
{
closed = 1;
nodes = (
"136 0 LINE",
"136 736 LINE",
"76 736 LINE",
"76 0 LINE"
);
}
);
width = 556;
},
{
layerId = "F0C8AC16-97C4-4682-80FB-F8C7118623A9";
paths = (
{
closed = 1;
nodes = (
"549 0 LINE",
"549 346 LINE SMOOTH",
"549 449 OFFCURVE",
"472 526 OFFCURVE",
"369 526 CURVE SMOOTH",
"286 526 OFFCURVE",
"210 473 OFFCURVE",
"189 402 CURVE",
"227 295 LINE",
"227 341 OFFCURVE",
"258 372 OFFCURVE",
"304 372 CURVE SMOOTH",
"350 372 OFFCURVE",
"381 341 OFFCURVE",
"381 295 CURVE SMOOTH",
"381 0 LINE"
);
},
{
closed = 1;
nodes = (
"227 0 LINE",
"227 740 LINE",
"59 740 LINE",
"59 0 LINE"
);
}
);
width = 591;
},
{
associatedMasterId = "F0C8AC16-97C4-4682-80FB-F8C7118623A9";
layerId = "5D3440DE-4E9B-4392-805F-C234072A9E2B";
name = bubble;
paths = (
{
closed = 1;
nodes = (
"591 0 LINE",
"591 346 LINE SMOOTH",
"591 472 OFFCURVE",
"495 568 OFFCURVE",
"369 568 CURVE SMOOTH",
"340 568 OFFCURVE",
"312 563 OFFCURVE",
"286 553 CURVE",
"286 740 LINE",
"0 740 LINE",
"0 0 LINE"
);
}
);
width = 591;
},
{
associatedMasterId = "598F5332-0C7A-49A1-B747-7EF928CD593D";
layerId = "2400A73E-DE1B-4B36-A779-C3ECA18CA449";
name = bubble;
paths = (
{
closed = 1;
nodes = (
"556 0 LINE",
"556 329 LINE SMOOTH",
"556 476 OFFCURVE",
"451 582 OFFCURVE",
"303 582 CURVE SMOOTH",
"269 582 OFFCURVE",
"235 576 OFFCURVE",
"204 565 CURVE",
"204 736 LINE",
"0 736 LINE",
"0 0 LINE"
);
}
);
width = 556;
}
);
leftKerningGroup = b;
rightKerningGroup = h;
unicode = 0068;
},
{
color = 1;
glyphname = i;
lastChange = "2019-08-05 03:11:58 +0000";
layers = (
{
layerId = "598F5332-0C7A-49A1-B747-7EF928CD593D";
paths = (
{
closed = 1;
nodes = (
"136 0 LINE",
"136 502 LINE",
"76 502 LINE",
"76 0 LINE"
);
},
{
closed = 1;
nodes = (
"135 629 OFFCURVE",
"156 650 OFFCURVE",
"156 679 CURVE SMOOTH",
"156 708 OFFCURVE",
"135 729 OFFCURVE",
"106 729 CURVE SMOOTH",
"77 729 OFFCURVE",
"56 708 OFFCURVE",
"56 679 CURVE SMOOTH",
"56 650 OFFCURVE",
"77 629 OFFCURVE",
"106 629 CURVE SMOOTH"
);
}
);
width = 212;
},
{
layerId = "F0C8AC16-97C4-4682-80FB-F8C7118623A9";
paths = (
{
closed = 1;
nodes = (
"224 0 LINE",
"224 514 LINE",
"56 514 LINE",
"56 0 LINE"
);
},
{
closed = 1;
nodes = (
"189 568 OFFCURVE",
"224 603 OFFCURVE",
"224 652 CURVE SMOOTH",
"224 701 OFFCURVE",
"189 736 OFFCURVE",
"140 736 CURVE SMOOTH",
"91 736 OFFCURVE",
"56 701 OFFCURVE",
"56 652 CURVE SMOOTH",
"56 603 OFFCURVE",
"91 568 OFFCURVE",
"140 568 CURVE SMOOTH"
);
}
);
width = 280;
},
{
associatedMasterId = "F0C8AC16-97C4-4682-80FB-F8C7118623A9";
layerId = "2A244FF0-6EA5-4193-B61C-FB819226A0FC";
name = bubble;
paths = (
{
closed = 1;
nodes = (
"280 0 LINE",
"280 514 LINE",
"165 514 LINE",
"232 525 OFFCURVE",
"280 581 OFFCURVE",
"280 652 CURVE SMOOTH",
"280 732 OFFCURVE",
"220 792 OFFCURVE",
"140 792 CURVE SMOOTH",
"60 792 OFFCURVE",
"0 732 OFFCURVE",
"0 652 CURVE SMOOTH",
"0 581 OFFCURVE",
"48 525 OFFCURVE",
"115 514 CURVE",
"0 514 LINE",
"0 0 LINE"
);
}
);
width = 280;
},
{
associatedMasterId = "598F5332-0C7A-49A1-B747-7EF928CD593D";
layerId = "A2ADE465-94D5-488A-AF4D-44D51863538C";
name = bubble;
paths = (
{
closed = 1;
nodes = (
"212 0 LINE",
"212 502 LINE",
"0 502 LINE",
"0 0 LINE"
);
},
{
closed = 1;
nodes = (
"166 573 OFFCURVE",
"212 619 OFFCURVE",
"212 679 CURVE SMOOTH",
"212 739 OFFCURVE",
"166 785 OFFCURVE",
"106 785 CURVE SMOOTH",
"46 785 OFFCURVE",
"0 739 OFFCURVE",
"0 679 CURVE SMOOTH",
"0 619 OFFCURVE",
"46 573 OFFCURVE",
"106 573 CURVE SMOOTH"
);
}
);
width = 212;
}
);
leftKerningGroup = i;
rightKerningGroup = i;
unicode = 0069;
},
{
color = 1;
glyphname = j;
lastChange = "2019-08-05 03:18:41 +0000";
layers = (
{
layerId = "598F5332-0C7A-49A1-B747-7EF928CD593D";
paths = (
{
closed = 1;
nodes = (
"74 -200 OFFCURVE",
"136 -139 OFFCURVE",
"136 -43 CURVE",
"136 502 LINE",
"76 502 LINE",
"76 -31 LINE",
"76 -102 OFFCURVE",
"31 -147 OFFCURVE",
"-40 -147 CURVE SMOOTH",
"-49 -147 OFFCURVE",
"-58 -146 OFFCURVE",
"-66 -145 CURVE",
"-71 -195 LINE",
"-57 -198 OFFCURVE",
"-42 -200 OFFCURVE",
"-26 -200 CURVE SMOOTH"
);
},
{
closed = 1;
nodes = (
"135 629 OFFCURVE",
"156 650 OFFCURVE",
"156 679 CURVE SMOOTH",
"156 708 OFFCURVE",
"135 729 OFFCURVE",
"106 729 CURVE SMOOTH",
"77 729 OFFCURVE",
"56 708 OFFCURVE",
"56 679 CURVE SMOOTH",
"56 650 OFFCURVE",
"77 629 OFFCURVE",
"106 629 CURVE SMOOTH"
);
}
);
width = 212;
},
{
layerId = "F0C8AC16-97C4-4682-80FB-F8C7118623A9";
paths = (
{
closed = 1;
nodes = (
"146 -200 OFFCURVE",
"227 -122 OFFCURVE",
"227 1 CURVE",
"227 514 LINE",
"59 514 LINE",
"59 19 LINE",
"59 -28 OFFCURVE",
"29 -58 OFFCURVE",
"-18 -58 CURVE SMOOTH",
"-34 -58 OFFCURVE",
"-49 -55 OFFCURVE",
"-61 -47 CURVE",
"-70 -187 LINE",
"-45 -195 OFFCURVE",
"-16 -200 OFFCURVE",
"15 -200 CURVE SMOOTH"
);
},
{
closed = 1;
nodes = (
"192 568 OFFCURVE",
"227 603 OFFCURVE",
"227 652 CURVE SMOOTH",
"227 701 OFFCURVE",
"192 736 OFFCURVE",
"143 736 CURVE SMOOTH",
"94 736 OFFCURVE",
"59 701 OFFCURVE",
"59 652 CURVE SMOOTH",
"59 603 OFFCURVE",
"94 568 OFFCURVE",
"143 568 CURVE SMOOTH"
);
}
);
width = 286;
},
{
associatedMasterId = "F0C8AC16-97C4-4682-80FB-F8C7118623A9";
layerId = "2BE0D3A0-BC24-497B-9C6E-BD7F47668B53";
name = bubble;
paths = (
{
closed = 1;
nodes = (
"162 -224 OFFCURVE",
"286 -136 OFFCURVE",
"286 1 CURVE SMOOTH",
"286 514 LINE",
"165 514 LINE",
"232 525 OFFCURVE",
"280 581 OFFCURVE",
"280 652 CURVE SMOOTH",
"280 733 OFFCURVE",
"220 792 OFFCURVE",
"140 792 CURVE SMOOTH",
"60 792 OFFCURVE",
"0 732 OFFCURVE",
"0 652 CURVE SMOOTH",
"0 581 OFFCURVE",
"48 525 OFFCURVE",
"115 514 CURVE",
"0 514 LINE",
"0 0 LINE SMOOTH",
"0 -21 OFFCURVE",
"-14 -35 OFFCURVE",
"-35 -35 CURVE SMOOTH",
"-44 -35 OFFCURVE",
"-51 -34 OFFCURVE",
"-60 -30 CURVE",
"-71 -210 LINE",
"-43 -220 OFFCURVE",
"-13 -224 OFFCURVE",
"18 -224 CURVE SMOOTH"
);
}
);
width = 286;
},
{
associatedMasterId = "598F5332-0C7A-49A1-B747-7EF928CD593D";
layerId = "D99B5BB1-8F2A-4D71-9972-D17F4972BB36";
name = bubble;
paths = (
{
closed = 1;
nodes = (
"114 -254 OFFCURVE",
"212 -167 OFFCURVE",
"212 -43 CURVE SMOOTH",
"212 502 LINE",
"0 502 LINE",
"0 -31 LINE SMOOTH",
"0 -55 OFFCURVE",
"-16 -71 OFFCURVE",
"-40 -71 CURVE SMOOTH",
"-47 -71 OFFCURVE",
"-53 -70 OFFCURVE",
"-58 -67 CURVE",
"-77 -249 LINE",
"-59 -252 OFFCURVE",
"-42 -254 OFFCURVE",
"-26 -254 CURVE SMOOTH"
);
},
{
closed = 1;
nodes = (
"166 573 OFFCURVE",
"212 619 OFFCURVE",
"212 679 CURVE SMOOTH",
"212 739 OFFCURVE",
"166 785 OFFCURVE",
"106 785 CURVE SMOOTH",
"46 785 OFFCURVE",
"0 739 OFFCURVE",
"0 679 CURVE SMOOTH",
"0 619 OFFCURVE",
"46 573 OFFCURVE",
"106 573 CURVE SMOOTH"
);
}
);
width = 212;
}
);
leftKerningGroup = j;
rightKerningGroup = j;
unicode = 006A;
},
{
color = 1;
glyphname = k;
lastChange = "2019-08-05 03:20:37 +0000";
layers = (
{
layerId = "598F5332-0C7A-49A1-B747-7EF928CD593D";
paths = (
{
closed = 1;
nodes = (
"136 0 LINE",
"136 168 LINE",
"216 248 LINE",
"403 0 LINE",
"486 0 LINE",
"264 296 LINE",
"482 514 LINE",
"399 514 LINE",
"136 250 LINE",
"136 740 LINE",
"76 740 LINE",
"76 0 LINE"
);
}
);
width = 517;
},
{
guideLines = (
{
angle = 90;
position = "{-297, 157}";
}
);
layerId = "F0C8AC16-97C4-4682-80FB-F8C7118623A9";
paths = (
{
closed = 1;
nodes = (
"227 0 LINE",
"227 131 LINE",
"296 200 LINE",
"447 0 LINE",
"644 0 LINE",
"418 302 LINE",
"630 514 LINE",
"407 514 LINE",
"227 333 LINE",
"227 740 LINE",
"59 740 LINE",
"59 0 LINE"
);
}
);
width = 638;
},
{
associatedMasterId = "F0C8AC16-97C4-4682-80FB-F8C7118623A9";
guideLines = (
{
angle = 90;
position = "{-303, 157}";
}
);
layerId = "160A528B-AF37-42C8-BF02-2D81B1DDB2A6";
name = bubble;
paths = (
{
closed = 1;
nodes = (
"644 0 LINE",
"571 298 LINE",
"639 514 LINE",
"270 514 LINE",
"270 740 LINE",
"0 740 LINE",
"0 0 LINE"
);
}
);
width = 638;
},
{
associatedMasterId = "598F5332-0C7A-49A1-B747-7EF928CD593D";
layerId = "651696C9-97E2-4822-ACDD-8EA0375A6123";
name = bubble;
paths = (
{
closed = 1;
nodes = (
"517 0 LINE",
"412 293 LINE",
"517 514 LINE",
"164 514 LINE",
"164 740 LINE",
"0 740 LINE",
"0 0 LINE"
);
}
);
width = 517;
}
);
leftKerningGroup = b;
rightKerningGroup = k;
unicode = 006B;
},
{
color = 1;
glyphname = l;
lastChange = "2019-08-05 03:21:08 +0000";
layers = (
{
layerId = "598F5332-0C7A-49A1-B747-7EF928CD593D";
paths = (
{
closed = 1;
nodes = (
"136 0 LINE",
"136 736 LINE",
"76 736 LINE",
"76 0 LINE"
);
}
);
width = 212;
},
{
layerId = "F0C8AC16-97C4-4682-80FB-F8C7118623A9";
paths = (
{
closed = 1;
nodes = (
"227 0 LINE",
"227 740 LINE",
"59 740 LINE",
"59 0 LINE"
);
}
);
width = 286;
},
{
associatedMasterId = "F0C8AC16-97C4-4682-80FB-F8C7118623A9";
layerId = "BC40F283-228F-47C0-978A-CC68BE5E4F3A";
name = bubble;
paths = (
{
closed = 1;
nodes = (
"286 0 LINE",
"286 740 LINE",
"0 740 LINE",
"0 0 LINE"
);
}
);
width = 286;
},
{
associatedMasterId = "598F5332-0C7A-49A1-B747-7EF928CD593D";
layerId = "C5E4F980-0595-4647-947C-1977E182EB11";
name = bubble;
paths = (
{
closed = 1;
nodes = (
"212 0 LINE",
"212 736 LINE",
"0 736 LINE",
"0 0 LINE"
);
}
);
width = 212;
}
);
leftKerningGroup = b;
rightKerningGroup = d;
unicode = 006C;
},
{
color = 1;
glyphname = m;
lastChange = "2019-08-05 04:51:49 +0000";
layers = (
{
layerId = "598F5332-0C7A-49A1-B747-7EF928CD593D";
paths = (
{
closed = 1;
nodes = (
"840 0 LINE",
"840 329 LINE SMOOTH",
"840 439 OFFCURVE",
"765 514 OFFCURVE",
"655 514 CURVE SMOOTH",
"565 514 OFFCURVE",
"486 461 OFFCURVE",
"470 390 CURVE",
"488 315 LINE",
"488 398 OFFCURVE",
"551 461 OFFCURVE",
"634 461 CURVE SMOOTH",
"724 461 OFFCURVE",
"780 406 OFFCURVE",
"780 315 CURVE SMOOTH",
"780 0 LINE"
);
},
{
closed = 1;
nodes = (
"136 0 LINE",
"136 502 LINE",
"76 502 LINE",
"76 0 LINE"
);
},
{
closed = 1;
nodes = (
"488 0 LINE",
"488 329 LINE SMOOTH",
"488 439 OFFCURVE",
"413 514 OFFCURVE",
"303 514 CURVE SMOOTH",
"213 514 OFFCURVE",
"134 461 OFFCURVE",
"118 390 CURVE",
"136 315 LINE",
"136 398 OFFCURVE",
"199 461 OFFCURVE",
"282 461 CURVE SMOOTH",
"372 461 OFFCURVE",
"428 405 OFFCURVE",
"428 315 CURVE SMOOTH",
"428 0 LINE"
);
}
);
width = 908;
},
{
layerId = "F0C8AC16-97C4-4682-80FB-F8C7118623A9";
paths = (
{
closed = 1;
nodes = (
"867 0 LINE",
"867 346 LINE SMOOTH",
"867 449 OFFCURVE",
"790 526 OFFCURVE",
"687 526 CURVE SMOOTH",
"604 526 OFFCURVE",
"528 473 OFFCURVE",
"507 402 CURVE",
"545 295 LINE",
"545 341 OFFCURVE",
"576 372 OFFCURVE",
"622 372 CURVE SMOOTH",
"668 372 OFFCURVE",
"699 341 OFFCURVE",
"699 295 CURVE SMOOTH",
"699 0 LINE"
);
},
{
closed = 1;
nodes = (
"223 0 LINE",
"223 514 LINE",
"55 514 LINE",
"55 0 LINE"
);
},
{
closed = 1;
nodes = (
"545 0 LINE",
"545 346 LINE SMOOTH",
"545 449 OFFCURVE",
"468 526 OFFCURVE",
"365 526 CURVE SMOOTH",
"282 526 OFFCURVE",
"206 473 OFFCURVE",
"185 402 CURVE",
"223 295 LINE",
"223 341 OFFCURVE",
"254 372 OFFCURVE",
"300 372 CURVE SMOOTH",
"346 372 OFFCURVE",
"377 341 OFFCURVE",
"377 295 CURVE SMOOTH",
"377 0 LINE"
);
}
);
width = 909;
},
{
associatedMasterId = "F0C8AC16-97C4-4682-80FB-F8C7118623A9";
layerId = "4A2877E5-BBFD-45D5-9711-7038A24AD956";
name = bubble;
paths = (
{
closed = 1;
nodes = (
"909 0 LINE",
"909 346 LINE SMOOTH",
"909 472 OFFCURVE",
"813 568 OFFCURVE",
"687 568 CURVE SMOOTH",
"625 568 OFFCURVE",
"566 544 OFFCURVE",
"523 504 CURVE",
"484 544 OFFCURVE",
"428 568 OFFCURVE",
"365 568 CURVE SMOOTH",
"308 568 OFFCURVE",
"254 548 OFFCURVE",
"213 514 CURVE",
"0 514 LINE",
"0 0 LINE"
);
}
);
width = 909;
},
{
associatedMasterId = "598F5332-0C7A-49A1-B747-7EF928CD593D";
layerId = "C19C4977-BF61-49AE-AB05-2A0CC9DAAFCA";
name = bubble;
paths = (
{
closed = 1;
nodes = (
"908 0 LINE",
"908 329 LINE SMOOTH",
"908 476 OFFCURVE",
"803 582 OFFCURVE",
"655 582 CURVE SMOOTH",
"587 582 OFFCURVE",
"523 558 OFFCURVE",
"476 519 CURVE",
"432 559 OFFCURVE",
"372 582 OFFCURVE",
"303 582 CURVE SMOOTH",
"225 582 OFFCURVE",
"153 551 OFFCURVE",
"105 502 CURVE",
"0 502 LINE",
"0 0 LINE"
);
}
);
width = 908;
}
);
leftKerningGroup = m;
rightKerningGroup = h;
unicode = 006D;
},
{
color = 1;
glyphname = n;
lastChange = "2019-08-05 04:52:47 +0000";
layers = (
{
layerId = "598F5332-0C7A-49A1-B747-7EF928CD593D";
paths = (
{
closed = 1;
nodes = (
"488 0 LINE",
"488 329 LINE SMOOTH",
"488 439 OFFCURVE",
"413 514 OFFCURVE",
"303 514 CURVE SMOOTH",
"213 514 OFFCURVE",
"134 461 OFFCURVE",
"118 390 CURVE",
"136 315 LINE",
"136 398 OFFCURVE",
"199 461 OFFCURVE",
"282 461 CURVE SMOOTH",
"372 461 OFFCURVE",
"428 405 OFFCURVE",
"428 315 CURVE SMOOTH",
"428 0 LINE"
);
},
{
closed = 1;
nodes = (
"136 0 LINE",
"136 502 LINE",
"76 502 LINE",
"76 0 LINE"
);
}
);
width = 556;
},
{
layerId = "F0C8AC16-97C4-4682-80FB-F8C7118623A9";
paths = (
{
closed = 1;
nodes = (
"545 0 LINE",
"545 346 LINE SMOOTH",
"545 449 OFFCURVE",
"468 526 OFFCURVE",
"365 526 CURVE SMOOTH",
"282 526 OFFCURVE",
"206 473 OFFCURVE",
"185 402 CURVE",
"223 295 LINE",
"223 341 OFFCURVE",
"254 372 OFFCURVE",
"300 372 CURVE SMOOTH",
"346 372 OFFCURVE",
"377 341 OFFCURVE",
"377 295 CURVE SMOOTH",
"377 0 LINE"
);
},
{
closed = 1;
nodes = (
"223 0 LINE",
"223 514 LINE",
"55 514 LINE",
"55 0 LINE"
);
}
);
width = 587;
},
{
associatedMasterId = "F0C8AC16-97C4-4682-80FB-F8C7118623A9";
layerId = "CBBEA1E2-C9CB-4418-BF26-F02BE5312B11";
name = bubble;
paths = (
{
closed = 1;
nodes = (
"587 0 LINE",
"587 346 LINE SMOOTH",
"587 472 OFFCURVE",
"491 568 OFFCURVE",
"365 568 CURVE SMOOTH",
"308 568 OFFCURVE",
"254 548 OFFCURVE",
"213 514 CURVE",
"0 514 LINE",
"0 0 LINE"
);
}
);
width = 587;
},
{
associatedMasterId = "598F5332-0C7A-49A1-B747-7EF928CD593D";
layerId = "17FF61BB-8EEE-42B9-B32E-C60034888A75";
name = bubble;
paths = (
{
closed = 1;
nodes = (
"556 0 LINE",
"556 329 LINE SMOOTH",
"556 476 OFFCURVE",
"451 582 OFFCURVE",
"303 582 CURVE SMOOTH",
"225 582 OFFCURVE",
"153 551 OFFCURVE",
"105 502 CURVE",
"0 502 LINE",
"0 0 LINE"
);
}
);
width = 556;
}
);
leftKerningGroup = m;
rightKerningGroup = h;
unicode = 006E;
},
{
color = 1;
glyphname = o;
lastChange = "2019-08-05 04:53:22 +0000";
layers = (
{
anchors = (
{
name = top;
position = "{307, 514}";
}
);
layerId = "598F5332-0C7A-49A1-B747-7EF928CD593D";
paths = (
{
closed = 1;
nodes = (
"460 -12 OFFCURVE",
"565 95 OFFCURVE",
"565 251 CURVE SMOOTH",
"565 407 OFFCURVE",
"460 514 OFFCURVE",
"307 514 CURVE SMOOTH",
"154 514 OFFCURVE",
"49 407 OFFCURVE",
"49 251 CURVE SMOOTH",
"49 95 OFFCURVE",
"154 -12 OFFCURVE",
"307 -12 CURVE SMOOTH"
);
},
{
closed = 1;
nodes = (
"191 40 OFFCURVE",
"111 126 OFFCURVE",
"111 251 CURVE SMOOTH",
"111 377 OFFCURVE",
"191 462 OFFCURVE",
"307 462 CURVE SMOOTH",
"423 462 OFFCURVE",
"503 376 OFFCURVE",
"503 251 CURVE SMOOTH",
"503 126 OFFCURVE",
"423 40 OFFCURVE",
"307 40 CURVE SMOOTH"
);
}
);
width = 614;
},
{
anchors = (
{
name = top;
position = "{282, 514}";
}
);
layerId = "F0C8AC16-97C4-4682-80FB-F8C7118623A9";
paths = (
{
closed = 1;
nodes = (
"441 -12 OFFCURVE",
"552 99 OFFCURVE",
"552 257 CURVE SMOOTH",
"552 415 OFFCURVE",
"441 526 OFFCURVE",
"282 526 CURVE SMOOTH",
"123 526 OFFCURVE",
"12 415 OFFCURVE",
"12 257 CURVE SMOOTH",
"12 99 OFFCURVE",
"123 -12 OFFCURVE",
"282 -12 CURVE SMOOTH"
);
},
{
closed = 1;
nodes = (
"223 142 OFFCURVE",
"182 189 OFFCURVE",
"182 257 CURVE SMOOTH",
"182 325 OFFCURVE",
"223 372 OFFCURVE",
"282 372 CURVE SMOOTH",
"341 372 OFFCURVE",
"382 325 OFFCURVE",
"382 257 CURVE SMOOTH",
"382 189 OFFCURVE",
"341 142 OFFCURVE",
"282 142 CURVE SMOOTH"
);
}
);
width = 564;
},
{
associatedMasterId = "F0C8AC16-97C4-4682-80FB-F8C7118623A9";
layerId = "FDEE26AB-2AF2-4529-A17A-4B0AF69485D8";
name = bubble;
paths = (
{
closed = 1;
nodes = (
"447 -24 OFFCURVE",
"564 92 OFFCURVE",
"564 257 CURVE SMOOTH",
"564 422 OFFCURVE",
"447 538 OFFCURVE",
"282 538 CURVE SMOOTH",
"117 538 OFFCURVE",
"0 422 OFFCURVE",
"0 257 CURVE SMOOTH",
"0 92 OFFCURVE",
"117 -24 OFFCURVE",
"282 -24 CURVE SMOOTH"
);
}
);
width = 564;
},
{
associatedMasterId = "598F5332-0C7A-49A1-B747-7EF928CD593D";
layerId = "4E8F36EC-AAD7-4CB4-B8BD-93B130CD1876";
name = bubble;
paths = (
{
closed = 1;
nodes = (
"487 -61 OFFCURVE",
"614 68 OFFCURVE",
"614 251 CURVE SMOOTH",
"614 434 OFFCURVE",
"487 563 OFFCURVE",
"307 563 CURVE SMOOTH",
"127 563 OFFCURVE",
"0 434 OFFCURVE",
"0 251 CURVE SMOOTH",
"0 68 OFFCURVE",
"127 -61 OFFCURVE",
"307 -61 CURVE SMOOTH"
);
}
);
width = 614;
}
);
leftKerningGroup = c;
rightKerningGroup = b;
unicode = 006F;
},
{
color = 1;
glyphname = odieresis;
lastChange = "2019-06-12 04:36:36 +0000";
layers = (
{
anchors = (
{
name = top;
position = "{307, 514}";
}
);
components = (
{
name = dieresis;
transform = "{1, 0, 0, 1, 81, 0}";
}
);
layerId = "598F5332-0C7A-49A1-B747-7EF928CD593D";
paths = (
{
closed = 1;
nodes = (
"460 -12 OFFCURVE",
"565 95 OFFCURVE",
"565 251 CURVE SMOOTH",
"565 407 OFFCURVE",
"460 514 OFFCURVE",
"307 514 CURVE SMOOTH",
"154 514 OFFCURVE",
"49 407 OFFCURVE",
"49 251 CURVE SMOOTH",
"49 95 OFFCURVE",
"154 -12 OFFCURVE",
"307 -12 CURVE SMOOTH"
);
},
{
closed = 1;
nodes = (
"191 40 OFFCURVE",
"111 126 OFFCURVE",
"111 251 CURVE SMOOTH",
"111 377 OFFCURVE",
"191 462 OFFCURVE",
"307 462 CURVE SMOOTH",
"423 462 OFFCURVE",
"503 376 OFFCURVE",
"503 251 CURVE SMOOTH",
"503 126 OFFCURVE",
"423 40 OFFCURVE",
"307 40 CURVE SMOOTH"
);
}
);
width = 614;
},
{
anchors = (
{
name = top;
position = "{294, 514}";
}
);
components = (
{
name = dieresis;
transform = "{1, 0, 0, 1, 54, 0}";
}
);
layerId = "F0C8AC16-97C4-4682-80FB-F8C7118623A9";
paths = (
{
closed = 1;
nodes = (
"453 -12 OFFCURVE",
"564 99 OFFCURVE",
"564 257 CURVE SMOOTH",
"564 415 OFFCURVE",
"453 526 OFFCURVE",
"294 526 CURVE SMOOTH",
"135 526 OFFCURVE",
"24 415 OFFCURVE",
"24 257 CURVE SMOOTH",
"24 99 OFFCURVE",
"135 -12 OFFCURVE",
"294 -12 CURVE SMOOTH"
);
},
{
closed = 1;
nodes = (
"235 142 OFFCURVE",
"194 189 OFFCURVE",
"194 257 CURVE SMOOTH",
"194 325 OFFCURVE",
"235 372 OFFCURVE",
"294 372 CURVE SMOOTH",
"353 372 OFFCURVE",
"394 325 OFFCURVE",
"394 257 CURVE SMOOTH",
"394 189 OFFCURVE",
"353 142 OFFCURVE",
"294 142 CURVE SMOOTH"
);
}
);
width = 588;
},
{
associatedMasterId = "F0C8AC16-97C4-4682-80FB-F8C7118623A9";
layerId = "FDEE26AB-2AF2-4529-A17A-4B0AF69485D8";
name = bubble;
paths = (
{
closed = 1;
nodes = (
"466 -36 OFFCURVE",
"588 86 OFFCURVE",
"588 257 CURVE SMOOTH",
"588 428 OFFCURVE",
"466 550 OFFCURVE",
"294 550 CURVE SMOOTH",
"122 550 OFFCURVE",
"0 428 OFFCURVE",
"0 257 CURVE SMOOTH",
"0 86 OFFCURVE",
"122 -36 OFFCURVE",
"294 -36 CURVE SMOOTH"
);
}
);
width = 588;
},
{
associatedMasterId = "598F5332-0C7A-49A1-B747-7EF928CD593D";
layerId = "4E8F36EC-AAD7-4CB4-B8BD-93B130CD1876";
name = bubble;
paths = (
{
closed = 1;
nodes = (
"487 -61 OFFCURVE",
"614 68 OFFCURVE",
"614 251 CURVE SMOOTH",
"614 434 OFFCURVE",
"487 563 OFFCURVE",
"307 563 CURVE SMOOTH",
"127 563 OFFCURVE",
"0 434 OFFCURVE",
"0 251 CURVE SMOOTH",
"0 68 OFFCURVE",
"127 -61 OFFCURVE",
"307 -61 CURVE SMOOTH"
);
}
);
width = 614;
}
);
leftKerningGroup = c;
rightKerningGroup = b;
unicode = 00F6;
},
{
color = 1;
glyphname = p;
lastChange = "2019-08-05 04:55:13 +0000";
layers = (
{
layerId = "598F5332-0C7A-49A1-B747-7EF928CD593D";
paths = (
{
closed = 1;
nodes = (
"450 -12 OFFCURVE",
"540 95 OFFCURVE",
"540 251 CURVE SMOOTH",
"540 407 OFFCURVE",
"450 514 OFFCURVE",
"318 514 CURVE SMOOTH",
"186 514 OFFCURVE",
"96 407 OFFCURVE",
"96 251 CURVE SMOOTH",
"96 95 OFFCURVE",
"186 -12 OFFCURVE",
"318 -12 CURVE SMOOTH"
);
},
{
closed = 1;
nodes = (
"207 40 OFFCURVE",
"136 126 OFFCURVE",
"136 251 CURVE SMOOTH",
"136 376 OFFCURVE",
"207 462 OFFCURVE",
"310 462 CURVE SMOOTH",
"410 462 OFFCURVE",
"478 376 OFFCURVE",
"478 251 CURVE SMOOTH",
"478 126 OFFCURVE",
"410 40 OFFCURVE",
"310 40 CURVE SMOOTH"
);
},
{
closed = 1;
nodes = (
"136 -188 LINE",
"136 502 LINE",
"76 502 LINE",
"76 -188 LINE"
);
}
);
width = 590;
},
{
layerId = "F0C8AC16-97C4-4682-80FB-F8C7118623A9";
paths = (
{
closed = 1;
nodes = (
"519 -12 OFFCURVE",
"618 98 OFFCURVE",
"618 257 CURVE SMOOTH",
"618 416 OFFCURVE",
"519 526 OFFCURVE",
"375 526 CURVE SMOOTH",
"249 526 OFFCURVE",
"163 416 OFFCURVE",
"163 257 CURVE SMOOTH",
"163 98 OFFCURVE",
"249 -12 OFFCURVE",
"375 -12 CURVE SMOOTH"
);
},
{
closed = 1;
nodes = (
"274 140 OFFCURVE",
"227 188 OFFCURVE",
"227 257 CURVE SMOOTH",
"227 326 OFFCURVE",
"274 374 OFFCURVE",
"343 374 CURVE SMOOTH",
"406 374 OFFCURVE",
"449 326 OFFCURVE",
"449 257 CURVE SMOOTH",
"449 188 OFFCURVE",
"406 140 OFFCURVE",
"343 140 CURVE SMOOTH"
);
},
{
closed = 1;
nodes = (
"227 -188 LINE",
"227 514 LINE",
"59 514 LINE",
"59 -188 LINE"
);
}
);
width = 632;
},
{
associatedMasterId = "F0C8AC16-97C4-4682-80FB-F8C7118623A9";
layerId = "ECAE1CF2-1D20-404F-87E5-88D693AC59FD";
name = bubble;
paths = (
{
closed = 1;
nodes = (
"273 -188 LINE",
"273 -1 LINE",
"304 -17 OFFCURVE",
"338 -26 OFFCURVE",
"375 -26 CURVE SMOOTH",
"527 -26 OFFCURVE",
"632 90 OFFCURVE",
"632 257 CURVE SMOOTH",
"632 424 OFFCURVE",
"527 540 OFFCURVE",
"375 540 CURVE SMOOTH",
"337 540 OFFCURVE",
"303 531 OFFCURVE",
"273 514 CURVE",
"0 514 LINE",
"0 -188 LINE"
);
}
);
width = 632;
},
{
associatedMasterId = "598F5332-0C7A-49A1-B747-7EF928CD593D";
layerId = "D341D1CD-A6D5-490E-825D-C760E792DAC3";
name = bubble;
paths = (
{
closed = 1;
nodes = (
"186 -188 LINE",
"186 -27 LINE",
"224 -50 OFFCURVE",
"269 -62 OFFCURVE",
"318 -62 CURVE SMOOTH",
"478 -62 OFFCURVE",
"590 68 OFFCURVE",
"590 251 CURVE SMOOTH",
"590 434 OFFCURVE",
"478 564 OFFCURVE",
"318 564 CURVE SMOOTH",
"251 564 OFFCURVE",
"193 541 OFFCURVE",
"148 502 CURVE",
"0 502 LINE",
"0 -188 LINE"
);
}
);
width = 590;
}
);
leftKerningGroup = m;
rightKerningGroup = b;
unicode = 0070;
},
{
color = 1;
glyphname = q;
lastChange = "2019-08-05 04:54:43 +0000";
layers = (
{
layerId = "598F5332-0C7A-49A1-B747-7EF928CD593D";
paths = (
{
closed = 1;
nodes = (
"404 -12 OFFCURVE",
"494 95 OFFCURVE",
"494 251 CURVE SMOOTH",
"494 407 OFFCURVE",
"404 514 OFFCURVE",
"272 514 CURVE SMOOTH",
"140 514 OFFCURVE",
"50 407 OFFCURVE",
"50 251 CURVE SMOOTH",
"50 95 OFFCURVE",
"140 -12 OFFCURVE",
"272 -12 CURVE SMOOTH"
);
},
{
closed = 1;
nodes = (
"180 40 OFFCURVE",
"112 126 OFFCURVE",
"112 251 CURVE SMOOTH",
"112 376 OFFCURVE",
"180 462 OFFCURVE",
"280 462 CURVE SMOOTH",
"383 462 OFFCURVE",
"454 376 OFFCURVE",
"454 251 CURVE SMOOTH",
"454 126 OFFCURVE",
"383 40 OFFCURVE",
"280 40 CURVE SMOOTH"
);
},
{
closed = 1;
nodes = (
"514 -188 LINE",
"514 502 LINE",
"454 502 LINE",
"454 -188 LINE"
);
}
);
width = 590;
},
{
layerId = "F0C8AC16-97C4-4682-80FB-F8C7118623A9";
paths = (
{
closed = 1;
nodes = (
"383 -12 OFFCURVE",
"469 98 OFFCURVE",
"469 257 CURVE SMOOTH",
"469 416 OFFCURVE",
"383 526 OFFCURVE",
"257 526 CURVE SMOOTH",
"113 526 OFFCURVE",
"14 416 OFFCURVE",
"14 257 CURVE SMOOTH",
"14 98 OFFCURVE",
"113 -12 OFFCURVE",
"257 -12 CURVE SMOOTH"
);
},
{
closed = 1;
nodes = (
"226 140 OFFCURVE",
"183 188 OFFCURVE",
"183 257 CURVE SMOOTH",
"183 326 OFFCURVE",
"226 374 OFFCURVE",
"289 374 CURVE SMOOTH",
"358 374 OFFCURVE",
"405 326 OFFCURVE",
"405 257 CURVE SMOOTH",
"405 188 OFFCURVE",
"358 140 OFFCURVE",
"289 140 CURVE SMOOTH"
);
},
{
closed = 1;
nodes = (
"573 -188 LINE",
"573 514 LINE",
"405 514 LINE",
"405 -188 LINE"
);
}
);
width = 632;
},
{
associatedMasterId = "F0C8AC16-97C4-4682-80FB-F8C7118623A9";
layerId = "2CB371AE-372A-4C86-9EAC-182109EEB327";
name = bubble;
paths = (
{
closed = 1;
nodes = (
"632 -188 LINE",
"632 514 LINE",
"359 514 LINE",
"329 531 OFFCURVE",
"295 540 OFFCURVE",
"257 540 CURVE SMOOTH",
"105 540 OFFCURVE",
"0 424 OFFCURVE",
"0 257 CURVE SMOOTH",
"0 90 OFFCURVE",
"105 -26 OFFCURVE",
"257 -26 CURVE SMOOTH",
"294 -26 OFFCURVE",
"328 -17 OFFCURVE",
"359 -1 CURVE",
"359 -188 LINE"
);
}
);
width = 632;
},
{
associatedMasterId = "598F5332-0C7A-49A1-B747-7EF928CD593D";
layerId = "E36D34CC-A03B-44C6-AEE8-75E0B92D4B13";
name = bubble;
paths = (
{
closed = 1;
nodes = (
"590 -188 LINE",
"590 502 LINE",
"442 502 LINE",
"397 541 OFFCURVE",
"339 564 OFFCURVE",
"272 564 CURVE SMOOTH",
"112 564 OFFCURVE",
"0 434 OFFCURVE",
"0 251 CURVE SMOOTH",
"0 68 OFFCURVE",
"112 -62 OFFCURVE",
"272 -62 CURVE SMOOTH",
"321 -62 OFFCURVE",
"366 -50 OFFCURVE",
"404 -27 CURVE",
"404 -188 LINE"
);
}
);
width = 590;
}
);
leftKerningGroup = c;
rightKerningGroup = i;
unicode = 0071;
},
{
color = 1;
glyphname = r;
lastChange = "2019-08-05 04:56:17 +0000";
layers = (
{
layerId = "598F5332-0C7A-49A1-B747-7EF928CD593D";
paths = (
{
closed = 1;
nodes = (
"136 0 LINE",
"136 502 LINE",
"76 502 LINE",
"76 0 LINE"
);
},
{
closed = 1;
nodes = (
"136 398 OFFCURVE",
"196 458 OFFCURVE",
"282 458 CURVE SMOOTH",
"294 458 OFFCURVE",
"307 456 OFFCURVE",
"319 453 CURVE",
"321 513 LINE",
"315 513 OFFCURVE",
"309 514 OFFCURVE",
"303 514 CURVE SMOOTH",
"195 514 OFFCURVE",
"120 438 OFFCURVE",
"120 329 CURVE",
"136 312 LINE"
);
}
);
width = 353;
},
{
layerId = "F0C8AC16-97C4-4682-80FB-F8C7118623A9";
paths = (
{
closed = 1;
nodes = (
"223 0 LINE",
"223 514 LINE",
"55 514 LINE",
"55 0 LINE"
);
},
{
closed = 1;
nodes = (
"223 316 OFFCURVE",
"275 372 OFFCURVE",
"350 372 CURVE SMOOTH",
"356 372 OFFCURVE",
"364 372 OFFCURVE",
"368 371 CURVE",
"373 526 LINE",
"370 526 OFFCURVE",
"368 526 OFFCURVE",
"365 526 CURVE SMOOTH",
"271 526 OFFCURVE",
"205 448 OFFCURVE",
"205 336 CURVE",
"223 235 LINE"
);
}
);
width = 376;
},
{
associatedMasterId = "F0C8AC16-97C4-4682-80FB-F8C7118623A9";
layerId = "32A5F50C-CC6F-40BC-9850-11149B2F129D";
name = bubble;
paths = (
{
closed = 1;
nodes = (
"255 0 LINE",
"255 235 LINE SMOOTH",
"255 303 OFFCURVE",
"296 348 OFFCURVE",
"358 348 CURVE SMOOTH",
"364 348 OFFCURVE",
"370 348 OFFCURVE",
"376 348 CURVE",
"376 550 LINE",
"329 550 OFFCURVE",
"288 535 OFFCURVE",
"255 505 CURVE",
"255 514 LINE",
"0 514 LINE",
"0 0 LINE"
);
}
);
width = 376;
},
{
associatedMasterId = "598F5332-0C7A-49A1-B747-7EF928CD593D";
layerId = "1DD1D8B4-9D0F-4B29-8D5A-8F5C2AD34C51";
name = bubble;
paths = (
{
closed = 1;
nodes = (
"185 0 LINE",
"185 312 LINE SMOOTH",
"185 371 OFFCURVE",
"223 409 OFFCURVE",
"282 409 CURVE SMOOTH",
"311 409 OFFCURVE",
"336 399 OFFCURVE",
"353 381 CURVE",
"353 558 LINE",
"337 561 OFFCURVE",
"320 563 OFFCURVE",
"303 563 CURVE SMOOTH",
"238 563 OFFCURVE",
"182 540 OFFCURVE",
"142 502 CURVE",
"0 502 LINE",
"0 0 LINE"
);
}
);
width = 353;
}
);
leftKerningGroup = m;
rightKerningGroup = r;
unicode = 0072;
},
{
color = 1;
glyphname = s;
lastChange = "2019-11-30 01:52:30 +0000";
layers = (
{
layerId = "598F5332-0C7A-49A1-B747-7EF928CD593D";
paths = (
{
closed = 1;
nodes = (
"334 -12 OFFCURVE",
"403 46 OFFCURVE",
"403 130 CURVE SMOOTH",
"403 226 OFFCURVE",
"345 249 OFFCURVE",
"240 281 CURVE SMOOTH",
"174 301 OFFCURVE",
"128 317 OFFCURVE",
"128 374 CURVE SMOOTH",
"128 425 OFFCURVE",
"169 459 OFFCURVE",
"228 459 CURVE SMOOTH",
"281 459 OFFCURVE",
"331 434 OFFCURVE",
"365 386 CURVE",
"408 424 LINE",
"365 482 OFFCURVE",
"299 514 OFFCURVE",
"229 514 CURVE SMOOTH",
"134 514 OFFCURVE",
"67 455 OFFCURVE",
"67 372 CURVE SMOOTH",
"67 285 OFFCURVE",
"125 254 OFFCURVE",
"220 229 CURVE SMOOTH",
"290 209 OFFCURVE",
"342 195 OFFCURVE",
"342 129 CURVE SMOOTH",
"342 78 OFFCURVE",
"300 42 OFFCURVE",
"238 42 CURVE SMOOTH",
"174 42 OFFCURVE",
"110 77 OFFCURVE",
"78 134 CURVE",
"36 97 LINE",
"70 31 OFFCURVE",
"152 -12 OFFCURVE",
"237 -12 CURVE SMOOTH"
);
}
);
width = 453;
},
{
layerId = "F0C8AC16-97C4-4682-80FB-F8C7118623A9";
paths = (
{
closed = 1;
nodes = (
"358 -12 OFFCURVE",
"440 59 OFFCURVE",
"440 160 CURVE SMOOTH",
"440 260 OFFCURVE",
"362 305 OFFCURVE",
"244 331 CURVE SMOOTH",
"214 338 OFFCURVE",
"185 342 OFFCURVE",
"185 366 CURVE SMOOTH",
"185 381 OFFCURVE",
"200 390 OFFCURVE",
"222 390 CURVE SMOOTH",
"265 390 OFFCURVE",
"300 370 OFFCURVE",
"323 341 CURVE",
"431 422 LINE",
"399 473 OFFCURVE",
"334 529 OFFCURVE",
"231 529 CURVE SMOOTH",
"103 529 OFFCURVE",
"24 453 OFFCURVE",
"24 355 CURVE SMOOTH",
"24 260 OFFCURVE",
"95 216 OFFCURVE",
"199 193 CURVE SMOOTH",
"236 185 OFFCURVE",
"266 178 OFFCURVE",
"266 157 CURVE SMOOTH",
"266 141 OFFCURVE",
"249 128 OFFCURVE",
"224 128 CURVE SMOOTH",
"172 128 OFFCURVE",
"140 150 OFFCURVE",
"119 188 CURVE",
"6 103 LINE",
"36 49 OFFCURVE",
"111 -12 OFFCURVE",
"225 -12 CURVE SMOOTH"
);
}
);
width = 452;
},
{
associatedMasterId = "F0C8AC16-97C4-4682-80FB-F8C7118623A9";
layerId = "FBF8E00D-2DF3-429B-BB04-6092AB6BD254";
name = bubble;
paths = (
{
closed = 1;
nodes = (
"366 -35 OFFCURVE",
"452 43 OFFCURVE",
"452 160 CURVE SMOOTH",
"452 243 OFFCURVE",
"416 299 OFFCURVE",
"318 333 CURVE",
"447 439 LINE",
"399 511 OFFCURVE",
"321 552 OFFCURVE",
"231 552 CURVE SMOOTH",
"97 552 OFFCURVE",
"2 471 OFFCURVE",
"2 355 CURVE SMOOTH",
"2 277 OFFCURVE",
"43 223 OFFCURVE",
"128 191 CURVE",
"0 103 LINE",
"39 20 OFFCURVE",
"120 -35 OFFCURVE",
"225 -35 CURVE SMOOTH"
);
}
);
width = 452;
},
{
associatedMasterId = "598F5332-0C7A-49A1-B747-7EF928CD593D";
layerId = "9A97FD81-9270-4838-9376-F35ABA125BC6";
name = bubble;
paths = (
{
closed = 1;
nodes = (
"363 -42 OFFCURVE",
"453 33 OFFCURVE",
"453 138 CURVE SMOOTH",
"453 249 OFFCURVE",
"377 287 OFFCURVE",
"282 317 CURVE",
"449 441 LINE",
"397 507 OFFCURVE",
"317 544 OFFCURVE",
"230 544 CURVE SMOOTH",
"108 544 OFFCURVE",
"18 468 OFFCURVE",
"18 364 CURVE SMOOTH",
"18 280 OFFCURVE",
"63 230 OFFCURVE",
"165 198 CURVE",
"0 83 LINE",
"41 8 OFFCURVE",
"133 -42 OFFCURVE",
"238 -42 CURVE SMOOTH"
);
}
);
width = 453;
}
);
leftKerningGroup = s;
rightKerningGroup = s;
unicode = 0073;
},
{
color = 1;
glyphname = t;
lastChange = "2019-08-09 02:48:24 +0000";
layers = (
{
layerId = "598F5332-0C7A-49A1-B747-7EF928CD593D";
paths = (
{
closed = 1;
nodes = (
"303 -12 OFFCURVE",
"318 -10 OFFCURVE",
"332 -7 CURVE",
"327 43 LINE",
"319 42 OFFCURVE",
"310 41 OFFCURVE",
"301 41 CURVE SMOOTH",
"230 41 OFFCURVE",
"185 86 OFFCURVE",
"185 157 CURVE SMOOTH",
"185 446 LINE",
"315 446 LINE",
"315 502 LINE",
"185 502 LINE",
"185 648 LINE",
"125 648 LINE",
"125 502 LINE",
"34 502 LINE",
"34 446 LINE",
"125 446 LINE",
"125 145 LINE SMOOTH",
"125 49 OFFCURVE",
"187 -12 OFFCURVE",
"287 -12 CURVE SMOOTH"
);
}
);
width = 369;
},
{
layerId = "F0C8AC16-97C4-4682-80FB-F8C7118623A9";
paths = (
{
closed = 1;
nodes = (
"335 -12 OFFCURVE",
"365 -8 OFFCURVE",
"387 1 CURVE",
"378 141 LINE",
"362 134 OFFCURVE",
"348 130 OFFCURVE",
"335 130 CURVE SMOOTH",
"290 130 OFFCURVE",
"258 162 OFFCURVE",
"258 207 CURVE SMOOTH",
"258 369 LINE",
"375 369 LINE",
"375 514 LINE",
"258 514 LINE",
"258 655 LINE",
"90 655 LINE",
"90 514 LINE",
"5 514 LINE",
"5 369 LINE",
"90 369 LINE",
"90 189 LINE SMOOTH",
"90 71 OFFCURVE",
"177 -12 OFFCURVE",
"302 -12 CURVE SMOOTH"
);
}
);
width = 414;
},
{
associatedMasterId = "F0C8AC16-97C4-4682-80FB-F8C7118623A9";
layerId = "C1F21E55-CF6D-4D79-B36B-5C10511A94F8";
name = bubble;
paths = (
{
closed = 1;
nodes = (
"337 -36 OFFCURVE",
"367 -32 OFFCURVE",
"390 -24 CURVE",
"377 166 LINE",
"358 158 OFFCURVE",
"346 154 OFFCURVE",
"336 154 CURVE SMOOTH",
"304 154 OFFCURVE",
"283 175 OFFCURVE",
"283 207 CURVE SMOOTH",
"283 345 LINE",
"414 345 LINE",
"414 514 LINE",
"283 514 LINE",
"283 655 LINE",
"67 655 LINE",
"67 514 LINE",
"0 514 LINE",
"0 345 LINE",
"67 345 LINE",
"67 189 LINE SMOOTH",
"67 57 OFFCURVE",
"165 -36 OFFCURVE",
"303 -36 CURVE SMOOTH"
);
}
);
width = 414;
},
{
associatedMasterId = "598F5332-0C7A-49A1-B747-7EF928CD593D";
layerId = "D81F45D3-B93F-416E-BFFE-DF12FC87635D";
name = bubble;
paths = (
{
closed = 1;
nodes = (
"303 -61 OFFCURVE",
"320 -59 OFFCURVE",
"338 -56 CURVE",
"321 92 LINE",
"312 90 OFFCURVE",
"306 90 OFFCURVE",
"301 90 CURVE SMOOTH",
"257 90 OFFCURVE",
"234 113 OFFCURVE",
"234 157 CURVE SMOOTH",
"234 397 LINE",
"369 397 LINE",
"369 502 LINE",
"234 502 LINE",
"234 648 LINE",
"76 648 LINE",
"76 502 LINE",
"0 502 LINE",
"0 397 LINE",
"76 397 LINE",
"76 145 LINE SMOOTH",
"76 21 OFFCURVE",
"160 -61 OFFCURVE",
"287 -61 CURVE SMOOTH"
);
}
);
width = 369;
}
);
leftKerningGroup = t;
rightKerningGroup = t;
unicode = 0074;
},
{
color = 1;
glyphname = u;
lastChange = "2019-08-05 04:59:27 +0000";
layers = (
{
anchors = (
{
name = top;
position = "{274, 502}";
}
);
layerId = "598F5332-0C7A-49A1-B747-7EF928CD593D";
paths = (
{
closed = 1;
nodes = (
"343 -12 OFFCURVE",
"422 41 OFFCURVE",
"438 112 CURVE",
"420 187 LINE",
"420 104 OFFCURVE",
"357 41 OFFCURVE",
"274 41 CURVE SMOOTH",
"184 41 OFFCURVE",
"128 97 OFFCURVE",
"128 187 CURVE SMOOTH",
"128 502 LINE",
"68 502 LINE",
"68 173 LINE SMOOTH",
"68 63 OFFCURVE",
"143 -12 OFFCURVE",
"253 -12 CURVE SMOOTH"
);
},
{
closed = 1;
nodes = (
"480 0 LINE",
"480 502 LINE",
"420 502 LINE",
"420 0 LINE"
);
}
);
width = 556;
},
{
anchors = (
{
name = top;
position = "{287, 514}";
}
);
layerId = "F0C8AC16-97C4-4682-80FB-F8C7118623A9";
paths = (
{
closed = 1;
nodes = (
"305 -12 OFFCURVE",
"381 41 OFFCURVE",
"402 112 CURVE",
"364 219 LINE",
"364 173 OFFCURVE",
"333 142 OFFCURVE",
"287 142 CURVE SMOOTH",
"241 142 OFFCURVE",
"210 173 OFFCURVE",
"210 219 CURVE SMOOTH",
"210 514 LINE",
"42 514 LINE",
"42 168 LINE SMOOTH",
"42 65 OFFCURVE",
"119 -12 OFFCURVE",
"222 -12 CURVE SMOOTH"
);
},
{
closed = 1;
nodes = (
"532 0 LINE",
"532 514 LINE",
"364 514 LINE",
"364 0 LINE"
);
}
);
width = 587;
},
{
associatedMasterId = "F0C8AC16-97C4-4682-80FB-F8C7118623A9";
layerId = "19B78EB9-FB2C-4E9F-B8BF-A01492500BD9";
name = bubble;
paths = (
{
closed = 1;
nodes = (
"279 -54 OFFCURVE",
"333 -34 OFFCURVE",
"374 0 CURVE",
"587 0 LINE",
"587 514 LINE",
"0 514 LINE",
"0 168 LINE SMOOTH",
"0 42 OFFCURVE",
"96 -54 OFFCURVE",
"222 -54 CURVE SMOOTH"
);
}
);
width = 587;
},
{
associatedMasterId = "598F5332-0C7A-49A1-B747-7EF928CD593D";
layerId = "DC483981-B423-41CA-932C-2167E22ACB26";
name = bubble;
paths = (
{
closed = 1;
nodes = (
"0 26 OFFCURVE",
"105 -80 OFFCURVE",
"253 -80 CURVE SMOOTH",
"331 -80 OFFCURVE",
"403 -49 OFFCURVE",
"451 0 CURVE",
"556 0 LINE",
"556 502 LINE",
"0 502 LINE",
"0 173 LINE SMOOTH"
);
}
);
width = 556;
}
);
leftKerningGroup = u;
rightKerningGroup = u;
unicode = 0075;
},
{
color = 1;
glyphname = v;
lastChange = "2019-08-05 05:01:49 +0000";
layers = (
{
layerId = "598F5332-0C7A-49A1-B747-7EF928CD593D";
paths = (
{
closed = 1;
nodes = (
"317 0 LINE",
"530 502 LINE",
"461 502 LINE",
"282 79 LINE",
"101 502 LINE",
"32 502 LINE",
"248 0 LINE"
);
}
);
width = 562;
},
{
layerId = "F0C8AC16-97C4-4682-80FB-F8C7118623A9";
paths = (
{
closed = 1;
nodes = (
"352 0 LINE",
"527 514 LINE",
"349 514 LINE",
"262 206 LINE",
"173 514 LINE",
"-5 514 LINE",
"174 0 LINE"
);
}
);
width = 523;
},
{
associatedMasterId = "F0C8AC16-97C4-4682-80FB-F8C7118623A9";
layerId = "A678A499-4574-456A-8AB7-BAA8CBDB1B3D";
name = bubble;
paths = (
{
closed = 1;
nodes = (
"455 0 LINE",
"527 514 LINE",
"-5 514 LINE",
"67 0 LINE"
);
}
);
width = 523;
},
{
associatedMasterId = "598F5332-0C7A-49A1-B747-7EF928CD593D";
layerId = "F336E122-F011-469F-83FB-3F1CB17AB852";
name = bubble;
paths = (
{
closed = 1;
nodes = (
"463 0 LINE",
"562 502 LINE",
"0 502 LINE",
"99 0 LINE"
);
}
);
width = 562;
}
);
leftKerningGroup = v;
rightKerningGroup = v;
unicode = 0076;
},
{
color = 1;
glyphname = w;
lastChange = "2019-08-05 05:00:08 +0000";
layers = (
{
layerId = "598F5332-0C7A-49A1-B747-7EF928CD593D";
paths = (
{
closed = 1;
nodes = (
"274 0 LINE",
"410 414 LINE",
"547 0 LINE",
"614 0 LINE",
"786 502 LINE",
"719 502 LINE",
"580 88 LINE",
"444 502 LINE",
"377 502 LINE",
"240 88 LINE",
"101 502 LINE",
"34 502 LINE",
"207 0 LINE"
);
}
);
width = 820;
},
{
layerId = "F0C8AC16-97C4-4682-80FB-F8C7118623A9";
paths = (
{
closed = 1;
nodes = (
"336 0 LINE",
"410 332 LINE",
"485 0 LINE",
"659 0 LINE",
"822 514 LINE",
"648 514 LINE",
"571 182 LINE",
"497 514 LINE",
"323 514 LINE",
"248 182 LINE",
"171 514 LINE",
"-3 514 LINE",
"162 0 LINE"
);
}
);
width = 819;
},
{
associatedMasterId = "F0C8AC16-97C4-4682-80FB-F8C7118623A9";
layerId = "09DE88E7-40C7-474C-841F-A7450DDA1BD6";
name = bubble;
paths = (
{
closed = 1;
nodes = (
"761 0 LINE",
"822 514 LINE",
"-3 514 LINE",
"58 0 LINE"
);
}
);
width = 819;
},
{
associatedMasterId = "598F5332-0C7A-49A1-B747-7EF928CD593D";
layerId = "39626271-BBDB-435D-8EBF-12961EC5A814";
name = bubble;
paths = (
{
closed = 1;
nodes = (
"742 0 LINE",
"820 502 LINE",
"0 502 LINE",
"78 0 LINE"
);
}
);
width = 820;
}
);
leftKerningGroup = w;
rightKerningGroup = w;
unicode = 0077;
},
{
color = 1;
glyphname = x;
lastChange = "2019-08-05 05:00:48 +0000";
layers = (
{
layerId = "598F5332-0C7A-49A1-B747-7EF928CD593D";
paths = (
{
closed = 1;
nodes = (
"115 0 LINE",
"279 205 LINE",
"443 0 LINE",
"525 0 LINE",
"318 253 LINE",
"522 502 LINE",
"440 502 LINE",
"279 301 LINE",
"117 502 LINE",
"35 502 LINE",
"241 253 LINE",
"33 0 LINE"
);
}
);
width = 558;
},
{
layerId = "F0C8AC16-97C4-4682-80FB-F8C7118623A9";
paths = (
{
closed = 1;
nodes = (
"179 0 LINE",
"266 133 LINE",
"353 0 LINE",
"532 0 LINE",
"350 259 LINE",
"529 514 LINE",
"350 514 LINE",
"266 385 LINE",
"181 514 LINE",
"2 514 LINE",
"181 259 LINE",
"0 0 LINE"
);
}
);
width = 532;
},
{
associatedMasterId = "F0C8AC16-97C4-4682-80FB-F8C7118623A9";
layerId = "F7D8DDA9-2F00-496F-BB7C-91FB116E4AC2";
name = bubble;
paths = (
{
closed = 1;
nodes = (
"532 0 LINE",
"462 259 LINE",
"531 514 LINE",
"1 514 LINE",
"70 259 LINE",
"0 0 LINE"
);
}
);
width = 532;
},
{
associatedMasterId = "598F5332-0C7A-49A1-B747-7EF928CD593D";
layerId = "A5C0E3CA-0A46-4F92-8E5A-073846FD4C23";
name = bubble;
paths = (
{
closed = 1;
nodes = (
"558 0 LINE",
"463 253 LINE",
"556 502 LINE",
"1 502 LINE",
"95 253 LINE",
"0 0 LINE"
);
}
);
width = 558;
}
);
leftKerningGroup = x;
rightKerningGroup = x;
unicode = 0078;
},
{
color = 1;
glyphname = y;
lastChange = "2019-08-05 05:02:33 +0000";
layers = (
{
layerId = "598F5332-0C7A-49A1-B747-7EF928CD593D";
paths = (
{
closed = 1;
nodes = (
"188 -188 LINE",
"509 502 LINE",
"437 502 LINE",
"270 137 LINE",
"104 502 LINE",
"32 502 LINE",
"234 66 LINE",
"116 -188 LINE"
);
}
);
width = 541;
},
{
layerId = "F0C8AC16-97C4-4682-80FB-F8C7118623A9";
paths = (
{
closed = 1;
nodes = (
"261 -188 LINE",
"576 514 LINE",
"397 514 LINE",
"288 263 LINE",
"169 514 LINE",
"-10 514 LINE",
"204 84 LINE",
"82 -188 LINE"
);
}
);
width = 567;
},
{
associatedMasterId = "F0C8AC16-97C4-4682-80FB-F8C7118623A9";
layerId = "F5D49D28-74DC-48E8-8DAA-79288700C991";
name = bubble;
paths = (
{
closed = 1;
nodes = (
"286 -188 LINE",
"576 514 LINE",
"-10 514 LINE",
"76 83 LINE",
"55 -188 LINE"
);
}
);
width = 567;
},
{
associatedMasterId = "598F5332-0C7A-49A1-B747-7EF928CD593D";
layerId = "D7FF3758-C29D-4655-9C73-21B0855D4511";
name = bubble;
paths = (
{
closed = 1;
nodes = (
"240 -188 LINE",
"541 502 LINE",
"0 502 LINE",
"87 66 LINE",
"62 -188 LINE"
);
}
);
width = 541;
}
);
leftKerningGroup = y;
rightKerningGroup = y;
unicode = 0079;
},
{
color = 1;
glyphname = z;
lastChange = "2019-08-05 05:02:53 +0000";
layers = (
{
layerId = "598F5332-0C7A-49A1-B747-7EF928CD593D";
paths = (
{
closed = 1;
nodes = (
"459 0 LINE",
"459 56 LINE",
"131 56 LINE",
"463 450 LINE",
"463 502 LINE",
"47 502 LINE",
"47 446 LINE",
"375 446 LINE",
"41 49 LINE",
"41 0 LINE"
);
}
);
width = 505;
},
{
layerId = "F0C8AC16-97C4-4682-80FB-F8C7118623A9";
paths = (
{
closed = 1;
nodes = (
"459 0 LINE",
"459 145 LINE",
"240 145 LINE",
"449 391 LINE",
"449 514 LINE",
"34 514 LINE",
"34 369 LINE",
"252 369 LINE",
"29 106 LINE",
"29 0 LINE"
);
}
);
width = 489;
},
{
associatedMasterId = "F0C8AC16-97C4-4682-80FB-F8C7118623A9";
layerId = "55CF86EA-0D98-4F7D-A67B-5609718F919E";
name = bubble;
paths = (
{
closed = 1;
nodes = (
"489 0 LINE",
"489 514 LINE",
"0 514 LINE",
"0 0 LINE"
);
}
);
width = 489;
},
{
associatedMasterId = "598F5332-0C7A-49A1-B747-7EF928CD593D";
layerId = "2857746D-736E-432F-B4A6-6FDF434814DC";
name = bubble;
paths = (
{
closed = 1;
nodes = (
"503 0 LINE",
"503 502 LINE",
"0 502 LINE",
"0 0 LINE"
);
}
);
width = 505;
}
);
leftKerningGroup = z;
rightKerningGroup = z;
unicode = 007A;
},
{
color = 1;
glyphname = a.009;
lastChange = "2019-04-09 12:59:35 +0000";
layers = (
{
layerId = "598F5332-0C7A-49A1-B747-7EF928CD593D";
paths = (
{
closed = 1;
nodes = (
"312 -12 OFFCURVE",
"369 21 OFFCURVE",
"419 83 CURVE",
"419 0 LINE",
"479 0 LINE",
"479 298 LINE SMOOTH",
"479 426 OFFCURVE",
"391 515 OFFCURVE",
"265 515 CURVE SMOOTH",
"177 515 OFFCURVE",
"108 489 OFFCURVE",
"64 440 CURVE",
"104 400 LINE",
"140 441 OFFCURVE",
"194 462 OFFCURVE",
"262 462 CURVE SMOOTH",
"352 462 OFFCURVE",
"416 393 OFFCURVE",
"418 295 CURVE SMOOTH",
"419 251 LINE",
"352 292 OFFCURVE",
"289 314 OFFCURVE",
"235 314 CURVE SMOOTH",
"124 314 OFFCURVE",
"47 246 OFFCURVE",
"47 148 CURVE SMOOTH",
"47 54 OFFCURVE",
"125 -12 OFFCURVE",
"236 -12 CURVE SMOOTH"
);
},
{
closed = 1;
nodes = (
"167 40 OFFCURVE",
"109 85 OFFCURVE",
"109 150 CURVE SMOOTH",
"109 216 OFFCURVE",
"164 262 OFFCURVE",
"243 262 CURVE SMOOTH",
"300 262 OFFCURVE",
"359 242 OFFCURVE",
"419 203 CURVE",
"422 107 OFFCURVE",
"357 40 OFFCURVE",
"249 40 CURVE SMOOTH"
);
}
);
width = 555;
},
{
layerId = "F0C8AC16-97C4-4682-80FB-F8C7118623A9";
paths = (
{
closed = 1;
nodes = (
"274 -12 OFFCURVE",
"316 6 OFFCURVE",
"351 40 CURVE",
"351 0 LINE",
"503 0 LINE",
"503 293 LINE SMOOTH",
"503 431 OFFCURVE",
"398 527 OFFCURVE",
"249 526 CURVE SMOOTH",
"172 525 OFFCURVE",
"101 494 OFFCURVE",
"40 436 CURVE",
"132 344 LINE",
"170 372 OFFCURVE",
"207 386 OFFCURVE",
"239 386 CURVE SMOOTH",
"305 386 OFFCURVE",
"351 344 OFFCURVE",
"351 283 CURVE SMOOTH",
"351 282 LINE",
"311 303 OFFCURVE",
"270 314 OFFCURVE",
"222 314 CURVE SMOOTH",
"107 314 OFFCURVE",
"27 246 OFFCURVE",
"27 148 CURVE SMOOTH",
"27 54 OFFCURVE",
"106 -12 OFFCURVE",
"220 -12 CURVE SMOOTH"
);
},
{
closed = 1;
nodes = (
"225 99 OFFCURVE",
"195 120 OFFCURVE",
"195 151 CURVE SMOOTH",
"195 182 OFFCURVE",
"221 204 OFFCURVE",
"259 204 CURVE SMOOTH",
"293 204 OFFCURVE",
"322 192 OFFCURVE",
"351 168 CURVE",
"350 127 OFFCURVE",
"318 99 OFFCURVE",
"268 99 CURVE SMOOTH"
);
}
);
width = 550;
}
);
leftKerningGroup = a;
rightKerningGroup = a;
},
{
color = 1;
glyphname = a.alt;
lastChange = "2019-04-16 09:29:03 +0000";
layers = (
{
layerId = "598F5332-0C7A-49A1-B747-7EF928CD593D";
paths = (
{
closed = 1;
nodes = (
"405 -12 OFFCURVE",
"495 95 OFFCURVE",
"495 251 CURVE SMOOTH",
"495 407 OFFCURVE",
"405 514 OFFCURVE",
"273 514 CURVE SMOOTH",
"141 514 OFFCURVE",
"51 407 OFFCURVE",
"51 251 CURVE SMOOTH",
"51 95 OFFCURVE",
"141 -12 OFFCURVE",
"273 -12 CURVE SMOOTH"
);
},
{
closed = 1;
nodes = (
"181 40 OFFCURVE",
"113 126 OFFCURVE",
"113 251 CURVE SMOOTH",
"113 376 OFFCURVE",
"181 462 OFFCURVE",
"281 462 CURVE SMOOTH",
"384 462 OFFCURVE",
"455 376 OFFCURVE",
"455 251 CURVE SMOOTH",
"455 126 OFFCURVE",
"384 40 OFFCURVE",
"281 40 CURVE SMOOTH"
);
},
{
closed = 1;
nodes = (
"515 0 LINE",
"515 502 LINE",
"455 502 LINE",
"455 0 LINE"
);
}
);
width = 591;
},
{
layerId = "F0C8AC16-97C4-4682-80FB-F8C7118623A9";
paths = (
{
closed = 1;
nodes = (
"395 -12 OFFCURVE",
"481 98 OFFCURVE",
"481 257 CURVE SMOOTH",
"481 416 OFFCURVE",
"395 526 OFFCURVE",
"269 526 CURVE SMOOTH",
"125 526 OFFCURVE",
"26 416 OFFCURVE",
"26 257 CURVE SMOOTH",
"26 98 OFFCURVE",
"125 -12 OFFCURVE",
"269 -12 CURVE SMOOTH"
);
},
{
closed = 1;
nodes = (
"238 140 OFFCURVE",
"195 188 OFFCURVE",
"195 257 CURVE SMOOTH",
"195 326 OFFCURVE",
"238 374 OFFCURVE",
"301 374 CURVE SMOOTH",
"370 374 OFFCURVE",
"417 326 OFFCURVE",
"417 257 CURVE SMOOTH",
"417 188 OFFCURVE",
"370 140 OFFCURVE",
"301 140 CURVE SMOOTH"
);
},
{
closed = 1;
nodes = (
"585 0 LINE",
"585 514 LINE",
"417 514 LINE",
"417 0 LINE"
);
}
);
width = 648;
},
{
associatedMasterId = "F0C8AC16-97C4-4682-80FB-F8C7118623A9";
layerId = "A8FB89F3-EF84-4E17-9E26-B844CC971E9A";
name = bubble;
paths = (
{
closed = 1;
nodes = (
"410 -38 OFFCURVE",
"507 83 OFFCURVE",
"507 257 CURVE SMOOTH",
"507 431 OFFCURVE",
"410 552 OFFCURVE",
"269 552 CURVE SMOOTH",
"110 552 OFFCURVE",
"0 430 OFFCURVE",
"0 257 CURVE SMOOTH",
"0 84 OFFCURVE",
"110 -38 OFFCURVE",
"269 -38 CURVE SMOOTH"
);
},
{
closed = 1;
nodes = (
"648 0 LINE",
"648 514 LINE",
"391 514 LINE",
"391 0 LINE"
);
}
);
width = 648;
},
{
associatedMasterId = "598F5332-0C7A-49A1-B747-7EF928CD593D";
layerId = "3F8ECFCC-2BC7-4062-A975-AB35C9D66BC5";
name = bubble;
paths = (
{
closed = 1;
nodes = (
"434 -63 OFFCURVE",
"546 67 OFFCURVE",
"546 251 CURVE SMOOTH",
"546 435 OFFCURVE",
"434 565 OFFCURVE",
"273 565 CURVE SMOOTH",
"112 565 OFFCURVE",
"0 435 OFFCURVE",
"0 251 CURVE SMOOTH",
"0 67 OFFCURVE",
"112 -63 OFFCURVE",
"273 -63 CURVE SMOOTH"
);
},
{
closed = 1;
nodes = (
"591 0 LINE",
"591 502 LINE",
"404 502 LINE",
"404 0 LINE"
);
}
);
width = 591;
}
);
leftKerningGroup = c;
rightKerningGroup = i;
},
{
color = 1;
glyphname = u.alt;
lastChange = "2019-05-01 12:44:10 +0000";
layers = (
{
anchors = (
{
name = top;
position = "{273, 502}";
}
);
layerId = "598F5332-0C7A-49A1-B747-7EF928CD593D";
paths = (
{
closed = 1;
nodes = (
"394 -12 OFFCURVE",
"479 73 OFFCURVE",
"479 194 CURVE SMOOTH",
"479 502 LINE",
"419 502 LINE",
"419 187 LINE SMOOTH",
"419 101 OFFCURVE",
"359 41 OFFCURVE",
"273 41 CURVE SMOOTH",
"187 41 OFFCURVE",
"127 101 OFFCURVE",
"127 187 CURVE SMOOTH",
"127 502 LINE",
"67 502 LINE",
"67 194 LINE SMOOTH",
"67 73 OFFCURVE",
"152 -12 OFFCURVE",
"273 -12 CURVE SMOOTH"
);
}
);
width = 546;
},
{
anchors = (
{
name = top;
position = "{291, 514}";
}
);
layerId = "F0C8AC16-97C4-4682-80FB-F8C7118623A9";
paths = (
{
closed = 1;
nodes = (
"435 -12 OFFCURVE",
"536 89 OFFCURVE",
"536 233 CURVE",
"536 514 LINE",
"368 514 LINE",
"368 219 LINE SMOOTH",
"368 174 OFFCURVE",
"336 142 OFFCURVE",
"291 142 CURVE SMOOTH",
"246 142 OFFCURVE",
"214 174 OFFCURVE",
"214 219 CURVE SMOOTH",
"214 514 LINE",
"46 514 LINE",
"46 233 LINE SMOOTH",
"46 89 OFFCURVE",
"147 -12 OFFCURVE",
"291 -12 CURVE"
);
}
);
width = 582;
},
{
associatedMasterId = "F0C8AC16-97C4-4682-80FB-F8C7118623A9";
layerId = "9BA3B6C5-75A9-4207-B67A-26D191A1E8B1";
name = bubble;
paths = (
{
closed = 1;
nodes = (
"460 -58 OFFCURVE",
"582 64 OFFCURVE",
"582 233 CURVE SMOOTH",
"582 514 LINE",
"0 514 LINE",
"0 233 LINE SMOOTH",
"0 64 OFFCURVE",
"122 -58 OFFCURVE",
"291 -58 CURVE SMOOTH"
);
}
);
width = 582;
},
{
associatedMasterId = "598F5332-0C7A-49A1-B747-7EF928CD593D";
layerId = "C4885B75-973D-4957-B5A5-585BE43FA682";
name = bubble;
paths = (
{
closed = 1;
nodes = (
"431 -79 OFFCURVE",
"546 36 OFFCURVE",
"546 194 CURVE SMOOTH",
"546 502 LINE",
"0 502 LINE",
"0 194 LINE SMOOTH",
"0 36 OFFCURVE",
"115 -79 OFFCURVE",
"273 -79 CURVE SMOOTH"
);
}
);
width = 546;
}
);
leftKerningGroup = u;
rightKerningGroup = u;
},
{
export = 0;
glyphname = a.001;
lastChange = "2019-01-06 05:56:59 +0000";
layers = (
{
backgroundImage = {
crop = "{{0, 0}, {52, 52}}";
imagePath = "../../../Desktop/Screen Shot 2018-12-27 at 8.46.55 pm.png";
locked = "1";
transform = "{18.3461, 0, 0, 18.3461, 21, -117}";
};
layerId = "598F5332-0C7A-49A1-B747-7EF928CD593D";
paths = (
{
closed = 1;
nodes = (
"1449 201 OFFCURVE",
"1545 265 OFFCURVE",
"1545 357 CURVE SMOOTH",
"1545 450 OFFCURVE",
"1449 514 OFFCURVE",
"1310 514 CURVE SMOOTH",
"1170 514 OFFCURVE",
"1074 450 OFFCURVE",
"1074 357 CURVE SMOOTH",
"1074 265 OFFCURVE",
"1170 201 OFFCURVE",
"1310 201 CURVE SMOOTH"
);
},
{
closed = 1;
nodes = (
"115 0 LINE",
"115 708 LINE",
"51 708 LINE",
"51 0 LINE"
);
},
{
closed = 0;
nodes = (
"353 220 LINE"
);
},
{
closed = 0;
nodes = (
"721 138 LINE",
"721 227 OFFCURVE",
"618 282 OFFCURVE",
"500 282 CURVE SMOOTH",
"380 282 OFFCURVE",
"289 215 OFFCURVE",
"289 138 CURVE SMOOTH",
"289 63 OFFCURVE",
"383 -4 OFFCURVE",
"503 -4 CURVE SMOOTH",
"621 -4 OFFCURVE",
"721 63 OFFCURVE",
"721 138 CURVE SMOOTH",
"721 319 LINE SMOOTH",
"721 412 OFFCURVE",
"626 488 OFFCURVE",
"506 488 CURVE SMOOTH",
"386 488 OFFCURVE",
"291 412 OFFCURVE",
"291 319 CURVE"
);
},
{
closed = 0;
nodes = (
"353 430 LINE"
);
},
{
closed = 0;
nodes = (
"1165 435 LINE"
);
},
{
closed = 1;
nodes = (
"1206 253 OFFCURVE",
"1134 295 OFFCURVE",
"1134 357 CURVE SMOOTH",
"1134 419 OFFCURVE",
"1206 462 OFFCURVE",
"1310 462 CURVE SMOOTH",
"1414 462 OFFCURVE",
"1485 419 OFFCURVE",
"1485 357 CURVE SMOOTH",
"1485 295 OFFCURVE",
"1414 253 OFFCURVE",
"1310 253 CURVE SMOOTH"
);
},
{
closed = 1;
nodes = (
"691 401 OFFCURVE",
"612 464 OFFCURVE",
"506 464 CURVE",
"399 464 OFFCURVE",
"318 400 OFFCURVE",
"318 317 CURVE",
"318 303 OFFCURVE",
"307 293 OFFCURVE",
"291 293 CURVE SMOOTH",
"273 293 OFFCURVE",
"261 304 OFFCURVE",
"261 319 CURVE",
"262 439 OFFCURVE",
"362 518 OFFCURVE",
"506 514 CURVE",
"651 517 OFFCURVE",
"751 437 OFFCURVE",
"751 317 CURVE SMOOTH",
"751 0 LINE",
"691 0 LINE",
"691 319 LINE"
);
},
{
closed = 1;
nodes = (
"713 49 OFFCURVE",
"628 -12 OFFCURVE",
"503 -12 CURVE",
"361 -12 OFFCURVE",
"263 49 OFFCURVE",
"263 138 CURVE",
"263 238 OFFCURVE",
"359 306 OFFCURVE",
"500 306 CURVE",
"626 302 OFFCURVE",
"713 234 OFFCURVE",
"713 138 CURVE SMOOTH"
);
},
{
closed = 1;
nodes = (
"325 207 OFFCURVE",
"400 258 OFFCURVE",
"500 258 CURVE",
"609 258 OFFCURVE",
"691 207 OFFCURVE",
"691 138 CURVE",
"691 69 OFFCURVE",
"610 18 OFFCURVE",
"503 18 CURVE",
"401 12 OFFCURVE",
"325 63 OFFCURVE",
"325 138 CURVE"
);
},
{
closed = 1;
nodes = (
"1825 212 OFFCURVE",
"1896 258 OFFCURVE",
"2008 258 CURVE",
"2116 258 OFFCURVE",
"2191 209 OFFCURVE",
"2191 138 CURVE",
"2191 67 OFFCURVE",
"2116 18 OFFCURVE",
"2008 18 CURVE",
"1900 11 OFFCURVE",
"1825 60 OFFCURVE",
"1825 138 CURVE"
);
},
{
closed = 1;
nodes = (
"1720 502 LINE",
"1720 806 LINE",
"650 806 LINE",
"650 502 LINE"
);
},
{
closed = 1;
nodes = (
"1761 439 OFFCURVE",
"1862 518 OFFCURVE",
"2006 514 CURVE",
"2151 517 OFFCURVE",
"2251 437 OFFCURVE",
"2251 317 CURVE SMOOTH",
"2251 0 LINE",
"2191 0 LINE",
"2193 107 LINE",
"2210 138 LINE",
"2210 49 OFFCURVE",
"2119 -12 OFFCURVE",
"1987 -12 CURVE SMOOTH",
"1854 -12 OFFCURVE",
"1763 49 OFFCURVE",
"1763 138 CURVE SMOOTH",
"1763 241 OFFCURVE",
"1849 306 OFFCURVE",
"1987 306 CURVE SMOOTH",
"2119 306 OFFCURVE",
"2210 238 OFFCURVE",
"2210 138 CURVE",
"2191 174 LINE",
"2191 319 LINE SMOOTH",
"2191 401 OFFCURVE",
"2112 464 OFFCURVE",
"2006 464 CURVE SMOOTH",
"1899 464 OFFCURVE",
"1818 400 OFFCURVE",
"1818 317 CURVE SMOOTH",
"1818 303 OFFCURVE",
"1807 293 OFFCURVE",
"1791 293 CURVE SMOOTH",
"1773 293 OFFCURVE",
"1761 304 OFFCURVE",
"1761 319 CURVE SMOOTH"
);
},
{
closed = 0;
nodes = (
"505 145 LINE",
"199 554 LINE"
);
},
{
closed = 1;
nodes = (
"1440 -4 OFFCURVE",
"1550 105 OFFCURVE",
"1550 242 CURVE SMOOTH",
"1550 378 OFFCURVE",
"1440 488 OFFCURVE",
"1304 488 CURVE SMOOTH",
"1168 488 OFFCURVE",
"1058 380 OFFCURVE",
"1058 242 CURVE SMOOTH",
"1058 105 OFFCURVE",
"1168 -4 OFFCURVE",
"1304 -4 CURVE SMOOTH"
);
},
{
closed = 0;
nodes = (
"1550 -4 LINE",
"1058 488 LINE"
);
},
{
closed = 1;
nodes = (
"1758 488 LINE",
"1892 354 LINE",
"1780 263 LINE",
"1708 275 LINE"
);
}
);
width = 600;
},
{
layerId = "F0C8AC16-97C4-4682-80FB-F8C7118623A9";
width = 600;
}
);
},
{
export = 0;
glyphname = b.001;
lastChange = "2019-01-06 05:56:59 +0000";
layers = (
{
layerId = "598F5332-0C7A-49A1-B747-7EF928CD593D";
paths = (
{
closed = 1;
nodes = (
"464 -12 OFFCURVE",
"554 95 OFFCURVE",
"554 251 CURVE SMOOTH",
"554 407 OFFCURVE",
"464 514 OFFCURVE",
"332 514 CURVE SMOOTH",
"200 514 OFFCURVE",
"110 407 OFFCURVE",
"110 251 CURVE SMOOTH",
"110 95 OFFCURVE",
"200 -12 OFFCURVE",
"332 -12 CURVE SMOOTH"
);
},
{
closed = 1;
nodes = (
"221 40 OFFCURVE",
"150 126 OFFCURVE",
"150 251 CURVE SMOOTH",
"150 376 OFFCURVE",
"221 462 OFFCURVE",
"324 462 CURVE SMOOTH",
"424 462 OFFCURVE",
"492 376 OFFCURVE",
"492 251 CURVE SMOOTH",
"492 126 OFFCURVE",
"424 40 OFFCURVE",
"324 40 CURVE SMOOTH"
);
},
{
closed = 1;
nodes = (
"150 0 LINE",
"150 736 LINE",
"90 736 LINE",
"90 0 LINE"
);
}
);
width = 600;
},
{
layerId = "F0C8AC16-97C4-4682-80FB-F8C7118623A9";
paths = (
{
closed = 1;
nodes = (
"519 -12 OFFCURVE",
"618 98 OFFCURVE",
"618 257 CURVE SMOOTH",
"618 416 OFFCURVE",
"519 526 OFFCURVE",
"375 526 CURVE SMOOTH",
"249 526 OFFCURVE",
"163 416 OFFCURVE",
"163 257 CURVE SMOOTH",
"163 98 OFFCURVE",
"249 -12 OFFCURVE",
"375 -12 CURVE SMOOTH"
);
},
{
closed = 1;
nodes = (
"227 0 LINE",
"227 740 LINE",
"59 740 LINE",
"59 0 LINE"
);
},
{
closed = 1;
nodes = (
"274 140 OFFCURVE",
"227 188 OFFCURVE",
"227 257 CURVE SMOOTH",
"227 326 OFFCURVE",
"274 374 OFFCURVE",
"343 374 CURVE SMOOTH",
"406 374 OFFCURVE",
"449 326 OFFCURVE",
"449 257 CURVE SMOOTH",
"449 188 OFFCURVE",
"406 140 OFFCURVE",
"343 140 CURVE SMOOTH"
);
}
);
width = 600;
}
);
},
{
export = 0;
glyphname = c.001;
lastChange = "2019-01-06 05:56:59 +0000";
layers = (
{
layerId = "598F5332-0C7A-49A1-B747-7EF928CD593D";
paths = (
{
closed = 1;
nodes = (
"458 -12 OFFCURVE",
"563 95 OFFCURVE",
"563 251 CURVE SMOOTH",
"563 407 OFFCURVE",
"458 514 OFFCURVE",
"305 514 CURVE SMOOTH",
"152 514 OFFCURVE",
"47 407 OFFCURVE",
"47 251 CURVE SMOOTH",
"47 95 OFFCURVE",
"152 -12 OFFCURVE",
"305 -12 CURVE SMOOTH"
);
},
{
closed = 1;
nodes = (
"189 40 OFFCURVE",
"109 126 OFFCURVE",
"109 251 CURVE SMOOTH",
"109 376 OFFCURVE",
"189 462 OFFCURVE",
"305 462 CURVE SMOOTH",
"421 462 OFFCURVE",
"501 376 OFFCURVE",
"501 251 CURVE SMOOTH",
"501 126 OFFCURVE",
"421 40 OFFCURVE",
"305 40 CURVE SMOOTH"
);
},
{
closed = 1;
nodes = (
"632 613 LINE",
"305 251 LINE",
"632 -111 LINE"
);
},
{
closed = 1;
nodes = (
"1532 502 LINE",
"1078 502 LINE",
"1532 0 LINE"
);
}
);
width = 600;
},
{
layerId = "F0C8AC16-97C4-4682-80FB-F8C7118623A9";
paths = (
{
closed = 1;
nodes = (
"460 -12 OFFCURVE",
"570 98 OFFCURVE",
"570 257 CURVE SMOOTH",
"570 416 OFFCURVE",
"460 526 OFFCURVE",
"300 526 CURVE SMOOTH",
"140 526 OFFCURVE",
"30 416 OFFCURVE",
"30 257 CURVE SMOOTH",
"30 98 OFFCURVE",
"140 -12 OFFCURVE",
"300 -12 CURVE SMOOTH"
);
},
{
closed = 1;
nodes = (
"54 120 OFFCURVE",
"164 11 OFFCURVE",
"300 11 CURVE SMOOTH",
"436 11 OFFCURVE",
"546 120 OFFCURVE",
"546 257 CURVE SMOOTH",
"546 393 OFFCURVE",
"436 503 OFFCURVE",
"300 503 CURVE SMOOTH",
"164 503 OFFCURVE",
"54 395 OFFCURVE",
"54 257 CURVE SMOOTH"
);
},
{
closed = 1;
nodes = (
"241 142 OFFCURVE",
"200 189 OFFCURVE",
"200 257 CURVE SMOOTH",
"200 325 OFFCURVE",
"241 372 OFFCURVE",
"300 372 CURVE SMOOTH",
"359 372 OFFCURVE",
"400 325 OFFCURVE",
"400 257 CURVE SMOOTH",
"400 189 OFFCURVE",
"359 142 OFFCURVE",
"300 142 CURVE SMOOTH"
);
},
{
closed = 1;
nodes = (
"632 513 LINE",
"349 311 LINE",
"349 191 LINE",
"632 -11 LINE"
);
},
{
closed = 1;
nodes = (
"664 206 LINE",
"731 206 LINE",
"731 293 LINE",
"664 293 LINE"
);
}
);
width = 600;
}
);
},
{
color = 1;
export = 0;
glyphname = g.001;
lastChange = "2019-02-10 10:19:28 +0000";
layers = (
{
layerId = "598F5332-0C7A-49A1-B747-7EF928CD593D";
paths = (
{
closed = 1;
nodes = (
"394 -200 OFFCURVE",
"484 -110 OFFCURVE",
"484 18 CURVE SMOOTH",
"484 502 LINE",
"424 502 LINE",
"424 10 LINE SMOOTH",
"424 -83 OFFCURVE",
"359 -148 OFFCURVE",
"266 -148 CURVE SMOOTH",
"192 -148 OFFCURVE",
"134 -123 OFFCURVE",
"96 -75 CURVE",
"56 -116 LINE",
"106 -171 OFFCURVE",
"178 -200 OFFCURVE",
"266 -200 CURVE SMOOTH"
);
},
{
closed = 1;
nodes = (
"382 24 OFFCURVE",
"464 125 OFFCURVE",
"464 269 CURVE SMOOTH",
"464 413 OFFCURVE",
"382 514 OFFCURVE",
"264 514 CURVE SMOOTH",
"133 514 OFFCURVE",
"42 413 OFFCURVE",
"42 269 CURVE SMOOTH",
"42 125 OFFCURVE",
"133 24 OFFCURVE",
"264 24 CURVE SMOOTH"
);
},
{
closed = 1;
nodes = (
"170 76 OFFCURVE",
"104 155 OFFCURVE",
"104 269 CURVE SMOOTH",
"104 383 OFFCURVE",
"170 462 OFFCURVE",
"264 462 CURVE SMOOTH",
"358 462 OFFCURVE",
"424 383 OFFCURVE",
"424 269 CURVE SMOOTH",
"424 155 OFFCURVE",
"358 76 OFFCURVE",
"264 76 CURVE SMOOTH"
);
}
);
width = 562;
},
{
layerId = "F0C8AC16-97C4-4682-80FB-F8C7118623A9";
paths = (
{
closed = 1;
nodes = (
"391 24 OFFCURVE",
"479 127 OFFCURVE",
"479 275 CURVE SMOOTH",
"479 423 OFFCURVE",
"391 526 OFFCURVE",
"266 526 CURVE SMOOTH",
"132 526 OFFCURVE",
"39 423 OFFCURVE",
"39 275 CURVE SMOOTH",
"39 126 OFFCURVE",
"132 23 OFFCURVE",
"266 24 CURVE"
);
},
{
closed = 1;
nodes = (
"250 176 OFFCURVE",
"207 217 OFFCURVE",
"207 275 CURVE SMOOTH",
"207 333 OFFCURVE",
"250 374 OFFCURVE",
"311 374 CURVE SMOOTH",
"372 374 OFFCURVE",
"415 333 OFFCURVE",
"415 275 CURVE SMOOTH",
"415 217 OFFCURVE",
"372 176 OFFCURVE",
"311 176 CURVE SMOOTH"
);
},
{
closed = 1;
nodes = (
"466 -200 OFFCURVE",
"583 -83 OFFCURVE",
"583 84 CURVE SMOOTH",
"583 514 LINE",
"415 514 LINE",
"415 52 LINE SMOOTH",
"415 -16 OFFCURVE",
"367 -64 OFFCURVE",
"299 -64 CURVE SMOOTH",
"219 -64 OFFCURVE",
"150 -32 OFFCURVE",
"98 30 CURVE",
"202 63 LINE",
"3 -146 LINE",
"10 -58 LINE",
"96 -151 OFFCURVE",
"195 -200 OFFCURVE",
"299 -200 CURVE SMOOTH"
);
}
);
width = 600;
}
);
},
{
export = 0;
glyphname = r.001;
lastChange = "2019-02-10 10:19:28 +0000";
layers = (
{
layerId = "598F5332-0C7A-49A1-B747-7EF928CD593D";
paths = (
{
closed = 1;
nodes = (
"502 0 LINE",
"502 329 LINE SMOOTH",
"502 439 OFFCURVE",
"427 514 OFFCURVE",
"317 514 CURVE SMOOTH",
"227 514 OFFCURVE",
"148 461 OFFCURVE",
"132 390 CURVE",
"150 315 LINE",
"150 398 OFFCURVE",
"213 461 OFFCURVE",
"296 461 CURVE SMOOTH",
"386 461 OFFCURVE",
"442 405 OFFCURVE",
"442 315 CURVE SMOOTH",
"442 0 LINE"
);
},
{
closed = 1;
nodes = (
"150 0 LINE",
"150 502 LINE",
"90 502 LINE",
"90 0 LINE"
);
},
{
closed = 1;
nodes = (
"529 0 LINE",
"402 0 LINE",
"402 338 LINE",
"529 419 LINE"
);
},
{
closed = 1;
nodes = (
"326 328 LINE",
"556 306 LINE",
"562 550 LINE",
"341 561 LINE"
);
},
{
closed = 1;
nodes = (
"354 372 LINE",
"344 -63 LINE",
"583 -88 LINE",
"604 403 LINE",
"475 541 LINE"
);
}
);
width = 600;
},
{
layerId = "F0C8AC16-97C4-4682-80FB-F8C7118623A9";
paths = (
{
closed = 1;
nodes = (
"549 0 LINE",
"549 346 LINE SMOOTH",
"549 449 OFFCURVE",
"472 526 OFFCURVE",
"369 526 CURVE SMOOTH",
"286 526 OFFCURVE",
"210 473 OFFCURVE",
"189 402 CURVE",
"227 295 LINE",
"227 341 OFFCURVE",
"258 372 OFFCURVE",
"304 372 CURVE SMOOTH",
"350 372 OFFCURVE",
"381 341 OFFCURVE",
"381 295 CURVE SMOOTH",
"381 0 LINE"
);
},
{
closed = 1;
nodes = (
"227 0 LINE",
"227 514 LINE",
"59 514 LINE",
"59 0 LINE"
);
},
{
closed = 1;
nodes = (
"353 0 LINE",
"353 303 LINE",
"577 384 LINE",
"577 0 LINE"
);
},
{
closed = 1;
nodes = (
"366 328 LINE",
"606 306 LINE",
"612 550 LINE",
"391 561 LINE"
);
},
{
closed = 1;
nodes = (
"354 302 LINE",
"344 -133 LINE",
"583 -158 LINE",
"604 333 LINE",
"539 535 LINE"
);
}
);
width = 600;
}
);
},
{
color = 1;
export = 0;
glyphname = s.001;
lastChange = "2019-01-06 05:56:59 +0000";
layers = (
{
layerId = "598F5332-0C7A-49A1-B747-7EF928CD593D";
paths = (
{
closed = 1;
nodes = (
"1168 327 OFFCURVE",
"820 183 OFFCURVE",
"820 377 CURVE",
"820 455 OFFCURVE",
"892 514 OFFCURVE",
"988 514 CURVE",
"1084 514 OFFCURVE",
"1156 455 OFFCURVE",
"1156 377 CURVE",
"1156 183 OFFCURVE",
"808 327 OFFCURVE",
"808 133 CURVE",
"808 50 OFFCURVE",
"885 -12 OFFCURVE",
"988 -12 CURVE",
"1091 -12 OFFCURVE",
"1168 50 OFFCURVE",
"1168 133 CURVE"
);
},
{
closed = 1;
nodes = (
"42 115 OFFCURVE",
"152 6 OFFCURVE",
"288 6 CURVE SMOOTH",
"424 6 OFFCURVE",
"534 115 OFFCURVE",
"534 252 CURVE SMOOTH",
"534 388 OFFCURVE",
"424 498 OFFCURVE",
"288 498 CURVE SMOOTH",
"151 498 OFFCURVE",
"42 390 OFFCURVE",
"42 252 CURVE SMOOTH"
);
}
);
width = 576;
},
{
layerId = "F0C8AC16-97C4-4682-80FB-F8C7118623A9";
width = 600;
}
);
},
{
color = 1;
export = 0;
glyphname = t.001;
lastChange = "2019-02-10 10:19:28 +0000";
layers = (
{
layerId = "598F5332-0C7A-49A1-B747-7EF928CD593D";
paths = (
{
closed = 1;
nodes = (
"359 -12 OFFCURVE",
"421 49 OFFCURVE",
"421 145 CURVE",
"314 -49 LINE",
"298 97 LINE",
"389 157 LINE",
"389 86 OFFCURVE",
"344 41 OFFCURVE",
"273 41 CURVE SMOOTH",
"202 41 OFFCURVE",
"157 86 OFFCURVE",
"157 157 CURVE SMOOTH",
"157 648 LINE",
"97 648 LINE",
"97 145 LINE",
"97 49 OFFCURVE",
"159 -12 OFFCURVE",
"259 -12 CURVE SMOOTH"
);
},
{
closed = 1;
nodes = (
"293 450 LINE",
"293 502 LINE",
"-39 502 LINE",
"-39 450 LINE"
);
}
);
width = 411;
},
{
layerId = "F0C8AC16-97C4-4682-80FB-F8C7118623A9";
paths = (
{
closed = 1;
nodes = (
"530 -12 OFFCURVE",
"628 81 OFFCURVE",
"628 229 CURVE",
"426 -54 LINE",
"409 190 LINE",
"502 249 LINE",
"502 183 OFFCURVE",
"461 142 OFFCURVE",
"395 142 CURVE SMOOTH",
"329 142 OFFCURVE",
"288 183 OFFCURVE",
"288 249 CURVE",
"288 655 LINE",
"120 655 LINE",
"120 229 LINE",
"120 81 OFFCURVE",
"218 -12 OFFCURVE",
"374 -12 CURVE SMOOTH"
);
},
{
closed = 1;
nodes = (
"410 379 LINE",
"410 514 LINE",
"-2 514 LINE",
"-2 379 LINE"
);
}
);
width = 464;
}
);
},
{
color = 1;
export = 0;
glyphname = v.001;
lastChange = "2019-04-09 12:59:35 +0000";
layers = (
{
layerId = "598F5332-0C7A-49A1-B747-7EF928CD593D";
paths = (
{
closed = 1;
nodes = (
"299 0 LINE",
"512 502 LINE",
"443 502 LINE",
"230 0 LINE",
"299 0 LINE",
"83 502 LINE",
"14 502 LINE",
"230 0 LINE"
);
}
);
width = 526;
},
{
layerId = "F0C8AC16-97C4-4682-80FB-F8C7118623A9";
paths = (
{
closed = 1;
nodes = (
"372 0 LINE",
"547 514 LINE",
"369 514 LINE",
"194 0 LINE",
"372 0 LINE",
"193 514 LINE",
"15 514 LINE",
"194 0 LINE"
);
}
);
width = 562;
}
);
},
{
color = 1;
export = 0;
glyphname = y.001;
lastChange = "2019-02-10 10:19:28 +0000";
layers = (
{
layerId = "598F5332-0C7A-49A1-B747-7EF928CD593D";
paths = (
{
closed = 1;
nodes = (
"297 27 LINE",
"77 502 LINE",
"7 502 LINE",
"227 27 LINE"
);
},
{
closed = 1;
nodes = (
"161 -188 LINE",
"482 502 LINE",
"412 502 LINE",
"91 -188 LINE"
);
}
);
width = 488;
},
{
layerId = "F0C8AC16-97C4-4682-80FB-F8C7118623A9";
paths = (
{
closed = 1;
nodes = (
"418 35 LINE",
"180 514 LINE",
"11 514 LINE",
"249 35 LINE"
);
},
{
closed = 1;
nodes = (
"272 -188 LINE",
"587 514 LINE",
"418 514 LINE",
"103 -188 LINE"
);
}
);
width = 599;
}
);
},
{
export = 0;
glyphname = a.002;
lastChange = "2019-01-06 05:56:59 +0000";
layers = (
{
backgroundImage = {
crop = "{{0, 0}, {52, 52}}";
imagePath = "../../../Desktop/Screen Shot 2018-12-27 at 8.46.55 pm.png";
locked = "1";
transform = "{18.3461, 0, 0, 18.3461, 21, -117}";
};
layerId = "598F5332-0C7A-49A1-B747-7EF928CD593D";
paths = (
{
closed = 1;
nodes = (
"115 0 LINE",
"115 708 LINE",
"51 708 LINE",
"51 0 LINE"
);
},
{
closed = 1;
nodes = (
"261 304 OFFCURVE",
"268 293 OFFCURVE",
"290 293 CURVE SMOOTH",
"313 293 OFFCURVE",
"316 306 OFFCURVE",
"318 317 CURVE SMOOTH",
"338 412 OFFCURVE",
"390 464 OFFCURVE",
"498 464 CURVE SMOOTH",
"617 464 OFFCURVE",
"691 401 OFFCURVE",
"691 319 CURVE SMOOTH",
"691 0 LINE",
"751 0 LINE",
"751 317 LINE SMOOTH",
"751 437 OFFCURVE",
"651 517 OFFCURVE",
"506 514 CURVE",
"362 520 OFFCURVE",
"261 429 OFFCURVE",
"261 330 CURVE SMOOTH"
);
},
{
closed = 1;
nodes = (
"263 47 OFFCURVE",
"364 -12 OFFCURVE",
"497 -12 CURVE SMOOTH",
"632 -12 OFFCURVE",
"713 49 OFFCURVE",
"713 139 CURVE SMOOTH",
"713 234 OFFCURVE",
"622 306 OFFCURVE",
"492 306 CURVE SMOOTH",
"366 306 OFFCURVE",
"263 238 OFFCURVE",
"263 142 CURVE SMOOTH"
);
},
{
closed = 1;
nodes = (
"289 62 OFFCURVE",
"384 -4 OFFCURVE",
"503 -4 CURVE SMOOTH",
"621 -4 OFFCURVE",
"721 61 OFFCURVE",
"721 142 CURVE SMOOTH",
"721 224 OFFCURVE",
"618 282 OFFCURVE",
"503 282 CURVE SMOOTH",
"379 282 OFFCURVE",
"289 215 OFFCURVE",
"289 140 CURVE SMOOTH"
);
},
{
closed = 1;
nodes = (
"325 64 OFFCURVE",
"401 12 OFFCURVE",
"503 18 CURVE",
"610 18 OFFCURVE",
"691 69 OFFCURVE",
"691 138 CURVE SMOOTH",
"691 207 OFFCURVE",
"608 258 OFFCURVE",
"503 258 CURVE SMOOTH",
"397 258 OFFCURVE",
"325 207 OFFCURVE",
"325 136 CURVE SMOOTH"
);
},
{
closed = 1;
nodes = (
"1720 502 LINE",
"1720 806 LINE",
"650 806 LINE",
"650 502 LINE"
);
},
{
closed = 1;
nodes = (
"1058 105 OFFCURVE",
"1168 -4 OFFCURVE",
"1304 -4 CURVE SMOOTH",
"1440 -4 OFFCURVE",
"1550 105 OFFCURVE",
"1550 242 CURVE SMOOTH",
"1550 378 OFFCURVE",
"1440 488 OFFCURVE",
"1304 488 CURVE SMOOTH",
"1168 488 OFFCURVE",
"1058 380 OFFCURVE",
"1058 242 CURVE SMOOTH"
);
},
{
closed = 1;
nodes = (
"1074 265 OFFCURVE",
"1170 201 OFFCURVE",
"1310 201 CURVE SMOOTH",
"1449 201 OFFCURVE",
"1545 265 OFFCURVE",
"1545 357 CURVE SMOOTH",
"1545 450 OFFCURVE",
"1449 514 OFFCURVE",
"1310 514 CURVE SMOOTH",
"1170 514 OFFCURVE",
"1074 450 OFFCURVE",
"1074 357 CURVE SMOOTH"
);
},
{
closed = 1;
nodes = (
"1134 419 OFFCURVE",
"1206 462 OFFCURVE",
"1310 462 CURVE SMOOTH",
"1414 462 OFFCURVE",
"1485 419 OFFCURVE",
"1485 357 CURVE SMOOTH",
"1485 295 OFFCURVE",
"1414 253 OFFCURVE",
"1310 253 CURVE SMOOTH",
"1206 253 OFFCURVE",
"1134 295 OFFCURVE",
"1134 357 CURVE SMOOTH"
);
},
{
closed = 1;
nodes = (
"1763 51 OFFCURVE",
"1852 -12 OFFCURVE",
"1981 -12 CURVE SMOOTH",
"2100 -12 OFFCURVE",
"2215 51 OFFCURVE",
"2215 143 CURVE",
"2193 107 LINE",
"2191 0 LINE",
"2251 0 LINE",
"2251 317 LINE SMOOTH",
"2251 435 OFFCURVE",
"2161 516 OFFCURVE",
"2029 515 CURVE SMOOTH",
"1954 515 OFFCURVE",
"1861 488 OFFCURVE",
"1805.58 440.42 CURVE",
"1847.788 398.212 LINE",
"1892 437 OFFCURVE",
"1964 464 OFFCURVE",
"2028 464 CURVE SMOOTH",
"2125 464 OFFCURVE",
"2191 405 OFFCURVE",
"2191 319 CURVE SMOOTH",
"2191 174 LINE",
"2215 143 LINE",
"2215 240 OFFCURVE",
"2121 306 OFFCURVE",
"1983 306 CURVE SMOOTH",
"1857 306 OFFCURVE",
"1763 236 OFFCURVE",
"1763 143 CURVE SMOOTH"
);
},
{
closed = 1;
nodes = (
"1825 209 OFFCURVE",
"1900 258 OFFCURVE",
"2000 258 CURVE SMOOTH",
"2113 258 OFFCURVE",
"2191 209 OFFCURVE",
"2191 138 CURVE SMOOTH",
"2191 83 OFFCURVE",
"2075 28 OFFCURVE",
"1979 28 CURVE SMOOTH",
"1888 28 OFFCURVE",
"1825 75 OFFCURVE",
"1825 143 CURVE SMOOTH"
);
}
);
width = 600;
},
{
layerId = "F0C8AC16-97C4-4682-80FB-F8C7118623A9";
width = 600;
}
);
},
{
export = 0;
glyphname = r.002;
lastChange = "2019-02-10 10:19:28 +0000";
layers = (
{
layerId = "598F5332-0C7A-49A1-B747-7EF928CD593D";
paths = (
{
closed = 1;
nodes = (
"150 0 LINE",
"150 502 LINE",
"90 502 LINE",
"90 0 LINE"
);
},
{
closed = 1;
nodes = (
"150 315 LINE",
"150 398 OFFCURVE",
"213 461 OFFCURVE",
"296 461 CURVE SMOOTH",
"336.486 461 OFFCURVE",
"370.092 449.668 OFFCURVE",
"394.815 429.006 CURVE",
"431.019 479.572 LINE",
"400.571 501.631 OFFCURVE",
"361.672 514 OFFCURVE",
"317 514 CURVE SMOOTH",
"227 514 OFFCURVE",
"148 461 OFFCURVE",
"132 390 CURVE"
);
}
);
width = 600;
},
{
layerId = "F0C8AC16-97C4-4682-80FB-F8C7118623A9";
paths = (
{
closed = 1;
nodes = (
"227 0 LINE",
"227 514 LINE",
"59 514 LINE",
"59 0 LINE"
);
},
{
closed = 1;
nodes = (
"227 295 LINE",
"227 341 OFFCURVE",
"258 372 OFFCURVE",
"304 372 CURVE SMOOTH",
"337.798 372 OFFCURVE",
"363.499 355.265 OFFCURVE",
"374.755 328.14 CURVE",
"493.918 478.221 LINE",
"462.08 508.181 OFFCURVE",
"418.549 526 OFFCURVE",
"369 526 CURVE SMOOTH",
"286 526 OFFCURVE",
"210 473 OFFCURVE",
"189 402 CURVE"
);
}
);
width = 600;
}
);
},
{
color = 1;
export = 0;
glyphname = s.002;
lastChange = "2019-01-06 05:56:59 +0000";
layers = (
{
layerId = "598F5332-0C7A-49A1-B747-7EF928CD593D";
paths = (
{
closed = 1;
nodes = (
"42 -594 OFFCURVE",
"142 -694 OFFCURVE",
"288 -694 CURVE SMOOTH",
"434 -694 OFFCURVE",
"534 -594 OFFCURVE",
"534 -448 CURVE SMOOTH",
"534 -302 OFFCURVE",
"434 -202 OFFCURVE",
"288 -202 CURVE SMOOTH",
"142 -202 OFFCURVE",
"42 -302 OFFCURVE",
"42 -448 CURVE SMOOTH"
);
},
{
closed = 1;
nodes = (
"42 106 OFFCURVE",
"142 6 OFFCURVE",
"288 6 CURVE SMOOTH",
"434 6 OFFCURVE",
"534 106 OFFCURVE",
"534 252 CURVE SMOOTH",
"534 398 OFFCURVE",
"434 498 OFFCURVE",
"288 498 CURVE SMOOTH",
"142 498 OFFCURVE",
"42 398 OFFCURVE",
"42 252 CURVE SMOOTH"
);
},
{
closed = 1;
nodes = (
"325 178 LINE",
"324 106 LINE",
"90 278 LINE",
"89 -47 LINE",
"52 -7 LINE"
);
},
{
closed = 1;
nodes = (
"123 47 OFFCURVE",
"190 -12 OFFCURVE",
"288 -12 CURVE SMOOTH",
"386 -12 OFFCURVE",
"453 47 OFFCURVE",
"453 133 CURVE SMOOTH",
"453 224 OFFCURVE",
"386 287 OFFCURVE",
"288 287 CURVE",
"288 223 LINE",
"374 223 OFFCURVE",
"433 286 OFFCURVE",
"433 377 CURVE SMOOTH",
"433 458 OFFCURVE",
"374 514 OFFCURVE",
"288 514 CURVE SMOOTH",
"201 514 OFFCURVE",
"142 458 OFFCURVE",
"142 377 CURVE SMOOTH",
"142 286 OFFCURVE",
"201 223 OFFCURVE",
"288 223 CURVE",
"288 287 LINE",
"236 287 OFFCURVE",
"201 324 OFFCURVE",
"201 377 CURVE SMOOTH",
"201 427 OFFCURVE",
"236 462 OFFCURVE",
"288 462 CURVE SMOOTH",
"337 462 OFFCURVE",
"372 427 OFFCURVE",
"375 377 CURVE",
"375 324 OFFCURVE",
"340 287 OFFCURVE",
"288 287 CURVE SMOOTH",
"190 287 OFFCURVE",
"123 224 OFFCURVE",
"123 133 CURVE SMOOTH"
);
},
{
closed = 1;
nodes = (
"183 186 OFFCURVE",
"226 223 OFFCURVE",
"288 223 CURVE SMOOTH",
"350 223 OFFCURVE",
"393 186 OFFCURVE",
"393 133 CURVE SMOOTH",
"393 78 OFFCURVE",
"350 40 OFFCURVE",
"288 40 CURVE SMOOTH",
"226 40 OFFCURVE",
"183 78 OFFCURVE",
"183 133 CURVE SMOOTH"
);
},
{
closed = 1;
nodes = (
"249 400 LINE",
"472 267 LINE",
"472 532 LINE",
"511 490 LINE",
"249 334 LINE"
);
},
{
closed = 1;
nodes = (
"642 -399 OFFCURVE",
"688 -448 OFFCURVE",
"785 -474 CURVE SMOOTH",
"871 -498 OFFCURVE",
"893 -517 OFFCURVE",
"893 -567 CURVE SMOOTH",
"893 -622 OFFCURVE",
"850 -660 OFFCURVE",
"788 -660 CURVE SMOOTH",
"745.11 -660 OFFCURVE",
"711.313 -641.815 OFFCURVE",
"694.553 -612.398 CURVE",
"646.168 -646.137 LINE",
"673.806 -687.126 OFFCURVE",
"724.368 -712 OFFCURVE",
"788 -712 CURVE SMOOTH",
"886 -712 OFFCURVE",
"953 -653 OFFCURVE",
"953 -567 CURVE SMOOTH",
"953 -481 OFFCURVE",
"921 -451 OFFCURVE",
"794 -419 CURVE SMOOTH",
"731 -403 OFFCURVE",
"701 -373 OFFCURVE",
"701 -323 CURVE SMOOTH",
"701 -273 OFFCURVE",
"736 -238 OFFCURVE",
"788 -238 CURVE SMOOTH",
"826.902 -238 OFFCURVE",
"856.98 -260.061 OFFCURVE",
"869.226 -294.175 CURVE",
"920.745 -263.509 LINE",
"899.2 -215.86 OFFCURVE",
"850.798 -186 OFFCURVE",
"788 -186 CURVE SMOOTH",
"701 -186 OFFCURVE",
"642 -242 OFFCURVE",
"642 -323 CURVE SMOOTH"
);
},
{
closed = 1;
nodes = (
"642 106 OFFCURVE",
"742 6 OFFCURVE",
"888 6 CURVE SMOOTH",
"1034 6 OFFCURVE",
"1134 106 OFFCURVE",
"1134 252 CURVE SMOOTH",
"1134 398 OFFCURVE",
"1034 498 OFFCURVE",
"888 498 CURVE SMOOTH",
"742 498 OFFCURVE",
"642 398 OFFCURVE",
"642 252 CURVE SMOOTH"
);
},
{
closed = 1;
nodes = (
"698 47 OFFCURVE",
"775 -12 OFFCURVE",
"888 -12 CURVE SMOOTH",
"1001 -12 OFFCURVE",
"1078 47 OFFCURVE",
"1078 133 CURVE SMOOTH",
"1078 327 OFFCURVE",
"720 183 OFFCURVE",
"720 377 CURVE SMOOTH",
"720 458 OFFCURVE",
"788 514 OFFCURVE",
"888 514 CURVE SMOOTH",
"988 514 OFFCURVE",
"1056 458 OFFCURVE",
"1056 377 CURVE SMOOTH",
"1056 183 OFFCURVE",
"698 327 OFFCURVE",
"698 133 CURVE SMOOTH"
);
},
{
closed = 1;
nodes = (
"758 78 OFFCURVE",
"811 40 OFFCURVE",
"888 40 CURVE SMOOTH",
"965 40 OFFCURVE",
"1018 78 OFFCURVE",
"1018 133 CURVE SMOOTH",
"1018 327 OFFCURVE",
"780 183 OFFCURVE",
"780 377 CURVE SMOOTH",
"780 427 OFFCURVE",
"824 462 OFFCURVE",
"888 462 CURVE SMOOTH",
"952 462 OFFCURVE",
"996 427 OFFCURVE",
"996 377 CURVE SMOOTH",
"996 183 OFFCURVE",
"758 327 OFFCURVE",
"758 133 CURVE SMOOTH"
);
},
{
closed = 1;
nodes = (
"869 285 LINE",
"921 271 LINE",
"907 219 LINE",
"855 233 LINE"
);
},
{
closed = 1;
nodes = (
"1035 -539 LINE",
"1049 -485 LINE",
"567 -356 LINE",
"553 -410 LINE"
);
},
{
closed = 1;
nodes = (
"1291 -660 OFFCURVE",
"1250 -622 OFFCURVE",
"1227 -560 CURVE",
"1176 -593 LINE",
"1210 -667 OFFCURVE",
"1269 -712 OFFCURVE",
"1368 -712 CURVE SMOOTH",
"1466 -712 OFFCURVE",
"1533 -653 OFFCURVE",
"1533 -567 CURVE SMOOTH",
"1533 -481 OFFCURVE",
"1501 -451 OFFCURVE",
"1374 -419 CURVE SMOOTH",
"1311 -403 OFFCURVE",
"1281 -373 OFFCURVE",
"1281 -323 CURVE SMOOTH",
"1281 -273 OFFCURVE",
"1316 -238 OFFCURVE",
"1368 -238 CURVE SMOOTH",
"1445 -238 OFFCURVE",
"1486 -277 OFFCURVE",
"1509 -338 CURVE",
"1560 -305 LINE",
"1526 -231 OFFCURVE",
"1467 -186 OFFCURVE",
"1368 -186 CURVE SMOOTH",
"1281 -186 OFFCURVE",
"1222 -242 OFFCURVE",
"1222 -323 CURVE SMOOTH",
"1222 -399 OFFCURVE",
"1268 -448 OFFCURVE",
"1365 -474 CURVE SMOOTH",
"1451 -497 OFFCURVE",
"1473 -517 OFFCURVE",
"1473 -567 CURVE SMOOTH",
"1473 -622 OFFCURVE",
"1430 -660 OFFCURVE",
"1368 -660 CURVE SMOOTH"
);
}
);
width = 576;
},
{
layerId = "F0C8AC16-97C4-4682-80FB-F8C7118623A9";
width = 600;
}
);
},
{
color = 1;
export = 0;
glyphname = t.002;
lastChange = "2019-02-10 10:19:28 +0000";
layers = (
{
layerId = "598F5332-0C7A-49A1-B747-7EF928CD593D";
paths = (
{
closed = 1;
nodes = (
"298 97 LINE",
"389 157 LINE",
"389 86 OFFCURVE",
"344 41 OFFCURVE",
"273 41 CURVE SMOOTH",
"202 41 OFFCURVE",
"157 86 OFFCURVE",
"157 157 CURVE SMOOTH",
"157 648 LINE",
"97 648 LINE",
"97 145 LINE",
"97 49 OFFCURVE",
"159 -12 OFFCURVE",
"259 -12 CURVE SMOOTH",
"359 -12 OFFCURVE",
"421 49 OFFCURVE",
"421 145 CURVE",
"314 -49 LINE"
);
},
{
closed = 1;
nodes = (
"304 450 LINE",
"304 502 LINE",
"-28 502 LINE",
"-28 450 LINE"
);
}
);
width = 411;
},
{
layerId = "F0C8AC16-97C4-4682-80FB-F8C7118623A9";
paths = (
{
closed = 1;
nodes = (
"461 -12 OFFCURVE",
"544 65 OFFCURVE",
"544 189 CURVE",
"421 -54 LINE",
"404 190 LINE",
"442 219 LINE",
"442 172 OFFCURVE",
"412 142 OFFCURVE",
"365 142 CURVE SMOOTH",
"318 142 OFFCURVE",
"288 172 OFFCURVE",
"288 219 CURVE",
"288 655 LINE",
"120 655 LINE",
"120 189 LINE",
"119 66 OFFCURVE",
"201 -12 OFFCURVE",
"332 -12 CURVE SMOOTH"
);
},
{
closed = 1;
nodes = (
"420 379 LINE",
"420 514 LINE",
"8 514 LINE",
"8 379 LINE"
);
}
);
width = 464;
}
);
},
{
export = 0;
glyphname = a.003;
lastChange = "2019-01-06 05:56:59 +0000";
layers = (
{
backgroundImage = {
crop = "{{0, 0}, {52, 52}}";
imagePath = "../../../Desktop/Screen Shot 2018-12-27 at 8.46.55 pm.png";
locked = "1";
transform = "{18.3461, 0, 0, 18.3461, 21, -117}";
};
layerId = "598F5332-0C7A-49A1-B747-7EF928CD593D";
paths = (
{
closed = 1;
nodes = (
"115 0 LINE",
"115 708 LINE",
"51 708 LINE",
"51 0 LINE"
);
},
{
closed = 1;
nodes = (
"2561 304 OFFCURVE",
"2568 293 OFFCURVE",
"2590 293 CURVE SMOOTH",
"2613 293 OFFCURVE",
"2616 306 OFFCURVE",
"2618 317 CURVE SMOOTH",
"2635 413 OFFCURVE",
"2690 464 OFFCURVE",
"2798 464 CURVE SMOOTH",
"2917 464 OFFCURVE",
"2991 401 OFFCURVE",
"2991 319 CURVE SMOOTH",
"2991 0 LINE",
"3051 0 LINE",
"3051 317 LINE SMOOTH",
"3051 437 OFFCURVE",
"2941 517 OFFCURVE",
"2806 514 CURVE",
"2662 520 OFFCURVE",
"2561 429 OFFCURVE",
"2561 330 CURVE SMOOTH"
);
},
{
closed = 1;
nodes = (
"2563 47 OFFCURVE",
"2664 -12 OFFCURVE",
"2797 -12 CURVE SMOOTH",
"2932 -12 OFFCURVE",
"3013 49 OFFCURVE",
"3013 139 CURVE SMOOTH",
"3013 234 OFFCURVE",
"2922 306 OFFCURVE",
"2792 306 CURVE SMOOTH",
"2666 306 OFFCURVE",
"2563 238 OFFCURVE",
"2563 142 CURVE SMOOTH"
);
},
{
closed = 1;
nodes = (
"2589 62 OFFCURVE",
"2684 -4 OFFCURVE",
"2803 -4 CURVE SMOOTH",
"2921 -4 OFFCURVE",
"3021 61 OFFCURVE",
"3021 142 CURVE SMOOTH",
"3021 224 OFFCURVE",
"2918 282 OFFCURVE",
"2803 282 CURVE SMOOTH",
"2679 282 OFFCURVE",
"2589 215 OFFCURVE",
"2589 140 CURVE SMOOTH"
);
},
{
closed = 1;
nodes = (
"2625 64 OFFCURVE",
"2701 12 OFFCURVE",
"2803 18 CURVE",
"2910 18 OFFCURVE",
"2991 69 OFFCURVE",
"2991 138 CURVE SMOOTH",
"2991 207 OFFCURVE",
"2908 258 OFFCURVE",
"2803 258 CURVE SMOOTH",
"2697 258 OFFCURVE",
"2625 207 OFFCURVE",
"2625 136 CURVE SMOOTH"
);
},
{
closed = 1;
nodes = (
"1720 502 LINE",
"1720 806 LINE",
"1050 806 LINE",
"1050 502 LINE"
);
},
{
closed = 1;
nodes = (
"1058 105 OFFCURVE",
"1168 -4 OFFCURVE",
"1304 -4 CURVE SMOOTH",
"1440 -4 OFFCURVE",
"1550 105 OFFCURVE",
"1550 242 CURVE SMOOTH",
"1550 378 OFFCURVE",
"1440 488 OFFCURVE",
"1304 488 CURVE SMOOTH",
"1168 488 OFFCURVE",
"1058 380 OFFCURVE",
"1058 242 CURVE SMOOTH"
);
},
{
closed = 1;
nodes = (
"1074 265 OFFCURVE",
"1170 201 OFFCURVE",
"1310 201 CURVE SMOOTH",
"1449 201 OFFCURVE",
"1545 265 OFFCURVE",
"1545 357 CURVE SMOOTH",
"1545 450 OFFCURVE",
"1449 514 OFFCURVE",
"1310 514 CURVE SMOOTH",
"1170 514 OFFCURVE",
"1074 450 OFFCURVE",
"1074 357 CURVE SMOOTH"
);
},
{
closed = 1;
nodes = (
"1134 419 OFFCURVE",
"1206 462 OFFCURVE",
"1310 462 CURVE SMOOTH",
"1414 462 OFFCURVE",
"1485 419 OFFCURVE",
"1485 357 CURVE SMOOTH",
"1485 295 OFFCURVE",
"1414 253 OFFCURVE",
"1310 253 CURVE SMOOTH",
"1206 253 OFFCURVE",
"1134 295 OFFCURVE",
"1134 357 CURVE SMOOTH"
);
},
{
closed = 1;
nodes = (
"723 192 LINE",
"691 224 LINE",
"691 313 LINE SMOOTH",
"691 403 OFFCURVE",
"625 464 OFFCURVE",
"528 464 CURVE SMOOTH",
"464 464 OFFCURVE",
"392 437 OFFCURVE",
"348 398 CURVE",
"306 440 LINE",
"361 488 OFFCURVE",
"454 514 OFFCURVE",
"529 515 CURVE SMOOTH",
"661 517 OFFCURVE",
"751 438 OFFCURVE",
"751 321 CURVE SMOOTH",
"751 0 LINE",
"691 0 LINE",
"691 95 LINE",
"708 136 LINE"
);
},
{
closed = 1;
nodes = (
"708 67 OFFCURVE",
"620 -12 OFFCURVE",
"481 -12 CURVE SMOOTH",
"358 -12 OFFCURVE",
"273 51 OFFCURVE",
"273 143 CURVE SMOOTH",
"273 240 OFFCURVE",
"368 309 OFFCURVE",
"493 309 CURVE SMOOTH",
"635 309 OFFCURVE",
"741 244 OFFCURVE",
"741 158 CURVE",
"701 158 LINE",
"701 103 OFFCURVE",
"605 28 OFFCURVE",
"479 28 CURVE SMOOTH",
"394 28 OFFCURVE",
"335 75 OFFCURVE",
"335 143 CURVE SMOOTH",
"335 211 OFFCURVE",
"402 261 OFFCURVE",
"500 261 CURVE SMOOTH",
"619 261 OFFCURVE",
"708 217 OFFCURVE",
"708 158 CURVE"
);
}
);
width = 600;
},
{
layerId = "F0C8AC16-97C4-4682-80FB-F8C7118623A9";
width = 600;
}
);
},
{
export = 0;
glyphname = r.003;
lastChange = "2019-02-10 10:19:28 +0000";
layers = (
{
layerId = "598F5332-0C7A-49A1-B747-7EF928CD593D";
paths = (
{
closed = 1;
nodes = (
"150 395 OFFCURVE",
"216 461 OFFCURVE",
"296 461 CURVE SMOOTH",
"376 461 OFFCURVE",
"442 395 OFFCURVE",
"442 315 CURVE",
"341 409 LINE",
"357 553 LINE",
"502 329 LINE",
"502 431 OFFCURVE",
"419 514 OFFCURVE",
"317 514 CURVE SMOOTH",
"215 514 OFFCURVE",
"132 431 OFFCURVE",
"132 329 CURVE",
"150 315 LINE"
);
},
{
closed = 1;
nodes = (
"150 0 LINE",
"150 502 LINE",
"90 502 LINE",
"90 0 LINE"
);
}
);
width = 600;
},
{
layerId = "F0C8AC16-97C4-4682-80FB-F8C7118623A9";
paths = (
{
closed = 1;
nodes = (
"227 319 OFFCURVE",
"276 372 OFFCURVE",
"354 372 CURVE SMOOTH",
"432 372 OFFCURVE",
"481 319 OFFCURVE",
"481 235 CURVE",
"379 320 LINE",
"398 561 LINE",
"539 356 LINE",
"539 460 OFFCURVE",
"473 526 OFFCURVE",
"369 526 CURVE SMOOTH",
"265 526 OFFCURVE",
"199 460 OFFCURVE",
"199 356 CURVE",
"227 235 LINE"
);
},
{
closed = 1;
nodes = (
"227 0 LINE",
"227 514 LINE",
"59 514 LINE",
"59 0 LINE"
);
}
);
width = 600;
}
);
},
{
color = 1;
export = 0;
glyphname = s.003;
lastChange = "2019-02-10 10:19:28 +0000";
layers = (
{
layerId = "598F5332-0C7A-49A1-B747-7EF928CD593D";
paths = (
{
closed = 1;
nodes = (
"313 -12 OFFCURVE",
"384 50 OFFCURVE",
"384 133 CURVE SMOOTH",
"384 211 OFFCURVE",
"337 249 OFFCURVE",
"227 292 CURVE SMOOTH",
"162 318 OFFCURVE",
"132 334 OFFCURVE",
"132 382 CURVE SMOOTH",
"132 428 OFFCURVE",
"169 462 OFFCURVE",
"219 462 CURVE SMOOTH",
"271 462 OFFCURVE",
"303 444 OFFCURVE",
"338 408 CURVE",
"383 440 LINE",
"344 485 OFFCURVE",
"297 514 OFFCURVE",
"219 514 CURVE SMOOTH",
"136 514 OFFCURVE",
"73 457 OFFCURVE",
"73 382 CURVE SMOOTH",
"73 311 OFFCURVE",
"116 277 OFFCURVE",
"216 236 CURVE SMOOTH",
"292 205 OFFCURVE",
"324 184 OFFCURVE",
"324 133 CURVE SMOOTH",
"324 80 OFFCURVE",
"279 40 OFFCURVE",
"219 40 CURVE SMOOTH",
"155 40 OFFCURVE",
"98 78 OFFCURVE",
"76 139 CURVE",
"27 107 LINE",
"61 34 OFFCURVE",
"135 -12 OFFCURVE",
"219 -12 CURVE SMOOTH"
);
}
);
width = 430;
},
{
layerId = "F0C8AC16-97C4-4682-80FB-F8C7118623A9";
paths = (
{
closed = 1;
nodes = (
"334 -12 OFFCURVE",
"412 55 OFFCURVE",
"412 149 CURVE SMOOTH",
"412 218 OFFCURVE",
"372 268 OFFCURVE",
"287 304 CURVE SMOOTH",
"207 340 OFFCURVE",
"188 352 OFFCURVE",
"188 369 CURVE SMOOTH",
"188 387 OFFCURVE",
"202 402 OFFCURVE",
"230 402 CURVE SMOOTH",
"255 402 OFFCURVE",
"276 388 OFFCURVE",
"282 365 CURVE",
"398 419 LINE",
"375 485 OFFCURVE",
"311 526 OFFCURVE",
"232 526 CURVE SMOOTH",
"134 526 OFFCURVE",
"52 472 OFFCURVE",
"52 375 CURVE SMOOTH",
"52 300 OFFCURVE",
"90 257 OFFCURVE",
"198 209 CURVE SMOOTH",
"256 184 OFFCURVE",
"264 178 OFFCURVE",
"264 159 CURVE SMOOTH",
"264 133 OFFCURVE",
"244 116 OFFCURVE",
"212 116 CURVE SMOOTH",
"179 116 OFFCURVE",
"156 137 OFFCURVE",
"149 180 CURVE",
"19 126 LINE",
"34 41 OFFCURVE",
"112 -12 OFFCURVE",
"228 -12 CURVE SMOOTH"
);
}
);
width = 438;
}
);
},
{
export = 0;
glyphname = a.004;
lastChange = "2019-01-06 05:56:59 +0000";
layers = (
{
backgroundImage = {
crop = "{{0, 0}, {52, 52}}";
imagePath = "../../../Desktop/Screen Shot 2018-12-27 at 8.46.55 pm.png";
locked = "1";
transform = "{18.3461, 0, 0, 18.3461, 21, -117}";
};
layerId = "598F5332-0C7A-49A1-B747-7EF928CD593D";
paths = (
{
closed = 1;
nodes = (
"751 0 LINE",
"751 303 LINE SMOOTH",
"751 431 OFFCURVE",
"661 517 OFFCURVE",
"529 515 CURVE SMOOTH",
"454 514 OFFCURVE",
"361 488 OFFCURVE",
"306 440 CURVE",
"348 398 LINE",
"392 437 OFFCURVE",
"464 463 OFFCURVE",
"528 463 CURVE SMOOTH",
"625 463 OFFCURVE",
"691 397 OFFCURVE",
"691 300 CURVE",
"691 0 LINE"
);
},
{
closed = 1;
nodes = (
"115 0 LINE",
"115 708 LINE",
"51 708 LINE",
"51 0 LINE"
);
},
{
closed = 1;
nodes = (
"622 -12 OFFCURVE",
"711 57 OFFCURVE",
"711 158 CURVE",
"731 148 LINE",
"731 242 OFFCURVE",
"624 312 OFFCURVE",
"481 312 CURVE SMOOTH",
"358 312 OFFCURVE",
"273 243 OFFCURVE",
"273 143 CURVE SMOOTH",
"273 51 OFFCURVE",
"363 -12 OFFCURVE",
"493 -12 CURVE SMOOTH"
);
},
{
closed = 1;
nodes = (
"398 28 OFFCURVE",
"335 75 OFFCURVE",
"335 143 CURVE SMOOTH",
"335 215 OFFCURVE",
"398 264 OFFCURVE",
"490 264 CURVE SMOOTH",
"616 264 OFFCURVE",
"711 214 OFFCURVE",
"711 148 CURVE",
"691 158 LINE",
"691 81 OFFCURVE",
"609 28 OFFCURVE",
"490 28 CURVE SMOOTH"
);
}
);
width = 600;
},
{
layerId = "F0C8AC16-97C4-4682-80FB-F8C7118623A9";
width = 600;
}
);
},
{
color = 1;
export = 0;
glyphname = r.004;
lastChange = "2019-02-10 10:19:28 +0000";
layers = (
{
layerId = "598F5332-0C7A-49A1-B747-7EF928CD593D";
paths = (
{
closed = 1;
nodes = (
"150 394 OFFCURVE",
"216 461 OFFCURVE",
"296 461 CURVE SMOOTH",
"313 461 OFFCURVE",
"330 458 OFFCURVE",
"346 452 CURVE",
"352 511 LINE",
"341 513 OFFCURVE",
"329 514 OFFCURVE",
"317 514 CURVE SMOOTH",
"216 514 OFFCURVE",
"134 431 OFFCURVE",
"134 329 CURVE",
"150 315 LINE"
);
},
{
closed = 1;
nodes = (
"150 0 LINE",
"150 502 LINE",
"90 502 LINE",
"90 0 LINE"
);
}
);
width = 362;
},
{
layerId = "F0C8AC16-97C4-4682-80FB-F8C7118623A9";
paths = (
{
closed = 1;
nodes = (
"227 310 OFFCURVE",
"284 372 OFFCURVE",
"354 372 CURVE SMOOTH",
"364 372 OFFCURVE",
"374 371 OFFCURVE",
"383 369 CURVE",
"395 525 LINE",
"387 526 OFFCURVE",
"378 526 OFFCURVE",
"369 526 CURVE SMOOTH",
"281 526 OFFCURVE",
"209 441 OFFCURVE",
"209 336 CURVE",
"227 235 LINE"
);
},
{
closed = 1;
nodes = (
"227 0 LINE",
"227 514 LINE",
"59 514 LINE",
"59 0 LINE"
);
}
);
width = 417;
}
);
},
{
color = 1;
export = 0;
glyphname = s.004;
lastChange = "2019-02-10 10:19:28 +0000";
layers = (
{
layerId = "598F5332-0C7A-49A1-B747-7EF928CD593D";
paths = (
{
closed = 1;
nodes = (
"311 -12 OFFCURVE",
"382 50 OFFCURVE",
"382 133 CURVE SMOOTH",
"382 211 OFFCURVE",
"335 249 OFFCURVE",
"225 292 CURVE SMOOTH",
"160 318 OFFCURVE",
"130 334 OFFCURVE",
"130 382 CURVE SMOOTH",
"130 428 OFFCURVE",
"167 462 OFFCURVE",
"217 462 CURVE SMOOTH",
"293 462 OFFCURVE",
"340 415 OFFCURVE",
"340 339 CURVE",
"289 392 LINE",
"408 476 LINE",
"400 339 LINE",
"400 447 OFFCURVE",
"329 514 OFFCURVE",
"217 514 CURVE SMOOTH",
"134 514 OFFCURVE",
"71 457 OFFCURVE",
"71 382 CURVE SMOOTH",
"71 328 OFFCURVE",
"126 272 OFFCURVE",
"214 236 CURVE SMOOTH",
"290 205 OFFCURVE",
"322 184 OFFCURVE",
"322 133 CURVE SMOOTH",
"322 80 OFFCURVE",
"277 40 OFFCURVE",
"217 40 CURVE SMOOTH",
"130 40 OFFCURVE",
"76 95 OFFCURVE",
"76 183 CURVE",
"122 154 LINE",
"-3 72 LINE",
"16 183 LINE",
"16 63 OFFCURVE",
"94 -12 OFFCURVE",
"217 -12 CURVE SMOOTH"
);
}
);
width = 436;
},
{
layerId = "F0C8AC16-97C4-4682-80FB-F8C7118623A9";
paths = (
{
closed = 1;
nodes = (
"343 -12 OFFCURVE",
"421 65 OFFCURVE",
"421 159 CURVE SMOOTH",
"421 228 OFFCURVE",
"381 268 OFFCURVE",
"296 304 CURVE SMOOTH",
"216 340 OFFCURVE",
"197 342 OFFCURVE",
"197 359 CURVE SMOOTH",
"197 377 OFFCURVE",
"211 394 OFFCURVE",
"239 394 CURVE SMOOTH",
"271 394 OFFCURVE",
"291 373 OFFCURVE",
"291 340 CURVE",
"250 346 LINE",
"448 438 LINE",
"427 340 LINE",
"427 454 OFFCURVE",
"355 526 OFFCURVE",
"241 526 CURVE SMOOTH",
"143 526 OFFCURVE",
"61 462 OFFCURVE",
"61 365 CURVE SMOOTH",
"61 290 OFFCURVE",
"99 257 OFFCURVE",
"207 209 CURVE SMOOTH",
"265 184 OFFCURVE",
"273 188 OFFCURVE",
"273 169 CURVE SMOOTH",
"273 143 OFFCURVE",
"253 120 OFFCURVE",
"221 120 CURVE SMOOTH",
"177 120 OFFCURVE",
"150 150 OFFCURVE",
"150 199 CURVE",
"200 197 LINE",
"-77 83 LINE",
"2 199 LINE",
"3 69 OFFCURVE",
"94 -12 OFFCURVE",
"237 -12 CURVE SMOOTH"
);
}
);
width = 451;
}
);
},
{
export = 0;
glyphname = a.005;
lastChange = "2019-01-06 05:56:59 +0000";
layers = (
{
backgroundImage = {
crop = "{{0, 0}, {52, 52}}";
imagePath = "../../../Desktop/Screen Shot 2018-12-27 at 8.46.55 pm.png";
locked = "1";
transform = "{18.3461, 0, 0, 18.3461, 21, -117}";
};
layerId = "598F5332-0C7A-49A1-B747-7EF928CD593D";
paths = (
{
closed = 1;
nodes = (
"751 0 LINE",
"751 303 LINE SMOOTH",
"751 431 OFFCURVE",
"661 517 OFFCURVE",
"529 515 CURVE SMOOTH",
"454 514 OFFCURVE",
"361 488 OFFCURVE",
"306 440 CURVE",
"348 398 LINE",
"392 437 OFFCURVE",
"464 463 OFFCURVE",
"528 463 CURVE SMOOTH",
"625 463 OFFCURVE",
"691 397 OFFCURVE",
"691 300 CURVE",
"691 0 LINE"
);
},
{
closed = 1;
nodes = (
"115 0 LINE",
"115 708 LINE",
"51 708 LINE",
"51 0 LINE"
);
},
{
closed = 1;
nodes = (
"622 -12 OFFCURVE",
"711 57 OFFCURVE",
"711 158 CURVE",
"731 148 LINE",
"731 242 OFFCURVE",
"624 312 OFFCURVE",
"481 312 CURVE SMOOTH",
"358 312 OFFCURVE",
"273 243 OFFCURVE",
"273 143 CURVE SMOOTH",
"273 51 OFFCURVE",
"363 -12 OFFCURVE",
"493 -12 CURVE SMOOTH"
);
},
{
closed = 1;
nodes = (
"398 28 OFFCURVE",
"335 75 OFFCURVE",
"335 143 CURVE SMOOTH",
"335 215 OFFCURVE",
"398 264 OFFCURVE",
"490 264 CURVE SMOOTH",
"616 264 OFFCURVE",
"711 214 OFFCURVE",
"711 148 CURVE",
"691 158 LINE",
"691 81 OFFCURVE",
"609 28 OFFCURVE",
"490 28 CURVE SMOOTH"
);
},
{
closed = 1;
nodes = (
"363 300 LINE",
"363 397 OFFCURVE",
"429 463 OFFCURVE",
"526 463 CURVE",
"525 515 LINE",
"393 517 OFFCURVE",
"303 431 OFFCURVE",
"303 303 CURVE"
);
},
{
closed = 1;
nodes = (
"1451 0 LINE",
"1451 303 LINE SMOOTH",
"1451 431 OFFCURVE",
"1361 517 OFFCURVE",
"1229 515 CURVE SMOOTH",
"1154 514 OFFCURVE",
"1061 488 OFFCURVE",
"1006 440 CURVE",
"1048 398 LINE",
"1092 437 OFFCURVE",
"1164 463 OFFCURVE",
"1228 463 CURVE SMOOTH",
"1325 463 OFFCURVE",
"1391 397 OFFCURVE",
"1391 300 CURVE",
"1391 0 LINE"
);
},
{
closed = 1;
nodes = (
"1063 0 LINE",
"1063 97 OFFCURVE",
"1129 163 OFFCURVE",
"1226 163 CURVE",
"1225 215 LINE",
"1093 217 OFFCURVE",
"1003 131 OFFCURVE",
"1003 3 CURVE"
);
},
{
closed = 1;
nodes = (
"1136 10 LINE",
"936 -190 LINE",
"736 10 LINE",
"936 210 LINE"
);
}
);
width = 600;
},
{
layerId = "F0C8AC16-97C4-4682-80FB-F8C7118623A9";
width = 600;
}
);
},
{
color = 1;
export = 0;
glyphname = s.005;
lastChange = "2019-02-10 10:19:28 +0000";
layers = (
{
layerId = "598F5332-0C7A-49A1-B747-7EF928CD593D";
paths = (
{
closed = 1;
nodes = (
"307 -12 OFFCURVE",
"378 50 OFFCURVE",
"378 133 CURVE SMOOTH",
"378 211 OFFCURVE",
"331 249 OFFCURVE",
"221 292 CURVE SMOOTH",
"156 318 OFFCURVE",
"126 334 OFFCURVE",
"126 382 CURVE SMOOTH",
"126 428 OFFCURVE",
"164 462 OFFCURVE",
"214 462 CURVE",
"213 514 LINE",
"130 514 OFFCURVE",
"67 457 OFFCURVE",
"67 382 CURVE SMOOTH",
"67 328 OFFCURVE",
"122 272 OFFCURVE",
"210 236 CURVE SMOOTH",
"286 205 OFFCURVE",
"318 184 OFFCURVE",
"318 133 CURVE SMOOTH",
"318 80 OFFCURVE",
"272 42 OFFCURVE",
"212 42 CURVE",
"213 -12 LINE"
);
},
{
closed = 1;
nodes = (
"343 514 LINE",
"18 560 LINE",
"27 -12 LINE"
);
},
{
closed = 0;
nodes = (
"212 42 LINE",
"146 42 OFFCURVE",
"80 81 OFFCURVE",
"41 144 CURVE",
"86 155 LINE",
"-16 47 LINE",
"7 93 LINE",
"49 28 OFFCURVE",
"128 -12 OFFCURVE",
"213 -12 CURVE SMOOTH"
);
},
{
closed = 0;
nodes = (
"213 514 LINE",
"361 514 OFFCURVE",
"454 441 OFFCURVE",
"454 324 CURVE",
"342 512 LINE",
"274 399 LINE",
"395 324 LINE",
"395 409 OFFCURVE",
"325 462 OFFCURVE",
"214 462 CURVE SMOOTH"
);
},
{
closed = 1;
nodes = (
"1382 514 LINE",
"962 560 LINE",
"876 -12 LINE"
);
}
);
width = 420;
},
{
layerId = "F0C8AC16-97C4-4682-80FB-F8C7118623A9";
paths = (
{
closed = 1;
nodes = (
"348 -12 OFFCURVE",
"421 65 OFFCURVE",
"421 159 CURVE SMOOTH",
"421 243 OFFCURVE",
"197 340 OFFCURVE",
"197 367 CURVE SMOOTH",
"197 377 OFFCURVE",
"211 394 OFFCURVE",
"240 394 CURVE",
"243 526 LINE",
"143 526 OFFCURVE",
"61 464 OFFCURVE",
"61 363 CURVE SMOOTH",
"61 293 OFFCURVE",
"100 255 OFFCURVE",
"207 209 CURVE SMOOTH",
"265 184 OFFCURVE",
"273 188 OFFCURVE",
"273 155 CURVE SMOOTH",
"273 143 OFFCURVE",
"254 120 OFFCURVE",
"219 120 CURVE SMOOTH",
"171 120 OFFCURVE",
"141 148 OFFCURVE",
"141 192 CURVE",
"194 194 LINE",
"-27 104 LINE",
"-4 184 LINE",
"-4 64 OFFCURVE",
"85 -12 OFFCURVE",
"228 -12 CURVE SMOOTH"
);
},
{
closed = 0;
nodes = (
"243 526 LINE SMOOTH",
"337 525 OFFCURVE",
"398 488 OFFCURVE",
"452 436 CURVE",
"360 344 LINE",
"327 368 OFFCURVE",
"287 394 OFFCURVE",
"240 394 CURVE SMOOTH"
);
}
);
width = 448;
}
);
},
{
export = 0;
glyphname = a.006;
lastChange = "2019-01-06 05:56:59 +0000";
layers = (
{
backgroundImage = {
crop = "{{0, 0}, {52, 52}}";
imagePath = "../../../Desktop/Screen Shot 2018-12-27 at 8.46.55 pm.png";
locked = "1";
transform = "{18.3461, 0, 0, 18.3461, 21, -117}";
};
layerId = "598F5332-0C7A-49A1-B747-7EF928CD593D";
paths = (
{
closed = 1;
nodes = (
"751 0 LINE",
"751 303 LINE SMOOTH",
"751 431 OFFCURVE",
"661 517 OFFCURVE",
"529 515 CURVE SMOOTH",
"454 514 OFFCURVE",
"361 488 OFFCURVE",
"306 440 CURVE",
"348 398 LINE",
"392 437 OFFCURVE",
"464 463 OFFCURVE",
"528 463 CURVE SMOOTH",
"625 463 OFFCURVE",
"691 397 OFFCURVE",
"691 300 CURVE",
"691 0 LINE"
);
},
{
closed = 1;
nodes = (
"115 0 LINE",
"115 708 LINE",
"51 708 LINE",
"51 0 LINE"
);
},
{
closed = 1;
nodes = (
"622 -12 OFFCURVE",
"711 57 OFFCURVE",
"711 158 CURVE",
"731 148 LINE",
"731 242 OFFCURVE",
"624 312 OFFCURVE",
"481 312 CURVE SMOOTH",
"358 312 OFFCURVE",
"273 243 OFFCURVE",
"273 143 CURVE SMOOTH",
"273 51 OFFCURVE",
"363 -12 OFFCURVE",
"493 -12 CURVE SMOOTH"
);
},
{
closed = 1;
nodes = (
"609 28 OFFCURVE",
"691 81 OFFCURVE",
"691 158 CURVE",
"711 148 LINE",
"711 214 OFFCURVE",
"616 264 OFFCURVE",
"490 264 CURVE SMOOTH",
"398 264 OFFCURVE",
"335 215 OFFCURVE",
"335 143 CURVE SMOOTH",
"335 75 OFFCURVE",
"398 28 OFFCURVE",
"490 28 CURVE SMOOTH"
);
},
{
closed = 1;
nodes = (
"363 397 OFFCURVE",
"429 463 OFFCURVE",
"526 463 CURVE",
"525 515 LINE",
"393 517 OFFCURVE",
"303 431 OFFCURVE",
"303 303 CURVE",
"363 300 LINE"
);
},
{
closed = 1;
nodes = (
"1136 -50 LINE",
"936 150 LINE",
"736 -50 LINE",
"936 -250 LINE"
);
},
{
closed = 1;
nodes = (
"1063 37 OFFCURVE",
"1129 103 OFFCURVE",
"1226 103 CURVE",
"1225 155 LINE",
"1093 155 OFFCURVE",
"1003 69 OFFCURVE",
"1003 -57 CURVE",
"1063 -60 LINE"
);
},
{
closed = 1;
nodes = (
"1090 359 LINE",
"1043 364 LINE",
"1084 420 OFFCURVE",
"1162 464 OFFCURVE",
"1228 463 CURVE SMOOTH",
"1324 463 OFFCURVE",
"1391 397 OFFCURVE",
"1391 300 CURVE SMOOTH",
"1391 0 LINE",
"1451 0 LINE",
"1451 303 LINE SMOOTH",
"1451 431 OFFCURVE",
"1360 517 OFFCURVE",
"1229 515 CURVE SMOOTH",
"1137 516 OFFCURVE",
"1044 469 OFFCURVE",
"1020 394 CURVE",
"1003 446 LINE"
);
},
{
closed = 1;
nodes = (
"953 105 OFFCURVE",
"1063 -4 OFFCURVE",
"1199 -4 CURVE SMOOTH",
"1335 -4 OFFCURVE",
"1445 105 OFFCURVE",
"1445 242 CURVE SMOOTH",
"1445 378 OFFCURVE",
"1335 488 OFFCURVE",
"1199 488 CURVE SMOOTH",
"1063 488 OFFCURVE",
"953 380 OFFCURVE",
"953 242 CURVE SMOOTH"
);
},
{
closed = 0;
nodes = (
"953 488 LINE",
"1445 -4 LINE"
);
}
);
width = 600;
},
{
layerId = "F0C8AC16-97C4-4682-80FB-F8C7118623A9";
width = 600;
}
);
},
{
color = 1;
export = 0;
glyphname = s.006;
lastChange = "2019-02-10 10:19:28 +0000";
layers = (
{
layerId = "598F5332-0C7A-49A1-B747-7EF928CD593D";
paths = (
{
closed = 1;
nodes = (
"1382 514 LINE",
"962 560 LINE",
"876 -12 LINE"
);
},
{
closed = 0;
nodes = (
"213 -12 LINE SMOOTH",
"128 -12 OFFCURVE",
"49 28 OFFCURVE",
"7 93 CURVE",
"-16 47 LINE",
"86 155 LINE",
"41 144 LINE",
"80 81 OFFCURVE",
"146 42 OFFCURVE",
"212 42 CURVE"
);
},
{
closed = 1;
nodes = (
"343 514 LINE",
"18 560 LINE",
"27 -12 LINE"
);
},
{
closed = 1;
nodes = (
"307 -12 OFFCURVE",
"378 50 OFFCURVE",
"378 133 CURVE SMOOTH",
"378 211 OFFCURVE",
"331 249 OFFCURVE",
"221 292 CURVE SMOOTH",
"156 318 OFFCURVE",
"126 334 OFFCURVE",
"126 382 CURVE SMOOTH",
"126 428 OFFCURVE",
"164 462 OFFCURVE",
"214 462 CURVE",
"213 514 LINE",
"130 514 OFFCURVE",
"67 457 OFFCURVE",
"67 382 CURVE SMOOTH",
"67 328 OFFCURVE",
"122 272 OFFCURVE",
"210 236 CURVE SMOOTH",
"286 205 OFFCURVE",
"318 184 OFFCURVE",
"318 133 CURVE SMOOTH",
"318 80 OFFCURVE",
"272 42 OFFCURVE",
"212 42 CURVE",
"213 -12 LINE"
);
},
{
closed = 1;
nodes = (
"795 409 OFFCURVE",
"725 462 OFFCURVE",
"614 462 CURVE",
"613 514 LINE",
"761 514 OFFCURVE",
"854 441 OFFCURVE",
"854 324 CURVE",
"910 556 OFFCURVE",
"779 542 OFFCURVE",
"742 512 CURVE",
"674 399 LINE",
"795 324 LINE"
);
}
);
width = 420;
},
{
layerId = "F0C8AC16-97C4-4682-80FB-F8C7118623A9";
paths = (
{
closed = 1;
nodes = (
"348 -12 OFFCURVE",
"421 65 OFFCURVE",
"421 159 CURVE SMOOTH",
"421 243 OFFCURVE",
"197 340 OFFCURVE",
"197 367 CURVE SMOOTH",
"197 377 OFFCURVE",
"211 394 OFFCURVE",
"240 394 CURVE",
"243 526 LINE",
"143 526 OFFCURVE",
"61 464 OFFCURVE",
"61 363 CURVE SMOOTH",
"61 293 OFFCURVE",
"100 255 OFFCURVE",
"207 209 CURVE SMOOTH",
"265 184 OFFCURVE",
"273 188 OFFCURVE",
"273 155 CURVE SMOOTH",
"273 143 OFFCURVE",
"254 120 OFFCURVE",
"219 120 CURVE SMOOTH",
"171 120 OFFCURVE",
"141 148 OFFCURVE",
"141 192 CURVE",
"194 194 LINE",
"-27 104 LINE",
"-4 184 LINE",
"-4 64 OFFCURVE",
"85 -12 OFFCURVE",
"228 -12 CURVE SMOOTH"
);
},
{
closed = 0;
nodes = (
"243 526 LINE SMOOTH",
"337 525 OFFCURVE",
"398 488 OFFCURVE",
"452 436 CURVE",
"360 344 LINE",
"327 368 OFFCURVE",
"287 394 OFFCURVE",
"240 394 CURVE SMOOTH"
);
}
);
width = 448;
}
);
},
{
export = 0;
glyphname = a.007;
lastChange = "2019-01-06 05:56:59 +0000";
layers = (
{
backgroundImage = {
crop = "{{0, 0}, {52, 52}}";
imagePath = "../../../Desktop/Screen Shot 2018-12-27 at 8.46.55 pm.png";
locked = "1";
transform = "{18.3461, 0, 0, 18.3461, 21, -117}";
};
layerId = "598F5332-0C7A-49A1-B747-7EF928CD593D";
paths = (
{
closed = 1;
nodes = (
"751 0 LINE",
"751 303 LINE SMOOTH",
"751 431 OFFCURVE",
"661 517 OFFCURVE",
"529 515 CURVE SMOOTH",
"454 514 OFFCURVE",
"361 488 OFFCURVE",
"306 440 CURVE",
"348 398 LINE",
"392 437 OFFCURVE",
"464 463 OFFCURVE",
"528 463 CURVE SMOOTH",
"625 463 OFFCURVE",
"691 397 OFFCURVE",
"691 300 CURVE",
"691 0 LINE"
);
},
{
closed = 1;
nodes = (
"115 0 LINE",
"115 708 LINE",
"51 708 LINE",
"51 0 LINE"
);
},
{
closed = 1;
nodes = (
"622 -12 OFFCURVE",
"711 57 OFFCURVE",
"711 158 CURVE",
"731 148 LINE",
"731 242 OFFCURVE",
"624 312 OFFCURVE",
"481 312 CURVE SMOOTH",
"358 312 OFFCURVE",
"273 243 OFFCURVE",
"273 143 CURVE SMOOTH",
"273 51 OFFCURVE",
"363 -12 OFFCURVE",
"493 -12 CURVE SMOOTH"
);
},
{
closed = 1;
nodes = (
"609 28 OFFCURVE",
"691 81 OFFCURVE",
"691 158 CURVE",
"711 148 LINE",
"711 214 OFFCURVE",
"616 264 OFFCURVE",
"490 264 CURVE SMOOTH",
"398 264 OFFCURVE",
"335 215 OFFCURVE",
"335 143 CURVE SMOOTH",
"335 75 OFFCURVE",
"398 28 OFFCURVE",
"490 28 CURVE SMOOTH"
);
},
{
closed = 1;
nodes = (
"363 397 OFFCURVE",
"429 463 OFFCURVE",
"526 463 CURVE",
"525 515 LINE",
"393 517 OFFCURVE",
"303 431 OFFCURVE",
"303 303 CURVE",
"363 300 LINE"
);
},
{
closed = 1;
nodes = (
"1136 -50 LINE",
"936 150 LINE",
"736 -50 LINE",
"936 -250 LINE"
);
},
{
closed = 1;
nodes = (
"1063 37 OFFCURVE",
"1129 103 OFFCURVE",
"1226 103 CURVE",
"1225 155 LINE",
"1093 155 OFFCURVE",
"1003 69 OFFCURVE",
"1003 -57 CURVE",
"1063 -60 LINE"
);
},
{
closed = 1;
nodes = (
"1090 359 LINE",
"1043 364 LINE",
"1084 420 OFFCURVE",
"1162 464 OFFCURVE",
"1228 463 CURVE SMOOTH",
"1324 463 OFFCURVE",
"1391 397 OFFCURVE",
"1391 300 CURVE SMOOTH",
"1391 0 LINE",
"1451 0 LINE",
"1451 303 LINE SMOOTH",
"1451 431 OFFCURVE",
"1360 517 OFFCURVE",
"1229 515 CURVE SMOOTH",
"1137 516 OFFCURVE",
"1044 469 OFFCURVE",
"1020 394 CURVE",
"1003 446 LINE"
);
}
);
width = 600;
},
{
layerId = "F0C8AC16-97C4-4682-80FB-F8C7118623A9";
width = 600;
}
);
},
{
color = 1;
export = 0;
glyphname = s.007;
lastChange = "2019-02-10 10:19:28 +0000";
layers = (
{
layerId = "598F5332-0C7A-49A1-B747-7EF928CD593D";
paths = (
{
closed = 1;
nodes = (
"311 -12 OFFCURVE",
"382 50 OFFCURVE",
"382 133 CURVE SMOOTH",
"382 211 OFFCURVE",
"335 249 OFFCURVE",
"225 292 CURVE SMOOTH",
"160 318 OFFCURVE",
"130 334 OFFCURVE",
"130 382 CURVE SMOOTH",
"130 428 OFFCURVE",
"167 462 OFFCURVE",
"217 462 CURVE SMOOTH",
"293 462 OFFCURVE",
"340 415 OFFCURVE",
"340 339 CURVE",
"289 392 LINE",
"408 476 LINE",
"400 339 LINE",
"400 447 OFFCURVE",
"329 514 OFFCURVE",
"217 514 CURVE SMOOTH",
"134 514 OFFCURVE",
"71 457 OFFCURVE",
"71 382 CURVE SMOOTH",
"71 328 OFFCURVE",
"126 272 OFFCURVE",
"214 236 CURVE SMOOTH",
"290 205 OFFCURVE",
"322 184 OFFCURVE",
"322 133 CURVE SMOOTH",
"322 80 OFFCURVE",
"277 40 OFFCURVE",
"217 40 CURVE SMOOTH",
"130 40 OFFCURVE",
"76 95 OFFCURVE",
"76 183 CURVE",
"122 154 LINE",
"-3 72 LINE",
"16 183 LINE",
"16 63 OFFCURVE",
"94 -12 OFFCURVE",
"217 -12 CURVE SMOOTH"
);
}
);
width = 436;
},
{
layerId = "F0C8AC16-97C4-4682-80FB-F8C7118623A9";
paths = (
{
closed = 1;
nodes = (
"343 -12 OFFCURVE",
"421 65 OFFCURVE",
"421 159 CURVE SMOOTH",
"421 228 OFFCURVE",
"381 268 OFFCURVE",
"296 304 CURVE SMOOTH",
"216 340 OFFCURVE",
"197 342 OFFCURVE",
"197 359 CURVE SMOOTH",
"197 377 OFFCURVE",
"211 394 OFFCURVE",
"239 394 CURVE SMOOTH",
"271 394 OFFCURVE",
"291 373 OFFCURVE",
"291 340 CURVE",
"250 346 LINE",
"448 438 LINE",
"427 340 LINE",
"427 454 OFFCURVE",
"355 526 OFFCURVE",
"241 526 CURVE SMOOTH",
"143 526 OFFCURVE",
"61 462 OFFCURVE",
"61 365 CURVE SMOOTH",
"61 290 OFFCURVE",
"99 257 OFFCURVE",
"207 209 CURVE SMOOTH",
"265 184 OFFCURVE",
"273 188 OFFCURVE",
"273 169 CURVE SMOOTH",
"273 143 OFFCURVE",
"253 120 OFFCURVE",
"221 120 CURVE SMOOTH",
"177 120 OFFCURVE",
"150 150 OFFCURVE",
"150 199 CURVE",
"200 197 LINE",
"-77 83 LINE",
"2 199 LINE",
"3 69 OFFCURVE",
"94 -12 OFFCURVE",
"237 -12 CURVE SMOOTH"
);
}
);
width = 451;
}
);
},
{
color = 1;
export = 0;
glyphname = a.008;
lastChange = "2019-01-06 05:57:07 +0000";
layers = (
{
layerId = "598F5332-0C7A-49A1-B747-7EF928CD593D";
paths = (
{
closed = 1;
nodes = (
"331 -12 OFFCURVE",
"398 26 OFFCURVE",
"444 83 CURVE",
"444 0 LINE",
"504 0 LINE",
"504 303 LINE SMOOTH",
"504 424 OFFCURVE",
"417 515 OFFCURVE",
"276 515 CURVE SMOOTH",
"193 515 OFFCURVE",
"109 484 OFFCURVE",
"69 430 CURVE",
"109 390 LINE",
"151 447 OFFCURVE",
"225 462 OFFCURVE",
"273 462 CURVE SMOOTH",
"376 462 OFFCURVE",
"441 393 OFFCURVE",
"443 300 CURVE SMOOTH",
"444 245 LINE",
"387 283 OFFCURVE",
"316 314 OFFCURVE",
"233 314 CURVE SMOOTH",
"119 314 OFFCURVE",
"40 246 OFFCURVE",
"40 147 CURVE SMOOTH",
"40 53 OFFCURVE",
"121 -12 OFFCURVE",
"239 -12 CURVE SMOOTH"
);
},
{
closed = 1;
nodes = (
"160 40 OFFCURVE",
"102 85 OFFCURVE",
"102 150 CURVE SMOOTH",
"102 215 OFFCURVE",
"158 262 OFFCURVE",
"244 262 CURVE SMOOTH",
"308 262 OFFCURVE",
"390 235 OFFCURVE",
"444 196 CURVE",
"444 101 OFFCURVE",
"361 40 OFFCURVE",
"244 40 CURVE SMOOTH"
);
}
);
width = 578;
},
{
layerId = "F0C8AC16-97C4-4682-80FB-F8C7118623A9";
paths = (
{
closed = 1;
nodes = (
"292 -12 OFFCURVE",
"341 4 OFFCURVE",
"378 40 CURVE",
"378 0 LINE",
"530 0 LINE",
"530 293 LINE SMOOTH",
"530 432 OFFCURVE",
"421 527 OFFCURVE",
"262 526 CURVE SMOOTH",
"177 525 OFFCURVE",
"96 487 OFFCURVE",
"53 426 CURVE",
"145 334 LINE",
"166 367 OFFCURVE",
"217 386 OFFCURVE",
"249 386 CURVE SMOOTH",
"334 386 OFFCURVE",
"378 346 OFFCURVE",
"378 283 CURVE SMOOTH",
"378 282 LINE",
"344 301 OFFCURVE",
"276 314 OFFCURVE",
"240 314 CURVE SMOOTH",
"97 314 OFFCURVE",
"24 246 OFFCURVE",
"24 147 CURVE SMOOTH",
"24 53 OFFCURVE",
"98 -12 OFFCURVE",
"228 -12 CURVE SMOOTH"
);
},
{
closed = 1;
nodes = (
"222 99 OFFCURVE",
"192 119 OFFCURVE",
"192 150 CURVE SMOOTH",
"192 182 OFFCURVE",
"221 204 OFFCURVE",
"263 204 CURVE SMOOTH",
"310 204 OFFCURVE",
"349 191 OFFCURVE",
"378 168 CURVE",
"377 130 OFFCURVE",
"326 99 OFFCURVE",
"265 99 CURVE SMOOTH"
);
}
);
width = 576;
}
);
},
{
color = 1;
export = 0;
glyphname = s.008;
lastChange = "2019-02-10 10:19:28 +0000";
layers = (
{
layerId = "598F5332-0C7A-49A1-B747-7EF928CD593D";
paths = (
{
closed = 1;
nodes = (
"307 -12 OFFCURVE",
"378 50 OFFCURVE",
"378 133 CURVE SMOOTH",
"378 211 OFFCURVE",
"331 249 OFFCURVE",
"221 292 CURVE SMOOTH",
"156 318 OFFCURVE",
"126 334 OFFCURVE",
"126 382 CURVE SMOOTH",
"126 428 OFFCURVE",
"163 462 OFFCURVE",
"213 462 CURVE SMOOTH",
"259 462 OFFCURVE",
"295 445 OFFCURVE",
"316 414 CURVE",
"364 448 LINE",
"332 490 OFFCURVE",
"280 514 OFFCURVE",
"213 514 CURVE SMOOTH",
"130 514 OFFCURVE",
"67 457 OFFCURVE",
"67 382 CURVE SMOOTH",
"67 328 OFFCURVE",
"122 272 OFFCURVE",
"210 236 CURVE SMOOTH",
"286 205 OFFCURVE",
"318 184 OFFCURVE",
"318 133 CURVE SMOOTH",
"318 80 OFFCURVE",
"273 40 OFFCURVE",
"213 40 CURVE SMOOTH",
"146 40 OFFCURVE",
"98 73 OFFCURVE",
"80 129 CURVE",
"29 95 LINE",
"58 28 OFFCURVE",
"124 -12 OFFCURVE",
"213 -12 CURVE SMOOTH"
);
},
{
closed = 1;
nodes = (
"-592 -12 OFFCURVE",
"-524 55 OFFCURVE",
"-524 137 CURVE SMOOTH",
"-524 218 OFFCURVE",
"-603 254 OFFCURVE",
"-659 288 CURVE SMOOTH",
"-711 320 OFFCURVE",
"-765 337 OFFCURVE",
"-765 383 CURVE SMOOTH",
"-765 426 OFFCURVE",
"-729 462 OFFCURVE",
"-685 462 CURVE SMOOTH",
"-621 461 OFFCURVE",
"-571 406 OFFCURVE",
"-571 343 CURVE",
"-509 343 LINE",
"-509 440 OFFCURVE",
"-588 514 OFFCURVE",
"-685 514 CURVE SMOOTH",
"-763 514 OFFCURVE",
"-827 455 OFFCURVE",
"-827 383 CURVE SMOOTH",
"-827 308 OFFCURVE",
"-744 274 OFFCURVE",
"-692 242 CURVE SMOOTH",
"-636 209 OFFCURVE",
"-586 188 OFFCURVE",
"-586 137 CURVE SMOOTH",
"-586 83 OFFCURVE",
"-626 39 OFFCURVE",
"-675 40 CURVE SMOOTH",
"-742 40 OFFCURVE",
"-796 104 OFFCURVE",
"-796 171 CURVE",
"-858 171 LINE",
"-858 70 OFFCURVE",
"-776 -12 OFFCURVE",
"-675 -12 CURVE SMOOTH"
);
},
{
closed = 1;
nodes = (
"686 14 OFFCURVE",
"754 82 OFFCURVE",
"754 166 CURVE SMOOTH",
"754 249 OFFCURVE",
"686 317 OFFCURVE",
"602 317 CURVE SMOOTH",
"518 317 OFFCURVE",
"450 249 OFFCURVE",
"450 166 CURVE SMOOTH",
"450 82 OFFCURVE",
"518 14 OFFCURVE",
"602 14 CURVE SMOOTH"
);
},
{
closed = 1;
nodes = (
"692 396 OFFCURVE",
"757 461 OFFCURVE",
"757 541 CURVE SMOOTH",
"757 621 OFFCURVE",
"692 686 OFFCURVE",
"612 686 CURVE SMOOTH",
"532 686 OFFCURVE",
"467 621 OFFCURVE",
"467 541 CURVE SMOOTH",
"467 462 OFFCURVE",
"532 396 OFFCURVE",
"612 396 CURVE SMOOTH"
);
},
{
closed = 1;
nodes = (
"1089 18 OFFCURVE",
"1141 70 OFFCURVE",
"1141 135 CURVE SMOOTH",
"1141 199 OFFCURVE",
"1089 251 OFFCURVE",
"1025 251 CURVE SMOOTH",
"959 251 OFFCURVE",
"908 199 OFFCURVE",
"908 135 CURVE SMOOTH",
"908 70 OFFCURVE",
"960 18 OFFCURVE",
"1025 18 CURVE SMOOTH"
);
},
{
closed = 1;
nodes = (
"1072 478 OFFCURVE",
"1118 524 OFFCURVE",
"1118 582 CURVE SMOOTH",
"1118 639 OFFCURVE",
"1072 685 OFFCURVE",
"1015 685 CURVE SMOOTH",
"957 685 OFFCURVE",
"911 639 OFFCURVE",
"911 582 CURVE SMOOTH",
"911 524 OFFCURVE",
"957 478 OFFCURVE",
"1015 478 CURVE SMOOTH"
);
}
);
width = 1141;
},
{
layerId = "F0C8AC16-97C4-4682-80FB-F8C7118623A9";
paths = (
{
closed = 1;
nodes = (
"343 -12 OFFCURVE",
"421 65 OFFCURVE",
"421 159 CURVE SMOOTH",
"421 228 OFFCURVE",
"381 268 OFFCURVE",
"296 304 CURVE SMOOTH",
"216 340 OFFCURVE",
"197 342 OFFCURVE",
"197 359 CURVE SMOOTH",
"197 377 OFFCURVE",
"211 394 OFFCURVE",
"239 394 CURVE SMOOTH",
"263 394 OFFCURVE",
"280 383 OFFCURVE",
"287 363 CURVE",
"412 421 LINE",
"386 487 OFFCURVE",
"325 526 OFFCURVE",
"241 526 CURVE SMOOTH",
"143 526 OFFCURVE",
"61 462 OFFCURVE",
"61 365 CURVE SMOOTH",
"61 290 OFFCURVE",
"99 257 OFFCURVE",
"207 209 CURVE SMOOTH",
"265 184 OFFCURVE",
"273 188 OFFCURVE",
"273 169 CURVE SMOOTH",
"273 143 OFFCURVE",
"253 120 OFFCURVE",
"221 120 CURVE SMOOTH",
"184 120 OFFCURVE",
"159 141 OFFCURVE",
"152 177 CURVE",
"15 121 LINE",
"45 37 OFFCURVE",
"125 -12 OFFCURVE",
"237 -12 CURVE SMOOTH"
);
}
);
width = 448;
}
);
},
{
color = 1;
export = 0;
glyphname = s.009;
lastChange = "2019-02-10 10:19:28 +0000";
layers = (
{
layerId = "598F5332-0C7A-49A1-B747-7EF928CD593D";
paths = (
{
closed = 1;
nodes = (
"58 28 OFFCURVE",
"124 -12 OFFCURVE",
"213 -12 CURVE SMOOTH",
"307 -12 OFFCURVE",
"378 50 OFFCURVE",
"378 133 CURVE SMOOTH",
"378 211 OFFCURVE",
"331 249 OFFCURVE",
"221 292 CURVE SMOOTH",
"156 318 OFFCURVE",
"126 334 OFFCURVE",
"126 382 CURVE SMOOTH",
"126 428 OFFCURVE",
"163 462 OFFCURVE",
"213 462 CURVE SMOOTH",
"259 462 OFFCURVE",
"295 445 OFFCURVE",
"316 414 CURVE",
"364 448 LINE",
"332 490 OFFCURVE",
"280 514 OFFCURVE",
"213 514 CURVE SMOOTH",
"130 514 OFFCURVE",
"67 457 OFFCURVE",
"67 382 CURVE SMOOTH",
"67 328 OFFCURVE",
"122 272 OFFCURVE",
"210 236 CURVE SMOOTH",
"286 205 OFFCURVE",
"318 184 OFFCURVE",
"318 133 CURVE SMOOTH",
"318 80 OFFCURVE",
"273 40 OFFCURVE",
"213 40 CURVE SMOOTH",
"146 40 OFFCURVE",
"98 73 OFFCURVE",
"80 129 CURVE",
"29 95 LINE"
);
},
{
closed = 1;
nodes = (
"571 37 OFFCURVE",
"638 -12 OFFCURVE",
"716 -12 CURVE SMOOTH",
"799 -12 OFFCURVE",
"867 51 OFFCURVE",
"867 127 CURVE SMOOTH",
"867 207 OFFCURVE",
"789 254 OFFCURVE",
"732 288 CURVE SMOOTH",
"680 319 OFFCURVE",
"626 347 OFFCURVE",
"626 393 CURVE SMOOTH",
"626 431 OFFCURVE",
"662 462 OFFCURVE",
"706 462 CURVE SMOOTH",
"747 462 OFFCURVE",
"783 439 OFFCURVE",
"803 405 CURVE",
"852 439 LINE",
"820 485 OFFCURVE",
"767 514 OFFCURVE",
"706 514 CURVE SMOOTH",
"628 514 OFFCURVE",
"564 460 OFFCURVE",
"564 393 CURVE SMOOTH",
"564 318 OFFCURVE",
"647 274 OFFCURVE",
"699 242 CURVE SMOOTH",
"754 208 OFFCURVE",
"805 178 OFFCURVE",
"805 127 CURVE SMOOTH",
"805 78 OFFCURVE",
"765 39 OFFCURVE",
"716 40 CURVE SMOOTH",
"659 41 OFFCURVE",
"612 86 OFFCURVE",
"599 141 CURVE",
"545 106 LINE"
);
}
);
width = 1141;
},
{
layerId = "F0C8AC16-97C4-4682-80FB-F8C7118623A9";
paths = (
{
closed = 1;
nodes = (
"343 -12 OFFCURVE",
"421 65 OFFCURVE",
"421 159 CURVE SMOOTH",
"421 228 OFFCURVE",
"381 268 OFFCURVE",
"296 304 CURVE SMOOTH",
"216 340 OFFCURVE",
"197 342 OFFCURVE",
"197 359 CURVE SMOOTH",
"197 377 OFFCURVE",
"211 394 OFFCURVE",
"239 394 CURVE SMOOTH",
"263 394 OFFCURVE",
"280 383 OFFCURVE",
"287 363 CURVE",
"412 421 LINE",
"386 487 OFFCURVE",
"325 526 OFFCURVE",
"241 526 CURVE SMOOTH",
"143 526 OFFCURVE",
"61 462 OFFCURVE",
"61 365 CURVE SMOOTH",
"61 290 OFFCURVE",
"99 257 OFFCURVE",
"207 209 CURVE SMOOTH",
"265 184 OFFCURVE",
"273 188 OFFCURVE",
"273 169 CURVE SMOOTH",
"273 143 OFFCURVE",
"253 120 OFFCURVE",
"221 120 CURVE SMOOTH",
"184 120 OFFCURVE",
"159 141 OFFCURVE",
"152 177 CURVE",
"15 121 LINE",
"45 37 OFFCURVE",
"125 -12 OFFCURVE",
"237 -12 CURVE SMOOTH"
);
}
);
width = 448;
}
);
},
{
color = 1;
export = 0;
glyphname = s.010;
lastChange = "2019-02-10 10:19:28 +0000";
layers = (
{
layerId = "598F5332-0C7A-49A1-B747-7EF928CD593D";
paths = (
{
closed = 1;
nodes = (
"299 -12 OFFCURVE",
"369 51 OFFCURVE",
"369 130 CURVE SMOOTH",
"369 209 OFFCURVE",
"306 252 OFFCURVE",
"223 290 CURVE SMOOTH",
"164 319 OFFCURVE",
"122 341 OFFCURVE",
"122 388 CURVE SMOOTH",
"122 430 OFFCURVE",
"159 462 OFFCURVE",
"206 462 CURVE SMOOTH",
"249 462 OFFCURVE",
"285 442 OFFCURVE",
"306 410 CURVE",
"354 444 LINE",
"322 488 OFFCURVE",
"270 514 OFFCURVE",
"206 514 CURVE SMOOTH",
"125 514 OFFCURVE",
"62 459 OFFCURVE",
"62 388 CURVE SMOOTH",
"62 323 OFFCURVE",
"131 273 OFFCURVE",
"201 239 CURVE SMOOTH",
"266 207 OFFCURVE",
"308 181 OFFCURVE",
"308 130 CURVE SMOOTH",
"308 79 OFFCURVE",
"265 40 OFFCURVE",
"211 40 CURVE SMOOTH",
"149 41 OFFCURVE",
"101 80 OFFCURVE",
"86 135 CURVE",
"33 101 LINE",
"61 33 OFFCURVE",
"127 -12 OFFCURVE",
"211 -12 CURVE SMOOTH"
);
},
{
closed = 1;
nodes = (
"211 167 LINE",
"391 78 LINE",
"211 -12 LINE",
"32 78 LINE"
);
},
{
closed = 1;
nodes = (
"211 526 LINE",
"391 436 LINE",
"211 347 LINE",
"32 436 LINE"
);
},
{
closed = 1;
nodes = (
"211 347 LINE",
"391 257 LINE",
"211 167 LINE",
"32 257 LINE"
);
}
);
width = 410;
},
{
layerId = "F0C8AC16-97C4-4682-80FB-F8C7118623A9";
paths = (
{
closed = 1;
nodes = (
"348 -12 OFFCURVE",
"421 65 OFFCURVE",
"421 160 CURVE SMOOTH",
"421 233 OFFCURVE",
"378 267 OFFCURVE",
"296 304 CURVE SMOOTH",
"205 345 OFFCURVE",
"197 349 OFFCURVE",
"197 363 CURVE SMOOTH",
"197 384 OFFCURVE",
"214 394 OFFCURVE",
"238 394 CURVE SMOOTH",
"267 394 OFFCURVE",
"281 380 OFFCURVE",
"287 363 CURVE",
"412 421 LINE",
"386 488 OFFCURVE",
"322 526 OFFCURVE",
"243 526 CURVE SMOOTH",
"143 526 OFFCURVE",
"61 465 OFFCURVE",
"61 361 CURVE SMOOTH",
"61 292 OFFCURVE",
"96 259 OFFCURVE",
"207 209 CURVE SMOOTH",
"255 187 OFFCURVE",
"273 183 OFFCURVE",
"273 158 CURVE SMOOTH",
"273 131 OFFCURVE",
"252 120 OFFCURVE",
"223 120 CURVE SMOOTH",
"183 120 OFFCURVE",
"159 141 OFFCURVE",
"152 177 CURVE",
"15 121 LINE",
"44 36 OFFCURVE",
"133 -12 OFFCURVE",
"228 -12 CURVE SMOOTH"
);
}
);
width = 448;
}
);
},
{
color = 1;
export = 0;
glyphname = s.011;
lastChange = "2019-02-11 10:15:53 +0000";
layers = (
{
layerId = "598F5332-0C7A-49A1-B747-7EF928CD593D";
paths = (
{
closed = 1;
nodes = (
"328 -12 OFFCURVE",
"395 46 OFFCURVE",
"395 128 CURVE SMOOTH",
"395 200 OFFCURVE",
"355 242 OFFCURVE",
"250 280 CURVE SMOOTH",
"165 310 OFFCURVE",
"133 337 OFFCURVE",
"133 380 CURVE SMOOTH",
"133 427 OFFCURVE",
"172 460 OFFCURVE",
"228 460 CURVE SMOOTH",
"274 460 OFFCURVE",
"330 442 OFFCURVE",
"375 409 CURVE",
"404 454 LINE",
"355 491 OFFCURVE",
"288 514 OFFCURVE",
"227 514 CURVE SMOOTH",
"136 514 OFFCURVE",
"72 457 OFFCURVE",
"72 376 CURVE SMOOTH",
"72 306 OFFCURVE",
"113 266 OFFCURVE",
"222 230 CURVE SMOOTH",
"303 203 OFFCURVE",
"334 175 OFFCURVE",
"334 127 CURVE SMOOTH",
"334 76 OFFCURVE",
"292 40 OFFCURVE",
"232 40 CURVE SMOOTH",
"176 40 OFFCURVE",
"111 64 OFFCURVE",
"59 108 CURVE",
"29 66 LINE",
"81 17 OFFCURVE",
"163 -12 OFFCURVE",
"233 -12 CURVE SMOOTH"
);
}
);
width = 449;
},
{
layerId = "F0C8AC16-97C4-4682-80FB-F8C7118623A9";
paths = (
{
closed = 1;
nodes = (
"392 -12 OFFCURVE",
"476 60 OFFCURVE",
"476 162 CURVE SMOOTH",
"476 277 OFFCURVE",
"370 315 OFFCURVE",
"284 337 CURVE SMOOTH",
"244 347 OFFCURVE",
"219 354 OFFCURVE",
"219 373 CURVE SMOOTH",
"219 386 OFFCURVE",
"230 398 OFFCURVE",
"263 398 CURVE SMOOTH",
"305 398 OFFCURVE",
"359 378 OFFCURVE",
"403 341 CURVE",
"468 457 LINE",
"410 504 OFFCURVE",
"334 529 OFFCURVE",
"260 529 CURVE SMOOTH",
"132 529 OFFCURVE",
"48 456 OFFCURVE",
"48 353 CURVE SMOOTH",
"48 261 OFFCURVE",
"114 216 OFFCURVE",
"237 186 CURVE SMOOTH",
"269 178 OFFCURVE",
"305 172 OFFCURVE",
"305 147 CURVE SMOOTH",
"305 133 OFFCURVE",
"293 119 OFFCURVE",
"250 119 CURVE SMOOTH",
"201 119 OFFCURVE",
"134 137 OFFCURVE",
"91 176 CURVE",
"19 69 LINE",
"76 14 OFFCURVE",
"166 -12 OFFCURVE",
"251 -12 CURVE SMOOTH"
);
}
);
width = 505;
}
);
},
{
color = 1;
export = 0;
glyphname = s.012;
lastChange = "2019-02-16 04:44:51 +0000";
layers = (
{
layerId = "598F5332-0C7A-49A1-B747-7EF928CD593D";
paths = (
{
closed = 1;
nodes = (
"328 -12 OFFCURVE",
"395 46 OFFCURVE",
"395 128 CURVE SMOOTH",
"395 200 OFFCURVE",
"355 242 OFFCURVE",
"250 280 CURVE SMOOTH",
"165 310 OFFCURVE",
"133 337 OFFCURVE",
"133 380 CURVE SMOOTH",
"133 427 OFFCURVE",
"172 460 OFFCURVE",
"228 460 CURVE SMOOTH",
"274 460 OFFCURVE",
"330 442 OFFCURVE",
"375 409 CURVE",
"404 454 LINE",
"355 491 OFFCURVE",
"288 514 OFFCURVE",
"227 514 CURVE SMOOTH",
"136 514 OFFCURVE",
"72 457 OFFCURVE",
"72 376 CURVE SMOOTH",
"72 306 OFFCURVE",
"113 266 OFFCURVE",
"222 230 CURVE SMOOTH",
"303 203 OFFCURVE",
"334 175 OFFCURVE",
"334 127 CURVE SMOOTH",
"334 76 OFFCURVE",
"292 40 OFFCURVE",
"232 40 CURVE SMOOTH",
"176 40 OFFCURVE",
"111 64 OFFCURVE",
"59 108 CURVE",
"29 66 LINE",
"81 17 OFFCURVE",
"163 -12 OFFCURVE",
"233 -12 CURVE SMOOTH"
);
}
);
width = 449;
},
{
layerId = "F0C8AC16-97C4-4682-80FB-F8C7118623A9";
paths = (
{
closed = 1;
nodes = (
"392 -12 OFFCURVE",
"476 60 OFFCURVE",
"476 162 CURVE SMOOTH",
"476 277 OFFCURVE",
"370 315 OFFCURVE",
"284 337 CURVE SMOOTH",
"244 347 OFFCURVE",
"219 354 OFFCURVE",
"219 373 CURVE SMOOTH",
"219 386 OFFCURVE",
"230 398 OFFCURVE",
"263 398 CURVE SMOOTH",
"305 398 OFFCURVE",
"359 378 OFFCURVE",
"403 341 CURVE",
"468 457 LINE",
"410 504 OFFCURVE",
"334 529 OFFCURVE",
"260 529 CURVE SMOOTH",
"132 529 OFFCURVE",
"48 456 OFFCURVE",
"48 353 CURVE SMOOTH",
"48 261 OFFCURVE",
"114 216 OFFCURVE",
"237 186 CURVE SMOOTH",
"269 178 OFFCURVE",
"305 172 OFFCURVE",
"305 147 CURVE SMOOTH",
"305 133 OFFCURVE",
"293 119 OFFCURVE",
"250 119 CURVE SMOOTH",
"201 119 OFFCURVE",
"134 137 OFFCURVE",
"91 176 CURVE",
"19 69 LINE",
"76 14 OFFCURVE",
"166 -12 OFFCURVE",
"251 -12 CURVE SMOOTH"
);
}
);
width = 505;
}
);
},
{
color = 1;
export = 0;
glyphname = s.013;
lastChange = "2019-02-16 04:44:51 +0000";
layers = (
{
layerId = "598F5332-0C7A-49A1-B747-7EF928CD593D";
paths = (
{
closed = 1;
nodes = (
"328 -12 OFFCURVE",
"395 46 OFFCURVE",
"395 128 CURVE SMOOTH",
"395 200 OFFCURVE",
"355 242 OFFCURVE",
"250 280 CURVE SMOOTH",
"165 310 OFFCURVE",
"133 337 OFFCURVE",
"133 380 CURVE SMOOTH",
"133 427 OFFCURVE",
"172 460 OFFCURVE",
"228 460 CURVE SMOOTH",
"274 460 OFFCURVE",
"330 442 OFFCURVE",
"375 409 CURVE",
"404 454 LINE",
"355 491 OFFCURVE",
"288 514 OFFCURVE",
"227 514 CURVE SMOOTH",
"136 514 OFFCURVE",
"72 457 OFFCURVE",
"72 376 CURVE SMOOTH",
"72 306 OFFCURVE",
"113 266 OFFCURVE",
"222 230 CURVE SMOOTH",
"303 203 OFFCURVE",
"334 175 OFFCURVE",
"334 127 CURVE SMOOTH",
"334 76 OFFCURVE",
"292 40 OFFCURVE",
"232 40 CURVE SMOOTH",
"176 40 OFFCURVE",
"111 64 OFFCURVE",
"59 108 CURVE",
"29 66 LINE",
"81 17 OFFCURVE",
"163 -12 OFFCURVE",
"233 -12 CURVE SMOOTH"
);
}
);
width = 449;
},
{
layerId = "F0C8AC16-97C4-4682-80FB-F8C7118623A9";
paths = (
{
closed = 1;
nodes = (
"392 -12 OFFCURVE",
"476 60 OFFCURVE",
"476 162 CURVE SMOOTH",
"476 277 OFFCURVE",
"370 315 OFFCURVE",
"284 337 CURVE SMOOTH",
"244 347 OFFCURVE",
"219 354 OFFCURVE",
"219 373 CURVE SMOOTH",
"219 386 OFFCURVE",
"230 398 OFFCURVE",
"263 398 CURVE SMOOTH",
"305 398 OFFCURVE",
"359 378 OFFCURVE",
"403 341 CURVE",
"468 457 LINE",
"410 504 OFFCURVE",
"334 529 OFFCURVE",
"260 529 CURVE SMOOTH",
"132 529 OFFCURVE",
"48 456 OFFCURVE",
"48 353 CURVE SMOOTH",
"48 261 OFFCURVE",
"114 216 OFFCURVE",
"237 186 CURVE SMOOTH",
"269 178 OFFCURVE",
"305 172 OFFCURVE",
"305 147 CURVE SMOOTH",
"305 133 OFFCURVE",
"293 119 OFFCURVE",
"250 119 CURVE SMOOTH",
"201 119 OFFCURVE",
"134 137 OFFCURVE",
"91 176 CURVE",
"19 69 LINE",
"76 14 OFFCURVE",
"166 -12 OFFCURVE",
"251 -12 CURVE SMOOTH"
);
}
);
width = 505;
}
);
},
{
color = 1;
export = 0;
glyphname = s.014;
lastChange = "2019-02-16 04:44:51 +0000";
layers = (
{
layerId = "598F5332-0C7A-49A1-B747-7EF928CD593D";
paths = (
{
closed = 1;
nodes = (
"344 -12 OFFCURVE",
"415 45 OFFCURVE",
"415 131 CURVE SMOOTH",
"415 206 OFFCURVE",
"362 252 OFFCURVE",
"289 269 CURVE SMOOTH",
"196 291 LINE SMOOTH",
"144 303 OFFCURVE",
"127 333 OFFCURVE",
"127 367 CURVE SMOOTH",
"127 422 OFFCURVE",
"170 458 OFFCURVE",
"232 458 CURVE SMOOTH",
"303 458 OFFCURVE",
"353 410 OFFCURVE",
"371 318 CURVE",
"325 356 LINE",
"450 399 LINE",
"427 361 LINE",
"393 462 OFFCURVE",
"326 514 OFFCURVE",
"234 514 CURVE SMOOTH",
"135 514 OFFCURVE",
"66 452 OFFCURVE",
"66 367 CURVE SMOOTH",
"66 293 OFFCURVE",
"119 248 OFFCURVE",
"172 237 CURVE SMOOTH",
"280 214 LINE SMOOTH",
"325 204 OFFCURVE",
"354 173 OFFCURVE",
"354 131 CURVE SMOOTH",
"354 80 OFFCURVE",
"311 44 OFFCURVE",
"247 44 CURVE SMOOTH",
"163 44 OFFCURVE",
"94 106 OFFCURVE",
"101 192 CURVE",
"139 162 LINE",
"12 126 LINE",
"45 151 LINE",
"49 57 OFFCURVE",
"136 -12 OFFCURVE",
"245 -12 CURVE SMOOTH"
);
}
);
width = 472;
},
{
layerId = "F0C8AC16-97C4-4682-80FB-F8C7118623A9";
paths = (
{
closed = 1;
nodes = (
"363 -12 OFFCURVE",
"443 58 OFFCURVE",
"443 157 CURVE SMOOTH",
"443 239 OFFCURVE",
"388 293 OFFCURVE",
"282 315 CURVE SMOOTH",
"224 327 LINE SMOOTH",
"203 331 OFFCURVE",
"190 343 OFFCURVE",
"190 362 CURVE SMOOTH",
"190 384 OFFCURVE",
"208 401 OFFCURVE",
"240 401 CURVE SMOOTH",
"296 401 OFFCURVE",
"309 352 OFFCURVE",
"304 323 CURVE",
"260 336 LINE",
"481 411 LINE",
"436 363 LINE",
"444 414 OFFCURVE",
"393 529 OFFCURVE",
"241 529 CURVE SMOOTH",
"113 529 OFFCURVE",
"39 449 OFFCURVE",
"39 357 CURVE SMOOTH",
"39 278 OFFCURVE",
"94 230 OFFCURVE",
"195 207 CURVE SMOOTH",
"248 195 LINE SMOOTH",
"280 188 OFFCURVE",
"292 174 OFFCURVE",
"292 156 CURVE SMOOTH",
"292 132 OFFCURVE",
"271 116 OFFCURVE",
"237 116 CURVE SMOOTH",
"177 116 OFFCURVE",
"153 168 OFFCURVE",
"171 210 CURVE",
"209 190 LINE",
"-15 136 LINE",
"30 162 LINE",
"20 115 OFFCURVE",
"72 -12 OFFCURVE",
"239 -12 CURVE SMOOTH"
);
}
);
width = 476;
}
);
},
{
color = 1;
export = 0;
glyphname = s.015;
lastChange = "2019-02-17 02:15:10 +0000";
layers = (
{
layerId = "598F5332-0C7A-49A1-B747-7EF928CD593D";
paths = (
{
closed = 1;
nodes = (
"338 -12 OFFCURVE",
"407 46 OFFCURVE",
"407 130 CURVE SMOOTH",
"407 226 OFFCURVE",
"349 249 OFFCURVE",
"244 281 CURVE SMOOTH",
"178 301 OFFCURVE",
"132 317 OFFCURVE",
"132 374 CURVE SMOOTH",
"132 425 OFFCURVE",
"173 459 OFFCURVE",
"232 459 CURVE SMOOTH",
"295 459 OFFCURVE",
"355 423 OFFCURVE",
"387 354 CURVE",
"340 364 LINE",
"441 446 LINE",
"429 398 LINE",
"387 473 OFFCURVE",
"314 514 OFFCURVE",
"233 514 CURVE SMOOTH",
"138 514 OFFCURVE",
"71 455 OFFCURVE",
"71 372 CURVE SMOOTH",
"71 285 OFFCURVE",
"129 254 OFFCURVE",
"224 229 CURVE SMOOTH",
"294 209 OFFCURVE",
"346 195 OFFCURVE",
"346 129 CURVE SMOOTH",
"346 78 OFFCURVE",
"304 42 OFFCURVE",
"242 42 CURVE SMOOTH",
"167 42 OFFCURVE",
"94 89 OFFCURVE",
"70 161 CURVE",
"114 154 LINE",
"10 78 LINE",
"30 119 LINE",
"56 41 OFFCURVE",
"147 -12 OFFCURVE",
"241 -12 CURVE SMOOTH"
);
}
);
width = 465;
},
{
layerId = "F0C8AC16-97C4-4682-80FB-F8C7118623A9";
paths = (
{
closed = 1;
nodes = (
"376 -12 OFFCURVE",
"458 59 OFFCURVE",
"458 160 CURVE SMOOTH",
"458 260 OFFCURVE",
"380 305 OFFCURVE",
"262 331 CURVE SMOOTH",
"232 338 OFFCURVE",
"203 342 OFFCURVE",
"203 366 CURVE SMOOTH",
"203 381 OFFCURVE",
"218 390 OFFCURVE",
"240 390 CURVE SMOOTH",
"293 390 OFFCURVE",
"333 361 OFFCURVE",
"354 320 CURVE",
"319 319 LINE",
"484 454 LINE",
"461 400 LINE",
"435 456 OFFCURVE",
"367 529 OFFCURVE",
"249 529 CURVE SMOOTH",
"121 529 OFFCURVE",
"42 453 OFFCURVE",
"42 355 CURVE SMOOTH",
"42 260 OFFCURVE",
"113 216 OFFCURVE",
"217 193 CURVE SMOOTH",
"254 185 OFFCURVE",
"284 178 OFFCURVE",
"284 157 CURVE SMOOTH",
"284 141 OFFCURVE",
"267 128 OFFCURVE",
"242 128 CURVE SMOOTH",
"183 128 OFFCURVE",
"150 156 OFFCURVE",
"129 204 CURVE",
"161 202 LINE",
"-13 84 LINE",
"13 126 LINE",
"35 68 OFFCURVE",
"112 -12 OFFCURVE",
"243 -12 CURVE SMOOTH"
);
}
);
width = 488;
}
);
},
{
color = 1;
glyphname = zero;
lastChange = "2019-08-09 02:37:11 +0000";
layers = (
{
layerId = "598F5332-0C7A-49A1-B747-7EF928CD593D";
paths = (
{
closed = 1;
nodes = (
"495 -12 OFFCURVE",
"607 138 OFFCURVE",
"607 354 CURVE SMOOTH",
"607 569 OFFCURVE",
"495 720 OFFCURVE",
"335 720 CURVE SMOOTH",
"175 720 OFFCURVE",
"63 569 OFFCURVE",
"63 354 CURVE SMOOTH",
"63 139 OFFCURVE",
"175 -12 OFFCURVE",
"335 -12 CURVE SMOOTH"
);
},
{
closed = 1;
nodes = (
"213 44 OFFCURVE",
"127 172 OFFCURVE",
"127 354 CURVE SMOOTH",
"127 536 OFFCURVE",
"213 664 OFFCURVE",
"335 664 CURVE SMOOTH",
"457 664 OFFCURVE",
"543 536 OFFCURVE",
"543 354 CURVE SMOOTH",
"543 172 OFFCURVE",
"457 44 OFFCURVE",
"335 44 CURVE SMOOTH"
);
}
);
width = 670;
},
{
layerId = "F0C8AC16-97C4-4682-80FB-F8C7118623A9";
paths = (
{
closed = 1;
nodes = (
"515 -12 OFFCURVE",
"642 139 OFFCURVE",
"642 354 CURVE SMOOTH",
"642 569 OFFCURVE",
"515 720 OFFCURVE",
"333 720 CURVE SMOOTH",
"151 720 OFFCURVE",
"24 569 OFFCURVE",
"24 354 CURVE SMOOTH",
"24 139 OFFCURVE",
"151 -12 OFFCURVE",
"333 -12 CURVE SMOOTH"
);
},
{
closed = 1;
nodes = (
"256 150 OFFCURVE",
"202 234 OFFCURVE",
"202 354 CURVE SMOOTH",
"202 474 OFFCURVE",
"256 558 OFFCURVE",
"333 558 CURVE SMOOTH",
"410 558 OFFCURVE",
"464 474 OFFCURVE",
"464 354 CURVE SMOOTH",
"464 234 OFFCURVE",
"410 150 OFFCURVE",
"333 150 CURVE SMOOTH"
);
}
);
width = 666;
},
{
associatedMasterId = "F0C8AC16-97C4-4682-80FB-F8C7118623A9";
layerId = "D0180E55-DB38-40AE-AE0C-1883B1BD1364";
name = bubble;
paths = (
{
closed = 1;
nodes = (
"542 -44 OFFCURVE",
"683 121 OFFCURVE",
"683 354 CURVE SMOOTH",
"683 587 OFFCURVE",
"542 752 OFFCURVE",
"342 752 CURVE SMOOTH",
"142 752 OFFCURVE",
"0 587 OFFCURVE",
"0 354 CURVE SMOOTH",
"0 121 OFFCURVE",
"142 -44 OFFCURVE",
"342 -44 CURVE SMOOTH"
);
}
);
width = 683;
},
{
associatedMasterId = "598F5332-0C7A-49A1-B747-7EF928CD593D";
layerId = "066405B3-8774-4FA5-8127-82A02E171E36";
name = bubble;
paths = (
{
closed = 1;
nodes = (
"532 -75 OFFCURVE",
"670 104 OFFCURVE",
"670 354 CURVE SMOOTH",
"670 603 OFFCURVE",
"532 783 OFFCURVE",
"335 783 CURVE SMOOTH",
"138 783 OFFCURVE",
"0 603 OFFCURVE",
"0 354 CURVE SMOOTH",
"0 105 OFFCURVE",
"138 -75 OFFCURVE",
"335 -75 CURVE SMOOTH"
);
}
);
width = 670;
}
);
unicode = 0030;
},
{
color = 1;
glyphname = one;
lastChange = "2019-08-09 02:37:11 +0000";
layers = (
{
layerId = "598F5332-0C7A-49A1-B747-7EF928CD593D";
paths = (
{
closed = 1;
nodes = (
"301 0 LINE",
"301 708 LINE",
"229 708 LINE",
"46 578 LINE",
"80 529 LINE",
"237 641 LINE",
"237 0 LINE"
);
}
);
width = 392;
},
{
layerId = "F0C8AC16-97C4-4682-80FB-F8C7118623A9";
paths = (
{
closed = 1;
nodes = (
"361 0 LINE",
"361 708 LINE",
"178 708 LINE",
"-4 578 LINE",
"89 440 LINE",
"187 513 LINE",
"187 0 LINE"
);
}
);
width = 430;
},
{
associatedMasterId = "F0C8AC16-97C4-4682-80FB-F8C7118623A9";
layerId = "B7A22FE6-0BF3-459E-BF8B-A46E673DE05F";
name = bubble;
paths = (
{
closed = 1;
nodes = (
"438 0 LINE",
"438 708 LINE",
"139 708 LINE",
"-15 598 LINE",
"104 420 LINE",
"165 465 LINE",
"165 0 LINE"
);
}
);
width = 438;
},
{
associatedMasterId = "598F5332-0C7A-49A1-B747-7EF928CD593D";
layerId = "7E24CF92-C1A9-4573-831F-9FA605427A39";
name = bubble;
paths = (
{
closed = 1;
nodes = (
"392 0 LINE",
"392 708 LINE",
"144 708 LINE",
"16 621 LINE",
"108 489 LINE",
"188 546 LINE",
"188 0 LINE"
);
}
);
width = 392;
}
);
unicode = 0031;
},
{
color = 1;
glyphname = two;
lastChange = "2019-04-17 03:40:40 +0000";
layers = (
{
layerId = "598F5332-0C7A-49A1-B747-7EF928CD593D";
paths = (
{
closed = 1;
nodes = (
"493 0 LINE",
"493 52 LINE",
"142 52 LINE",
"381 273 LINE SMOOTH",
"458 344 OFFCURVE",
"495 431 OFFCURVE",
"495 507 CURVE SMOOTH",
"495 625 OFFCURVE",
"406 720 OFFCURVE",
"268 720 CURVE SMOOTH",
"166 720 OFFCURVE",
"76 668 OFFCURVE",
"50 578 CURVE",
"111 553 LINE",
"129 624 OFFCURVE",
"194 664 OFFCURVE",
"267 664 CURVE SMOOTH",
"364 664 OFFCURVE",
"431 592 OFFCURVE",
"431 499 CURVE SMOOTH",
"431 437 OFFCURVE",
"402 374 OFFCURVE",
"343 318 CURVE SMOOTH",
"65 55 LINE",
"65 0 LINE"
);
}
);
width = 556;
},
{
layerId = "F0C8AC16-97C4-4682-80FB-F8C7118623A9";
paths = (
{
closed = 1;
nodes = (
"533 0 LINE",
"533 160 LINE",
"293 160 LINE",
"411 275 LINE SMOOTH",
"489 351 OFFCURVE",
"530 411 OFFCURVE",
"530 490 CURVE SMOOTH",
"530 617 OFFCURVE",
"426 720 OFFCURVE",
"275 720 CURVE SMOOTH",
"146 720 OFFCURVE",
"48 644 OFFCURVE",
"21 547 CURVE",
"188 478 LINE",
"194 519 OFFCURVE",
"230 553 OFFCURVE",
"275 553 CURVE SMOOTH",
"323 553 OFFCURVE",
"355 513 OFFCURVE",
"355 477 CURVE SMOOTH",
"355 439 OFFCURVE",
"320 407 OFFCURVE",
"255 347 CURVE SMOOTH",
"31 140 LINE",
"31 0 LINE"
);
}
);
width = 574;
}
);
unicode = 0032;
},
